<?xml version="1.0" standalone="no"?>
<!DOCTYPE svg PUBLIC "-//W3C//DTD SVG 1.1//EN" "http://www.w3.org/Graphics/SVG/1.1/DTD/svg11.dtd" >
<svg xmlns="http://www.w3.org/2000/svg" xmlns:xlink="http://www.w3.org/1999/xlink" version="1.1">
<metadata>
Created by FontForge 20230101 at Sat May  2 05:38:35 2015
 By Unknown
(c) 2014 The Monotype Corporation. All Rights Reserved. 
</metadata>
<defs>
<font id="GillSansNova-Bold" horiz-adv-x="682" >
  <font-face 
    font-family="Gill Sans Nova"
    font-weight="700"
    font-stretch="normal"
    units-per-em="2048"
    panose-1="2 11 8 2 2 1 4 2 2 3"
    ascent="1638"
    descent="-410"
    x-height="993"
    cap-height="1397"
    bbox="-975 -565 2613 1913"
    underline-thickness="102"
    underline-position="-205"
    unicode-range="U+0020-2122"
  />
<missing-glyph horiz-adv-x="1024" 
d="M25 0v1372h972v-1372h-972zM180 1276l332 -502l330 502h-662zM123 1186v-998l330 498zM901 186v1000l-332 -500zM842 98l-330 500l-332 -500h662z" />
    <glyph glyph-name=".notdef" horiz-adv-x="1024" 
d="M25 0v1372h972v-1372h-972zM180 1276l332 -502l330 502h-662zM123 1186v-998l330 498zM901 186v1000l-332 -500zM842 98l-330 500l-332 -500h662z" />
    <glyph glyph-name="glyph1" horiz-adv-x="0" 
 />
    <glyph glyph-name="glyph2" horiz-adv-x="596" 
 />
    <glyph glyph-name="space" unicode=" " horiz-adv-x="596" 
 />
    <glyph glyph-name="exclam" unicode="!" horiz-adv-x="600" 
d="M377 520q-17 -43 -34 -59.5t-42 -16.5q-29 0 -43 16.5t-29 57.5q-32 100 -73 282.5t-41 311.5q0 150 54 226.5t132 76.5q80 0 131 -76.5t51 -224.5q0 -127 -33.5 -308t-72.5 -286zM301 -18q-78 0 -134 55t-56 133t56 133t134 55t132 -55t54 -133t-54 -133t-132 -55z" />
    <glyph glyph-name="quotedbl" unicode="&#x22;" horiz-adv-x="934" 
d="M348 862h-225l-60 291v244h345v-244zM813 862h-227l-60 291v244h344v-244z" />
    <glyph glyph-name="numbersign" unicode="#" horiz-adv-x="1366" 
d="M926 1042l80 381h208l-79 -381h155v-202h-196l-60 -291h256v-203h-299l-80 -377h-209l78 377h-342l-78 -377h-210l79 377h-153v203h194l62 291h-256v202h299l80 381h209l-78 -381h340zM883 840h-340l-62 -291h340z" />
    <glyph glyph-name="dollar" unicode="$" horiz-adv-x="1159" 
d="M498 -18q-99 10 -206.5 50t-201.5 99v275q92 -78 197.5 -131.5t210.5 -69.5v370q-211 54 -315.5 153t-104.5 247q0 94 49 176t143.5 138.5t227.5 72.5v94h170v-94q104 -16 192 -50t172 -93v-275q-80 70 -175 121t-189 74v-324q219 -70 319 -172t100 -260q0 -96 -48 -181
t-142 -144.5t-229 -75.5v-226h-170v226zM344 1010q0 -101 154 -146v279q-72 -8 -113 -45t-41 -88zM821 356q0 60 -36.5 95.5t-116.5 70.5v-317q73 14 113 53t40 98z" />
    <glyph glyph-name="percent" unicode="%" horiz-adv-x="1511" 
d="M397 754q-90 0 -166.5 45t-120.5 121.5t-44 169.5q0 92 45 166.5t120.5 117.5t165.5 43t167 -43t122 -118.5t45 -165.5q0 -93 -44 -169.5t-121 -121.5t-169 -45zM174 -18l977 1435h188l-974 -1435h-191zM539 1087q0 62 -42 104t-102 42q-57 0 -98 -42t-41 -104
q0 -61 41 -105t100 -44q60 0 101 44t41 105zM1112 -18q-90 0 -167 44t-121 120.5t-44 168.5q0 93 45 168.5t121 118.5t166 43t167 -44t122 -118.5t45 -167.5q0 -90 -44 -166.5t-121 -121.5t-169 -45zM1253 313q0 64 -42 106t-101 42t-99 -42t-40 -106q0 -61 40 -104t101 -43
q59 0 100 43t41 104z" />
    <glyph glyph-name="ampersand" unicode="&#x26;" horiz-adv-x="1563" 
d="M397 731q-78 80 -116.5 155t-38.5 156q0 88 49 171t147.5 135.5t239.5 52.5q131 0 223 -50.5t138 -127t46 -154.5q0 -205 -264 -358l189 -207q90 86 153 207h293q-47 -101 -118.5 -204.5t-157.5 -187.5l293 -319h-406l-111 121q-86 -62 -197.5 -100.5t-232.5 -38.5
q-135 0 -235.5 47t-153.5 125.5t-53 173.5q0 116 70.5 203t242.5 200zM834 1061q0 53 -40 90t-108 37q-65 0 -103 -35t-38 -82q0 -37 29.5 -84t97.5 -117q162 82 162 191zM567 211q60 0 112 22.5t114 67.5l-240 260q-84 -53 -125 -102t-41 -101q0 -53 47 -100t133 -47z" />
    <glyph glyph-name="quotesingle" unicode="'" horiz-adv-x="514" 
d="M371 862h-228l-59 291v244h346v-244z" />
    <glyph glyph-name="parenleft" unicode="(" horiz-adv-x="750" 
d="M420 465q0 -277 92 -509t281 -437h-220q-225 190 -353 433t-128 513q0 266 121 498.5t360 451.5h220q-195 -217 -284 -445.5t-89 -504.5z" />
    <glyph glyph-name="parenright" unicode=")" horiz-adv-x="750" 
d="M330 469q0 276 -91.5 507.5t-281.5 438.5h219q240 -213 360.5 -440t120.5 -504q0 -266 -120.5 -501.5t-360.5 -450.5h-219q197 219 285 446.5t88 503.5z" />
    <glyph glyph-name="asterisk" unicode="*" horiz-adv-x="1083" 
d="M643 1286l-78 -254q31 -4 51 -26l183 198q28 33 48.5 47.5t39.5 14.5q18 0 46 -28t49.5 -66.5t21.5 -71.5q0 -31 -20.5 -47.5t-78.5 -30.5l-264 -64q4 -12 4 -26q0 -10 -4 -31l252 -55q61 -15 86 -34t25 -50q0 -33 -21.5 -71t-49.5 -65.5t-46 -27.5q-39 0 -94 64
l-177 194q-24 -20 -51 -27l76 -235q16 -66 16 -98q0 -37 -25.5 -55.5t-90.5 -18.5q-117 0 -117 74q0 24 18 94l74 239q-29 7 -49 27l-178 -192q-37 -39 -56.5 -52.5t-37.5 -13.5q-19 0 -46.5 27.5t-48 65.5t-20.5 71q0 29 21.5 47t84.5 33l256 59q-4 10 -4 29q0 22 4 28
l-262 64q-59 16 -79.5 33.5t-20.5 44.5q0 33 21.5 71.5t50 66.5t45.5 28q34 0 92 -64l178 -196q25 24 49 26l-76 252q-16 59 -16 82q0 37 26.5 54.5t90.5 17.5q118 0 118 -70q0 -27 -16 -82z" />
    <glyph glyph-name="plus" unicode="+" horiz-adv-x="1190" 
d="M467 1221h256v-390h375v-256h-375v-389h-256v389h-377v256h377v390z" />
    <glyph glyph-name="comma" unicode="," horiz-adv-x="567" 
d="M481 90q0 -94 -46 -179t-136 -145.5t-219 -80.5v55q70 33 102.5 95.5t32.5 168.5q-70 21 -105.5 66t-35.5 112q0 76 55 131.5t131 55.5q102 0 161.5 -83t59.5 -196z" />
    <glyph glyph-name="hyphen" unicode="-" horiz-adv-x="901" 
d="M145 352v293h609v-293h-609z" />
    <glyph glyph-name="period" unicode="." horiz-adv-x="537" 
d="M453 164q0 -72 -54.5 -128t-130.5 -56q-75 0 -129.5 54t-54.5 130t54.5 129t129.5 53q76 0 130.5 -54t54.5 -128z" />
    <glyph glyph-name="slash" unicode="/" horiz-adv-x="645" 
d="M27 -18l374 1433h217l-376 -1433h-215z" />
    <glyph glyph-name="zero" unicode="0" horiz-adv-x="1159" 
d="M1094 698q0 -227 -68 -389t-184.5 -244.5t-261.5 -82.5q-148 0 -264.5 84t-183 244.5t-66.5 385.5q0 234 69.5 395.5t187 242.5t259.5 81q145 0 262 -85t183.5 -246.5t66.5 -385.5zM580 244q88 0 132 105.5t44 342.5q0 230 -42 345.5t-136 115.5q-82 0 -129.5 -109.5
t-47.5 -347.5q0 -233 41 -342.5t138 -109.5z" />
    <glyph glyph-name="one" unicode="1" horiz-adv-x="1159" 
d="M506 0v958l-203 -161l-176 217l489 401h215v-1415h-325z" />
    <glyph glyph-name="two" unicode="2" horiz-adv-x="1159" 
d="M979 985q0 -166 -96.5 -329.5t-247.5 -346.5l-27 -33h473v-276h-1001v23q244 247 411.5 474.5t167.5 409.5q0 111 -61 170.5t-147 59.5t-170 -46.5t-162 -136.5v308q114 81 212.5 117t203.5 36q127 0 228 -54t158.5 -151.5t57.5 -224.5z" />
    <glyph glyph-name="three" unicode="3" horiz-adv-x="1159" 
d="M788 733q105 -51 156 -138t51 -202q0 -135 -67.5 -228t-177 -138t-234.5 -45q-197 0 -373 94v284q76 -61 157 -92.5t157 -31.5q94 0 149.5 48t55.5 130q0 198 -281 198v213q135 0 198.5 48.5t63.5 132.5q0 75 -53 123.5t-141 48.5q-125 0 -271 -86v243q162 80 346 80
q203 0 326 -99t123 -274q0 -96 -50.5 -178t-134.5 -131z" />
    <glyph glyph-name="four" unicode="4" horiz-adv-x="1159" 
d="M1090 567v-219h-162v-348h-316v348h-573v213l657 842h232v-836h162zM612 567v437l-338 -437h338z" />
    <glyph glyph-name="five" unicode="5" horiz-adv-x="1159" 
d="M475 1137v-273q70 4 74 4q137 0 242.5 -57t164 -156.5t58.5 -218.5q0 -127 -57.5 -230.5t-167 -163.5t-261.5 -60q-235 0 -419 118v273q75 -54 177.5 -92.5t178.5 -38.5q104 0 160.5 57t56.5 135q0 101 -80 155t-201 54q-114 0 -196 -35v789h747v-260h-477z" />
    <glyph glyph-name="six" unicode="6" horiz-adv-x="1159" 
d="M528 872q60 25 131 25q119 0 217.5 -54.5t157 -153.5t58.5 -230q0 -127 -63.5 -236.5t-177.5 -175t-259 -65.5q-162 0 -279.5 71.5t-178 193.5t-60.5 273q0 242 139 468t416 429l276 -125q-270 -211 -377 -420zM584 256q94 0 144 61.5t50 143.5q0 94 -54 146t-142 52
q-86 0 -140.5 -53t-54.5 -133q0 -98 59.5 -157.5t137.5 -59.5z" />
    <glyph glyph-name="seven" unicode="7" horiz-adv-x="1159" 
d="M496 -18l-277 94l451 1048h-576v273h1006v-31z" />
    <glyph glyph-name="eight" unicode="8" horiz-adv-x="1159" 
d="M1053 1022q0 -96 -41 -170t-135 -133q102 -55 158.5 -145.5t56.5 -196.5q0 -92 -50.5 -182.5t-165 -151.5t-296.5 -61q-181 0 -295.5 60t-165.5 150.5t-51 186.5q0 102 55 193.5t160 146.5q-95 65 -133.5 136t-38.5 165t51 185t157.5 150.5t262.5 59.5q155 0 261.5 -58.5
t158 -148.5t51.5 -186zM582 807q67 0 116.5 55.5t49.5 136.5q0 80 -44.5 137.5t-119.5 57.5q-82 0 -126 -58.5t-44 -134.5q0 -83 50 -138.5t118 -55.5zM582 195q86 0 143 60t57 153q0 90 -59 149t-145 59q-84 0 -142.5 -60t-58.5 -150q0 -95 58.5 -153t146.5 -58z" />
    <glyph glyph-name="nine" unicode="9" horiz-adv-x="1159" 
d="M1087 877q0 -238 -147 -477.5t-408 -419.5l-276 122q266 207 375 424q-60 -20 -133 -20q-68 0 -123 16q-137 35 -222 149.5t-85 268.5q0 127 64.5 235.5t178 174t256.5 65.5q154 0 272.5 -69.5t183 -192.5t64.5 -276zM567 737q90 0 148.5 50.5t58.5 136.5q0 92 -55 154.5
t-146 62.5q-86 0 -139 -58.5t-53 -148.5q0 -86 52 -141.5t134 -55.5z" />
    <glyph glyph-name="colon" unicode=":" horiz-adv-x="543" 
d="M455 827q0 -73 -53.5 -128.5t-131.5 -55.5q-75 0 -129.5 54.5t-54.5 129.5q0 76 55.5 130.5t128.5 54.5q76 0 130.5 -55.5t54.5 -129.5zM455 164q0 -74 -53.5 -129t-131.5 -55q-75 0 -129.5 54t-54.5 130t55.5 129t128.5 53q76 0 130.5 -54t54.5 -128z" />
    <glyph glyph-name="semicolon" unicode=";" horiz-adv-x="573" 
d="M459 827q0 -73 -53.5 -128.5t-131.5 -55.5q-75 0 -129.5 54.5t-54.5 129.5q0 76 54.5 130.5t129.5 54.5q76 0 130.5 -55.5t54.5 -129.5zM489 90q0 -94 -46 -179t-136 -145.5t-219 -80.5v55q70 33 102.5 95.5t32.5 168.5q-69 21 -105 66t-36 112q0 76 54 131.5t130 55.5
q105 0 164 -83t59 -196z" />
    <glyph glyph-name="less" unicode="&#x3c;" horiz-adv-x="1190" 
d="M1098 965l-645 -277q71 -37 352 -151q55 -25 153.5 -66t139.5 -61v-275l-1008 461v188l1008 459v-278z" />
    <glyph glyph-name="equal" unicode="=" horiz-adv-x="1190" 
d="M1098 840h-1008v256h1008v-256zM1098 307h-1008v256h1008v-256z" />
    <glyph glyph-name="greater" unicode="&#x3e;" horiz-adv-x="1190" 
d="M334 862q-215 90 -242 103v278l1006 -459v-188l-1006 -461v275l645 280q-102 53 -403 172z" />
    <glyph glyph-name="question" unicode="?" horiz-adv-x="756" 
d="M330 1415q153 0 247.5 -81t94.5 -216q0 -94 -46 -174t-137 -166q-71 -73 -107 -144t-36 -130q0 -39 19 -51q-172 14 -172 159q0 54 18 108t59 130q66 119 66 199q0 47 -33 79.5t-98 32.5q-70 0 -133 -45l92 275q90 24 166 24zM500 170q0 -78 -54.5 -133t-132.5 -55
q-77 0 -131.5 55t-54.5 133t55.5 133t132.5 55q76 0 130.5 -55t54.5 -133z" />
    <glyph glyph-name="at" unicode="@" horiz-adv-x="1935" 
d="M891 -315q-246 0 -432.5 100t-289.5 288.5t-103 448.5q0 248 119.5 454t342 326.5t514.5 120.5q240 0 427.5 -83t294 -236.5t106.5 -355.5q0 -189 -69.5 -329t-201 -215t-309.5 -75q-90 0 -147.5 40t-69.5 110q-74 -78 -147.5 -114t-163.5 -36q-129 0 -201 95t-72 251
q0 158 66 285t201 202.5t336 75.5q161 0 323 -47l-98 -534q-8 -49 -8 -74q0 -29 11 -40t36 -11q135 0 216 119.5t81 298.5q0 225 -160 357t-451 132q-241 0 -412 -91t-259 -254t-88 -372q0 -303 161.5 -479t458.5 -176q197 0 350.5 46t274.5 140l102 -147
q-131 -109 -310 -165t-429 -56zM1047 827q-140 0 -221 -94t-81 -235q0 -76 31 -121t96 -45q97 0 203 137l64 348q-11 4 -39.5 7t-52.5 3z" />
    <glyph glyph-name="A" unicode="A" horiz-adv-x="1589" 
d="M1229 0l-135 322h-600l-134 -322h-360l608 1399h367l614 -1399h-360zM793 1055l-207 -508h415z" />
    <glyph glyph-name="B" unicode="B" horiz-adv-x="1399" 
d="M1219 1059q0 -103 -54.5 -184.5t-146.5 -118.5q153 -47 228 -141.5t75 -223.5q0 -215 -151.5 -303t-413.5 -88h-606v1397h593q222 0 349 -91.5t127 -246.5zM883 1001q0 93 -52.5 136t-164.5 43h-164v-363h149q115 0 173.5 44t58.5 140zM967 408q0 194 -281 194h-184v-385
h184q281 0 281 191z" />
    <glyph glyph-name="C" unicode="C" horiz-adv-x="1499" 
d="M1389 1307v-324q-121 76 -231.5 113t-229.5 37q-152 0 -260.5 -60.5t-163.5 -161t-55 -219.5q0 -117 56 -215t162.5 -155.5t252.5 -57.5q245 0 477 154v-314q-228 -122 -535 -122q-237 0 -412.5 94t-268.5 257t-93 365q0 217 100.5 380t278.5 250t401 87q258 0 521 -108z
" />
    <glyph glyph-name="D" unicode="D" horiz-adv-x="1620" 
d="M1532 702q0 -333 -198.5 -517.5t-573.5 -184.5h-610v1397h589q254 0 433.5 -88t269.5 -246t90 -361zM1171 696q0 215 -118.5 333t-339.5 118h-211v-891h223q223 0 334.5 111.5t111.5 328.5z" />
    <glyph glyph-name="E" unicode="E" horiz-adv-x="1229" 
d="M502 1147v-307h577v-250h-577v-340h620v-250h-972v1397h956v-250h-604z" />
    <glyph glyph-name="F" unicode="F" horiz-adv-x="1159" 
d="M502 1147v-305h565v-252h-565v-590h-352v1397h917v-250h-565z" />
    <glyph glyph-name="G" unicode="G" horiz-adv-x="1597" 
d="M950 1145q-170 0 -282.5 -66.5t-165.5 -170t-53 -214.5q0 -121 57 -220t163.5 -156.5t250.5 -57.5q59 0 103 6t110 27v203h-213v249h528v-647q-152 -61 -293 -88.5t-291 -27.5q-235 0 -411.5 91t-270.5 252.5t-94 368.5q0 197 91 361t270.5 262t429.5 98q145 0 267 -23.5
t275 -82.5v-291q-112 65 -227 96t-244 31z" />
    <glyph glyph-name="H" unicode="H" horiz-adv-x="1679" 
d="M1178 856v541h352v-1397h-352v563h-676v-563h-352v1397h352v-541h676z" />
    <glyph glyph-name="I" unicode="I" horiz-adv-x="651" 
d="M150 0v1397h352v-1397h-352z" />
    <glyph glyph-name="J" unicode="J" horiz-adv-x="672" 
d="M80 -457q-55 0 -125 13l-55 292q127 0 181 20.5t71.5 81t17.5 197.5v1250h352v-1284q0 -181 -34.5 -303.5t-132 -194.5t-275.5 -72z" />
    <glyph glyph-name="K" unicode="K" horiz-adv-x="1520" 
d="M1030 1397h393l-544 -656l647 -741h-439l-585 678v-678h-352v1397h352v-643z" />
    <glyph glyph-name="L" unicode="L" horiz-adv-x="1190" 
d="M1135 289v-289h-985v1397h352v-1108h633z" />
    <glyph glyph-name="M" unicode="M" horiz-adv-x="1817" 
d="M1348 1397h319v-1397h-352v893l-393 -490h-33l-395 490v-893h-344v1397h321l438 -539z" />
    <glyph glyph-name="N" unicode="N" horiz-adv-x="1741" 
d="M1243 1397h348v-1397h-313l-782 868v-868h-346v1397h309l784 -871v871z" />
    <glyph glyph-name="O" unicode="O" horiz-adv-x="1726" 
d="M1638 698q0 -198 -92 -361t-268 -259t-418 -96q-244 0 -418 97t-264 260t-90 357q0 185 84 348.5t259 267t435 103.5q236 0 411 -94t268 -258t93 -365zM449 696q0 -118 52 -211.5t146 -144.5t213 -51q187 0 302.5 110.5t115.5 300.5q0 111 -49 204t-143.5 148.5
t-223.5 55.5q-125 0 -219 -52t-144 -145.5t-50 -214.5z" />
    <glyph glyph-name="P" unicode="P" horiz-adv-x="1311" 
d="M1253 971q0 -119 -55 -214t-166.5 -151.5t-275.5 -56.5h-254v-549h-352v1397h589q242 0 378 -111.5t136 -314.5zM893 971q0 98 -54.5 142t-174.5 44h-162v-369h176q215 0 215 183z" />
    <glyph glyph-name="Q" unicode="Q" horiz-adv-x="1726" 
d="M1157 31q248 -121 438 -121q35 0 66 8l8 -16l-262 -246q-223 39 -468 149.5t-396 229.5q-221 84 -338 261t-117 400q0 191 87 354.5t263 264t428 100.5q242 0 417 -97t265 -260t90 -358q0 -235 -128 -415.5t-353 -253.5zM862 289q125 0 219.5 51t145.5 144.5t51 213.5
q0 115 -48 208t-143.5 147.5t-226.5 54.5q-127 0 -220 -53.5t-142 -146.5t-49 -212q0 -118 51 -210.5t145 -144.5t217 -52z" />
    <glyph glyph-name="R" unicode="R" horiz-adv-x="1423" 
d="M1231 975q0 -117 -57.5 -206t-172.5 -140q66 -37 114 -96.5t114 -180.5l182 -352h-385l-162 315q-53 107 -97 159t-89 70.5t-113 18.5h-63v-563h-352v1397h581q240 0 370 -116t130 -306zM872 971q0 186 -217 186h-153v-366h147q109 0 166 39.5t57 140.5z" />
    <glyph glyph-name="S" unicode="S" horiz-adv-x="1141" 
d="M993 1305v-299q-198 155 -387 155q-82 0 -124 -33.5t-42 -89.5q0 -51 43 -92t168 -104q140 -72 220.5 -128.5t130 -135t49.5 -191.5q0 -121 -61.5 -213t-173 -142t-253.5 -50q-225 0 -454 116v316q210 -168 409 -168q88 0 134 36.5t46 90.5q0 39 -17 67.5t-70.5 66.5
t-164.5 91q-102 53 -173.5 103.5t-123 132t-51.5 194.5q0 109 55.5 197t162 139t255.5 51q117 0 227.5 -29.5t194.5 -80.5z" />
    <glyph glyph-name="T" unicode="T" horiz-adv-x="1425" 
d="M887 1106v-1106h-352v1106h-498v291h1352v-291h-502z" />
    <glyph glyph-name="U" unicode="U" horiz-adv-x="1655" 
d="M829 281q164 0 251 87t87 267v762h353v-770q0 -310 -181.5 -477.5t-509.5 -167.5q-333 0 -513.5 168.5t-180.5 470.5v776h352v-758q0 -174 87.5 -266t254.5 -92z" />
    <glyph glyph-name="V" unicode="V" horiz-adv-x="1430" 
d="M1065 1397h365l-615 -1411h-207l-608 1411h365l348 -860z" />
    <glyph glyph-name="W" unicode="W" horiz-adv-x="2320" 
d="M1028 1397h266l342 -832l326 832h358l-589 -1411h-181l-391 917l-395 -917h-184l-580 1411h362l318 -832z" />
    <glyph glyph-name="X" unicode="X" horiz-adv-x="1659" 
d="M557 1311q141 -176 264 -334q105 145 330 420h438l-542 -672l604 -725h-449l-381 463q-88 -117 -370 -463h-443l592 725l-559 672h446z" />
    <glyph glyph-name="Y" unicode="Y" horiz-adv-x="1430" 
d="M1049 1397h381l-535 -727v-670h-352v664l-543 733h377l334 -453z" />
    <glyph glyph-name="Z" unicode="Z" horiz-adv-x="1438" 
d="M1393 289v-289h-1362l770 1108h-713v289h1305l-768 -1108h768z" />
    <glyph glyph-name="bracketleft" unicode="[" horiz-adv-x="846" 
d="M465 1182v-1430h340v-215h-637v1860h637v-215h-340z" />
    <glyph glyph-name="backslash" unicode="\" horiz-adv-x="645" 
d="M401 -18l-374 1433h215l376 -1433h-217z" />
    <glyph glyph-name="bracketright" unicode="]" horiz-adv-x="846" 
d="M43 -463v215h338v1430h-338v215h635v-1860h-635z" />
    <glyph glyph-name="asciicircum" unicode="^" horiz-adv-x="1190" 
d="M1122 662h-272l-256 452l-254 -452h-272l436 735h178z" />
    <glyph glyph-name="underscore" unicode="_" horiz-adv-x="1024" 
d="M-12 -326v189h1048v-189h-1048z" />
    <glyph glyph-name="grave" unicode="`" 
d="M358 1124l-327 336h340l161 -336h-174z" />
    <glyph glyph-name="a" unicode="a" horiz-adv-x="1077" 
d="M936 698v-409q0 -39 9 -61.5t36 -22.5q35 0 92 35v-189q-80 -37 -143.5 -53t-126.5 -16q-66 0 -106 25.5t-54 78.5q-121 -104 -293 -104q-133 0 -207.5 68.5t-74.5 180.5q0 99 58 163.5t169 111.5t334 119v22q0 84 -41 118t-121 34q-98 0 -193.5 -46t-175.5 -132v256
q170 135 426 135q199 0 305.5 -83t106.5 -231zM479 158q66 0 150 71v252q-99 -41 -149 -66.5t-79.5 -60.5t-29.5 -84q0 -51 30.5 -81.5t77.5 -30.5z" />
    <glyph glyph-name="b" unicode="b" horiz-adv-x="1225" 
d="M588 -18q-121 0 -231.5 22.5t-237.5 63.5v1329h307v-465q51 41 120.5 60.5t145.5 19.5q152 0 255.5 -73t153.5 -190.5t50 -252.5q0 -260 -154.5 -387t-408.5 -127zM584 215q100 0 173.5 63.5t73.5 215.5q0 129 -60 206.5t-159 77.5q-43 0 -91 -18.5t-95 -54.5v-465
q68 -25 158 -25z" />
    <glyph glyph-name="c" unicode="c" horiz-adv-x="999" 
d="M918 952v-260q-136 68 -269 68q-110 0 -183 -72t-73 -188q0 -115 73 -189.5t193 -74.5q115 0 277 61v-254q-88 -33 -163 -47t-159 -14q-198 0 -320 82.5t-172 200.5t-50 231q0 118 52 237t173 199t311 80q82 0 152.5 -13.5t157.5 -46.5z" />
    <glyph glyph-name="d" unicode="d" horiz-adv-x="1225" 
d="M655 0q-313 0 -448 132t-135 378q0 137 56 250.5t164.5 182.5t256.5 69q145 0 252 -66v451h305v-1397h-451zM686 238h115v485q-80 55 -183 55q-100 0 -162.5 -72.5t-62.5 -193.5q0 -147 66.5 -210.5t226.5 -63.5z" />
    <glyph glyph-name="e" unicode="e" horiz-adv-x="1149" 
d="M1083 489v-57h-696q16 -106 97 -170.5t194 -64.5q184 0 381 104v-211q-187 -108 -441 -108q-163 0 -287 64.5t-191.5 182t-67.5 273.5q0 151 64.5 267t186 179.5t285.5 63.5q133 0 240.5 -59.5t171 -177.5t63.5 -286zM594 809q-92 0 -151.5 -61.5t-61.5 -159.5h412
q-2 102 -54.5 161.5t-144.5 59.5z" />
    <glyph glyph-name="f" unicode="f" horiz-adv-x="688" 
d="M739 1397v-234q-65 19 -123 19q-139 0 -139 -181v-47h176v-219h-176v-735h-307v735h-154v219h154v31q0 201 105.5 315.5t297.5 114.5q82 0 166 -18z" />
    <glyph glyph-name="g" unicode="g" horiz-adv-x="1069" 
d="M969 596q0 -133 -99.5 -221t-269.5 -101q-139 -14 -139 -73q0 -37 46 -52.5t173 -29.5q346 -39 346 -287q0 -151 -128 -232t-368 -81q-241 0 -368 72.5t-127 197.5q0 84 57.5 146.5t181.5 82.5q-41 17 -65.5 51.5t-24.5 73.5q0 58 40 103t114 61q-123 37 -190.5 121
t-67.5 195q0 176 126 273t351 97h498v-194h-181q95 -80 95 -203zM520 455q80 0 130 48t50 120q0 71 -51 120.5t-123 49.5q-80 0 -129 -54.5t-49 -120.5q0 -71 49 -117t123 -46zM541 -315q110 0 171.5 31.5t61.5 90.5q0 58 -64.5 88.5t-179.5 30.5q-110 0 -168.5 -28.5
t-58.5 -92.5q0 -120 238 -120z" />
    <glyph glyph-name="h" unicode="h" horiz-adv-x="1221" 
d="M1112 612v-612h-307v569q0 99 -40 150t-116 51q-61 0 -114.5 -36t-108.5 -116v-618h-307v1397h307v-543q72 82 154 120t182 38q182 0 266 -106.5t84 -293.5z" />
    <glyph glyph-name="i" unicode="i" horiz-adv-x="545" 
d="M410 1243q0 -57 -40 -98t-98 -41q-57 0 -98 41t-41 98t40 98t99 41q58 0 98 -41t40 -98zM119 0v993h307v-993h-307z" />
    <glyph glyph-name="j" unicode="j" horiz-adv-x="545" 
d="M410 1243q0 -59 -40 -99t-100 -40q-57 0 -97 42t-40 97t40 97t97 42q60 0 100 -41t40 -98zM96 -481l-125 233q82 27 115 77t33 157v1007h307v-1059q0 -182 -88 -286.5t-242 -128.5z" />
    <glyph glyph-name="k" unicode="k" horiz-adv-x="1223" 
d="M119 0v1397h309v-1397h-309zM1243 0h-393l-416 514l383 479h367l-383 -469z" />
    <glyph glyph-name="l" unicode="l" horiz-adv-x="545" 
d="M119 0v1397h307v-1397h-307z" />
    <glyph glyph-name="m" unicode="m" horiz-adv-x="1896" 
d="M1073 821q90 103 176 147t191 44q172 0 260 -103.5t88 -296.5v-612h-305v557q0 102 -40 157.5t-120 55.5q-57 0 -112.5 -38t-104.5 -109v-623h-305v553q0 111 -39 164t-121 53q-55 0 -106.5 -31.5t-110.5 -115.5v-623h-305v993h305v-139q80 82 156.5 120t177.5 38
q112 0 194 -49.5t121 -141.5z" />
    <glyph glyph-name="n" unicode="n" horiz-adv-x="1221" 
d="M1112 606v-606h-307v561q0 209 -160 209q-61 0 -114.5 -37t-104.5 -115v-618h-307v993h307v-137q139 156 336 156q180 0 265 -108.5t85 -297.5z" />
    <glyph glyph-name="o" unicode="o" horiz-adv-x="1255" 
d="M1184 498q0 -156 -70 -272.5t-196.5 -180t-290.5 -63.5q-176 0 -301 68.5t-189.5 185t-64.5 260.5q0 149 65.5 266t191.5 183.5t300 66.5q172 0 297 -65.5t191.5 -182.5t66.5 -266zM393 498q0 -129 63.5 -204t172.5 -75q108 0 171.5 76t63.5 203q0 131 -65.5 203.5
t-173.5 72.5q-107 0 -169.5 -73.5t-62.5 -202.5z" />
    <glyph glyph-name="p" unicode="p" horiz-adv-x="1227" 
d="M674 -18q-72 0 -127 14t-121 53v-518h-307v1462h444q275 0 432.5 -107.5t157.5 -396.5q0 -133 -54.5 -249.5t-163 -187t-261.5 -70.5zM606 219q101 0 164.5 73t63.5 187q0 135 -72 207t-195 72h-141v-482q39 -28 87 -42.5t93 -14.5z" />
    <glyph glyph-name="q" unicode="q" horiz-adv-x="1225" 
d="M799 47q-56 -35 -115 -50t-135 -15q-146 0 -254.5 67.5t-165.5 180t-57 245.5q0 250 139 384t430 134h465v-1462h-307v516zM623 217q41 0 89 12.5t87 40.5v488h-129q-135 0 -206 -66.5t-71 -214.5q0 -123 59.5 -191.5t170.5 -68.5z" />
    <glyph glyph-name="r" unicode="r" horiz-adv-x="944" 
d="M944 928l-123 -301q-86 82 -168 82q-164 0 -231 -252v-457h-307v993h307v-235q57 119 137 186.5t170 67.5q53 0 103.5 -19.5t111.5 -64.5z" />
    <glyph glyph-name="s" unicode="s" horiz-adv-x="930" 
d="M469 1012q86 0 172 -20.5t158 -59.5v-232q-88 56 -156 79.5t-131 23.5q-55 0 -83 -19.5t-28 -48.5q0 -22 11.5 -38.5t49.5 -40t120 -60.5q137 -61 202.5 -134t65.5 -179q0 -131 -99.5 -216t-281.5 -85q-88 0 -172 17t-195 64v240q172 -113 301 -113q66 0 102 20.5
t36 51.5q0 27 -15.5 48.5t-55.5 45t-124 64.5q-135 63 -194.5 137t-59.5 168q0 78 45 143.5t131 104.5t201 39z" />
    <glyph glyph-name="t" unicode="t" horiz-adv-x="885" 
d="M485 993h328v-221h-328v-373q0 -84 30 -125t110 -41q96 0 221 70v-248q-64 -32 -151 -52.5t-160 -20.5q-185 0 -271 93t-86 275v422h-162v51l439 443h30v-273z" />
    <glyph glyph-name="u" unicode="u" horiz-adv-x="1221" 
d="M575 223q123 0 220 152v618h307v-993h-307v137q-74 -80 -156 -117.5t-180 -37.5q-350 0 -350 417v594h307v-559q0 -211 159 -211z" />
    <glyph glyph-name="v" unicode="v" horiz-adv-x="1092" 
d="M788 993h304l-447 -999h-203l-442 999h330l223 -544z" />
    <glyph glyph-name="w" unicode="w" horiz-adv-x="1645" 
d="M725 993h201l211 -528l198 528h310l-402 -999h-176l-242 586l-237 -586h-176l-412 999h313l203 -528z" />
    <glyph glyph-name="x" unicode="x" horiz-adv-x="1188" 
d="M811 993h344l-383 -477l410 -516h-381l-226 303l-219 -303h-344l391 494l-397 499h379l213 -288z" />
    <glyph glyph-name="y" unicode="y" horiz-adv-x="1102" 
d="M797 993h305l-680 -1462h-313l290 621l-393 841h334l221 -512z" />
    <glyph glyph-name="z" unicode="z" horiz-adv-x="1047" 
d="M520 238h479v-238h-970v25l483 731h-451v237h945v-24z" />
    <glyph glyph-name="braceleft" unicode="{" horiz-adv-x="756" 
d="M547 975v-152q0 -133 -40 -212t-149 -128q95 -39 142 -125t47 -211v-159q0 -84 14 -126t54 -59.5t124 -17.5v-238q-190 0 -291.5 32t-142.5 108.5t-41 220.5v168q0 147 -46 213.5t-165 72.5v242q119 6 165 72.5t46 206.5v135q0 170 35 252t134 114.5t306 32.5v-237
q-86 0 -126 -16.5t-53 -58.5t-13 -130z" />
    <glyph glyph-name="bar" unicode="|" horiz-adv-x="578" 
d="M178 -481v1890h221v-1890h-221z" />
    <glyph glyph-name="braceright" unicode="}" horiz-adv-x="756" 
d="M211 975q0 88 -14.5 130t-53.5 58.5t-125 16.5v237q207 0 305.5 -32.5t134.5 -115.5t36 -251v-135q0 -140 45 -206.5t163 -72.5v-242q-118 -6 -163 -72.5t-45 -213.5v-168q0 -144 -42 -220.5t-142.5 -108.5t-291.5 -32v238q84 0 124 17.5t54.5 59.5t14.5 126v159
q0 259 188 336q-108 47 -148 127t-40 213v152v0z" />
    <glyph glyph-name="asciitilde" unicode="~" horiz-adv-x="1190" 
d="M381 930q55 0 107.5 -20.5t129.5 -63.5q70 -37 117 -56.5t94 -19.5q62 0 124.5 38t146.5 126v-268q-148 -144 -285 -144q-57 0 -114.5 22.5t-129.5 63.5q-75 39 -118 56.5t-84 17.5q-131 0 -279 -164v270q74 72 143.5 107t147.5 35z" />
    <glyph glyph-name="uni00A0" unicode="&#xa0;" horiz-adv-x="596" 
 />
    <glyph glyph-name="exclamdown" unicode="&#xa1;" horiz-adv-x="600" 
d="M297 1012q78 0 134 -55.5t56 -133.5t-55 -133t-135 -55q-78 0 -132 55t-54 133t54 133.5t132 55.5zM223 459q17 45 33 60.5t41 15.5q27 0 42 -16.5t32 -59.5q30 -97 71 -294.5t41 -324.5q0 -309 -186 -309q-84 0 -133 75t-49 230q0 129 35.5 323.5t72.5 299.5z" />
    <glyph glyph-name="cent" unicode="&#xa2;" horiz-adv-x="1159" 
d="M786 1004l103 319h112l-108 -344l78 -27v-260q-72 37 -152 53l-160 -503q25 -6 52 -6q116 0 276 61v-254q-88 -33 -161.5 -47t-159.5 -14q-33 0 -86 8l-117 -377h-115l127 397q-129 37 -207 119t-110.5 179.5t-32.5 187.5q0 118 52 237t172 199t310 80q72 0 127 -8z
M557 276l154 484h-17q-106 0 -178 -73t-72 -187q0 -74 30 -131.5t83 -92.5z" />
    <glyph glyph-name="sterling" unicode="&#xa3;" horiz-adv-x="1159" 
d="M950 1149q-108 0 -181 -76t-138 -278h164v-201h-228l-82 -318q62 15 109 15q49 0 92 -6t78 -13q82 -16 135 -16q49 0 84 8t74 31v-283q-47 -16 -85 -23t-98 -7q-65 0 -119.5 6t-99.5 12q-110 16 -188 16q-184 0 -383 -34l158 612h-138v201h191q104 301 234 460.5
t337 159.5q54 0 101 -14l137 -283q-74 31 -154 31z" />
    <glyph glyph-name="currency" unicode="&#xa4;" horiz-adv-x="1130" 
d="M102 694q0 60 17.5 123.5t48.5 110.5l-139 141l164 166l139 -141q47 30 111.5 47.5t121.5 17.5q66 0 128.5 -17.5t105.5 -47.5l139 141l164 -166l-139 -141q30 -49 47.5 -112.5t17.5 -123.5q0 -129 -65 -231l139 -139l-164 -168l-137 139q-51 -29 -114.5 -46.5
t-121.5 -17.5q-125 0 -233 66l-139 -141l-164 168l139 139q-31 47 -48.5 111.5t-17.5 121.5zM795 694q0 99 -68 165.5t-164 66.5q-94 0 -160.5 -67.5t-66.5 -164.5q0 -96 66.5 -162.5t162.5 -66.5q97 0 163.5 67.5t66.5 161.5z" />
    <glyph glyph-name="yen" unicode="&#xa5;" horiz-adv-x="1159" 
d="M51 776h301l-348 621h348l221 -447l228 447h354l-352 -621h303v-172h-365v-164h365v-172h-365v-268h-323v268h-367v172h367v164h-367v172z" />
    <glyph glyph-name="brokenbar" unicode="&#xa6;" horiz-adv-x="578" 
d="M180 606v803h219v-803h-219zM180 -481v800h219v-800h-219z" />
    <glyph glyph-name="section" unicode="&#xa7;" horiz-adv-x="1098" 
d="M606 1190q-59 0 -98 -18.5t-39 -61.5q0 -47 42 -89t157 -122q198 -123 283 -228.5t85 -260.5q0 -211 -192 -336q43 -56 61.5 -113t18.5 -129q0 -141 -111 -227t-311 -86q-176 0 -316 88v262q150 -125 293 -125q72 0 105.5 20.5t33.5 53.5q0 37 -15 65.5t-59 69.5
t-136 108q-183 129 -265 238t-82 258q0 90 47.5 168t141.5 156q-47 47 -66.5 104t-19.5 131q0 123 100.5 211t321.5 88q82 0 168 -19.5t139 -45.5v-248q-59 43 -139 65.5t-148 22.5zM328 629q0 -64 29.5 -115t105.5 -116.5t239 -188.5q31 27 49.5 62.5t18.5 68.5
q0 61 -24.5 111.5t-105.5 120t-247 178.5q-37 -31 -51 -57.5t-14 -63.5z" />
    <glyph glyph-name="dieresis" unicode="&#xa8;" 
d="M125 1425q57 0 98 -41t41 -98q0 -59 -41 -100t-98 -41t-99 42t-42 99t42 98t99 41zM559 1425q57 0 98 -42t41 -97q0 -59 -41 -100t-98 -41t-99 42t-42 99q0 55 42 97t99 42z" />
    <glyph glyph-name="copyright" unicode="&#xa9;" horiz-adv-x="1630" 
d="M817 1448q197 0 365 -98.5t267 -266.5t99 -368q0 -197 -96 -365t-264 -267t-371 -99q-194 0 -363 96t-269.5 264t-100.5 371q0 196 97.5 364t265 268.5t370.5 100.5zM817 82q174 0 318.5 86t228.5 232.5t84 316.5q0 172 -85 317.5t-229.5 230.5t-314.5 85
q-174 0 -319.5 -85t-230.5 -231.5t-85 -318.5q0 -174 86 -319.5t231.5 -229.5t315.5 -84zM864 283q-219 0 -338.5 116.5t-119.5 307.5q0 114 50 211.5t152.5 158t249.5 60.5q135 0 264 -47v-191q-114 55 -217 55q-125 0 -195.5 -67.5t-70.5 -175.5q0 -111 73.5 -177.5
t196.5 -66.5q49 0 99.5 12.5t119.5 42.5v-186q-81 -29 -138.5 -41t-125.5 -12z" />
    <glyph glyph-name="ordfeminine" unicode="&#xaa;" horiz-adv-x="725" 
d="M629 1202v-239q0 -25 4 -33t18 -8q13 0 68 26v-125q-55 -26 -91 -36.5t-79 -10.5q-45 0 -69.5 13.5t-53.5 41.5q-86 -55 -195 -55q-86 0 -137 45t-51 115q0 117 115 168q57 26 254 74q0 86 -97 86q-125 0 -252 -119v184q70 43 138.5 64.5t154.5 21.5q138 -4 203.5 -51
t69.5 -162zM322 905q40 0 90 37v127l-37 -10q-47 -17 -79 -42.5t-32 -55.5q0 -27 15.5 -41.5t42.5 -14.5z" />
    <glyph glyph-name="guillemotleft" unicode="&#xab;" horiz-adv-x="1214" 
d="M637 0h-287l-311 489l311 486h287l-311 -486zM1167 0h-286l-312 489l312 486h286l-309 -486z" />
    <glyph glyph-name="logicalnot" unicode="&#xac;" horiz-adv-x="1190" 
d="M1087 371h-262v413h-737v256h999v-669z" />
    <glyph glyph-name="uni00AD" unicode="&#xad;" horiz-adv-x="901" 
d="M145 352v293h609v-293h-609z" />
    <glyph glyph-name="registered" unicode="&#xae;" horiz-adv-x="1630" 
d="M817 1448q197 0 365 -98.5t267 -266.5t99 -368q0 -197 -96 -365t-264 -267t-371 -99q-194 0 -363 96t-269.5 264t-100.5 371q0 196 97.5 364t265 268.5t370.5 100.5zM817 82q174 0 318.5 86t228.5 232.5t84 316.5q0 172 -85 317.5t-229.5 230.5t-314.5 85
q-174 0 -319.5 -85t-230.5 -231.5t-85 -318.5q0 -174 86 -319.5t231.5 -229.5t315.5 -84zM1149 901q0 -88 -62.5 -149.5t-164.5 -73.5q51 -19 84.5 -51.5t68.5 -91.5l142 -224h-244l-101 187q-38 75 -67 97.5t-82 22.5h-41v-307h-209v815h395q129 0 205 -61t76 -164z
M922 874q0 56 -37 82.5t-105 26.5h-98v-221h94q66 0 106 28.5t40 83.5z" />
    <glyph glyph-name="glyph113" 
 />
    <glyph glyph-name="degree" unicode="&#xb0;" horiz-adv-x="815" 
d="M690 1133q0 -78 -38 -143.5t-102.5 -104.5t-141.5 -39q-78 0 -142.5 38t-102.5 103.5t-38 145.5q0 75 38 140.5t103.5 103.5t141.5 38q75 0 140.5 -38t103.5 -103.5t38 -140.5zM408 1010q49 0 84.5 34.5t35.5 85.5q0 52 -35.5 86.5t-84.5 34.5q-52 0 -87.5 -34.5
t-35.5 -86.5q0 -51 35.5 -85.5t87.5 -34.5z" />
    <glyph glyph-name="plusminus" unicode="&#xb1;" horiz-adv-x="1190" 
d="M467 1329h256v-344h375v-256h-375v-348h-256v348h-377v256h377v344zM1098 0h-1008v256h1008v-256z" />
    <glyph glyph-name="uni00B2" unicode="&#xb2;" horiz-adv-x="707" 
d="M221 1219q86 90 127 150.5t41 117.5q0 45 -30.5 72.5t-82.5 27.5q-104 0 -206 -106v190q71 43 130.5 60.5t125.5 17.5q125 0 199.5 -62.5t74.5 -164.5q0 -68 -42 -141.5t-159 -198.5h263v-162h-617v29q51 45 176 170z" />
    <glyph glyph-name="uni00B3" unicode="&#xb3;" horiz-adv-x="707" 
d="M596 1550q0 -90 -94 -153q108 -58 108 -172q0 -96 -79.5 -155.5t-204.5 -59.5q-60 0 -125.5 14t-118.5 37v172q55 -37 102 -55.5t97 -18.5q49 0 79.5 21.5t30.5 56.5q0 43 -40 65.5t-128 24.5v129h15q75 0 108 18.5t33 57.5q0 31 -28.5 53.5t-78.5 22.5q-77 0 -168 -53
v151q121 43 215 43q130 0 203.5 -58.5t73.5 -140.5z" />
    <glyph glyph-name="acute" unicode="&#xb4;" 
d="M178 1124l162 336h338l-326 -336h-174z" />
    <glyph glyph-name="mu" unicode="&#xb5;" horiz-adv-x="1231" 
d="M424 356q29 -65 74 -98t94 -33q84 0 133 46t49 141v577h305v-698q0 -47 14.5 -66.5t45.5 -19.5q30 0 65 20v-198q-37 -23 -90 -34t-96 -11q-156 0 -203 131q-72 -131 -201 -131q-63 0 -107 30.5t-83 96.5v-582h-305v1462h305v-633z" />
    <glyph glyph-name="paragraph" unicode="&#xb6;" horiz-adv-x="1339" 
d="M47 981q0 197 127 309.5t354 112.5h764v-254h-129v-1626h-237v1626h-176v-1626h-238v1042q-219 10 -342 115.5t-123 300.5z" />
    <glyph glyph-name="periodcentered" unicode="&#xb7;" horiz-adv-x="537" 
d="M453 707q0 -72 -54.5 -128.5t-130.5 -56.5q-75 0 -129.5 54.5t-54.5 130.5q0 75 54.5 129.5t129.5 54.5q76 0 130.5 -55.5t54.5 -128.5z" />
    <glyph glyph-name="cedilla" unicode="&#xb8;" 
d="M567 -227q0 -95 -87 -145t-261 -50q-104 0 -139 6v131q43 -6 78 -6q59 0 92 19.5t33 56.5q0 29 -19.5 46t-54.5 17l-39 -2l92 172h156l-41 -77q190 -15 190 -168z" />
    <glyph glyph-name="uni00B9" unicode="&#xb9;" horiz-adv-x="707" 
d="M305 1020v446l-123 -96l-104 133l293 242h139v-725h-205z" />
    <glyph glyph-name="ordmasculine" unicode="&#xba;" horiz-adv-x="827" 
d="M410 776q-164 0 -262.5 88t-98.5 232q0 141 99.5 230t261.5 89q108 0 192 -42t130 -114.5t46 -162.5q0 -142 -102.5 -231t-265.5 -89zM547 1096q0 75 -36 114t-99 39q-64 0 -97.5 -37.5t-33.5 -115.5q0 -76 33.5 -115t97.5 -39q63 0 99 40t36 114z" />
    <glyph glyph-name="guillemotright" unicode="&#xbb;" horiz-adv-x="1214" 
d="M332 0h-287l311 489l-311 486h287l313 -486zM862 0h-287l312 489l-312 486h287l312 -486z" />
    <glyph glyph-name="onequarter" unicode="&#xbc;" horiz-adv-x="1647" 
d="M305 682v446l-123 -96l-104 133l293 242h139v-725h-205zM260 -51l942 1466h186l-942 -1466h-186zM1606 307v-133h-95v-174h-198v174h-348v123l395 426h151v-416h95zM1313 307v187l-172 -187h172z" />
    <glyph glyph-name="onehalf" unicode="&#xbd;" horiz-adv-x="1647" 
d="M305 682v446l-123 -96l-104 133l293 242h139v-725h-205zM213 -51l942 1466h186l-942 -1466h-186zM1124 162l37 37q88 94 128 152.5t40 115.5q0 45 -30.5 72.5t-82.5 27.5q-104 0 -206 -106v188q71 45 130.5 63.5t125.5 18.5q125 0 199.5 -62.5t74.5 -164.5
q0 -70 -42 -144.5t-159 -195.5h263v-164h-617v29q35 28 80 73t59 60z" />
    <glyph glyph-name="threequarters" unicode="&#xbe;" horiz-adv-x="1647" 
d="M266 -51l942 1466h186l-942 -1466h-186zM1606 307v-133h-95v-174h-198v174h-348v123l395 426h151v-416h95zM1313 307v187l-172 -187h172zM596 1212q0 -90 -94 -153q108 -58 108 -172q0 -96 -79.5 -155.5t-204.5 -59.5q-60 0 -125.5 14t-118.5 37v172q55 -37 102 -55.5
t97 -18.5q49 0 79.5 21.5t30.5 56.5q0 43 -40 65.5t-128 24.5v129h15q75 0 108 18.5t33 57.5q0 31 -28.5 53.5t-78.5 22.5q-77 0 -168 -53v151q121 43 215 43q130 0 203.5 -58.5t73.5 -140.5z" />
    <glyph glyph-name="questiondown" unicode="&#xbf;" horiz-adv-x="756" 
d="M242 823q0 78 54 133.5t132 55.5t133 -55.5t55 -133.5t-56 -133t-132 -55q-78 0 -132 55t-54 133zM412 -414q-154 0 -247 80t-93 215q0 92 46 173t134 169q143 150 143 275q0 34 -16 51q170 -14 170 -162q0 -53 -19.5 -108.5t-58.5 -128.5q-63 -115 -63 -197
q0 -47 31.5 -80t97.5 -33q69 0 133 43l-92 -272q-78 -25 -166 -25z" />
    <glyph glyph-name="Agrave" unicode="&#xc0;" horiz-adv-x="1589" 
d="M1229 0l-135 322h-600l-134 -322h-360l608 1399h367l614 -1399h-360zM793 1055l-207 -508h415zM801 1509l-373 336h367l195 -336h-189z" />
    <glyph glyph-name="Aacute" unicode="&#xc1;" horiz-adv-x="1589" 
d="M1229 0l-135 322h-600l-134 -322h-360l608 1399h367l614 -1399h-360zM793 1055l-207 -508h415zM789 1509h-189l195 336h367z" />
    <glyph glyph-name="Acircumflex" unicode="&#xc2;" horiz-adv-x="1589" 
d="M1229 0l-135 322h-600l-134 -322h-360l608 1399h367l614 -1399h-360zM793 1055l-207 -508h415zM1184 1509h-190l-201 185l-201 -185h-186l201 336h372z" />
    <glyph glyph-name="Atilde" unicode="&#xc3;" horiz-adv-x="1589" 
d="M1229 0l-135 322h-600l-134 -322h-360l608 1399h367l614 -1399h-360zM793 1055l-207 -508h415zM834 1751q88 -35 115 -35q69 0 75 86h144q-2 -139 -61.5 -218t-159.5 -79q-62 0 -181 49q-92 35 -123 35q-67 0 -79 -84h-144q0 97 32 163.5t83 100t104 33.5q37 0 77 -12
t118 -39z" />
    <glyph glyph-name="Adieresis" unicode="&#xc4;" horiz-adv-x="1589" 
d="M1229 0l-135 322h-600l-134 -322h-360l608 1399h367l614 -1399h-360zM793 1055l-207 -508h415zM578 1821q57 0 98 -42t41 -100q0 -57 -41 -99t-98 -42t-99 42t-42 99q0 58 42 100t99 42zM1012 1821q57 0 98 -42t41 -100q0 -57 -41 -99t-98 -42t-99 42t-42 99q0 58 42 100
t99 42z" />
    <glyph glyph-name="Aring" unicode="&#xc5;" horiz-adv-x="1589" 
d="M1229 0l-135 322h-600l-134 -322h-360l608 1399h367l614 -1399h-360zM793 1055l-207 -508h415zM791 1715q86 0 148.5 -62.5t62.5 -146.5q0 -86 -62.5 -147.5t-148.5 -61.5t-146.5 61.5t-60.5 147.5t60.5 147.5t146.5 61.5zM791 1399q45 0 77 31t32 76t-32 76.5t-77 31.5
t-76 -31.5t-31 -76.5t31 -76t76 -31z" />
    <glyph glyph-name="AE" unicode="&#xc6;" horiz-adv-x="2126" 
d="M1409 1147v-305h565v-252h-565v-340h612v-250h-964v549h-393l-322 -549h-362l862 1397h1163v-250h-596zM1057 1219l-262 -447h262v447z" />
    <glyph glyph-name="Ccedilla" unicode="&#xc7;" horiz-adv-x="1499" 
d="M1389 1307v-324q-121 76 -231.5 111.5t-229.5 35.5q-152 0 -260.5 -59t-163.5 -159.5t-55 -219.5q0 -117 56 -215t162.5 -155.5t252.5 -57.5q245 0 477 154v-314q-209 -112 -498 -122l-18 -41q188 -15 188 -168q0 -95 -86 -145t-262 -50q-107 0 -139 6v131q43 -6 77 -6
q60 0 92.5 19.5t32.5 56.5q0 29 -19.5 46t-53.5 17l-39 -2l76 142q-205 20 -353.5 118.5t-227.5 252t-79 339.5q0 217 100.5 380t278.5 250t401 87q258 0 521 -108z" />
    <glyph glyph-name="Egrave" unicode="&#xc8;" horiz-adv-x="1229" 
d="M502 1147v-307h577v-250h-577v-340h620v-250h-972v1397h956v-250h-604zM637 1509l-373 336h367l195 -336h-189z" />
    <glyph glyph-name="Eacute" unicode="&#xc9;" horiz-adv-x="1229" 
d="M502 1147v-307h577v-250h-577v-340h620v-250h-972v1397h956v-250h-604zM639 1509h-189l195 336h367z" />
    <glyph glyph-name="Ecircumflex" unicode="&#xca;" horiz-adv-x="1229" 
d="M502 1147v-307h577v-250h-577v-340h620v-250h-972v1397h956v-250h-604zM1020 1509h-190l-201 185l-201 -185h-186l201 336h372z" />
    <glyph glyph-name="Edieresis" unicode="&#xcb;" horiz-adv-x="1229" 
d="M502 1147v-307h577v-250h-577v-340h620v-250h-972v1397h956v-250h-604zM414 1821q57 0 98 -42t41 -100q0 -57 -41 -99t-98 -42t-99 42t-42 99q0 58 42 100t99 42zM848 1821q57 0 98 -42t41 -100q0 -57 -41 -99t-98 -42t-99 42t-42 99q0 58 42 100t99 42z" />
    <glyph glyph-name="Igrave" unicode="&#xcc;" horiz-adv-x="651" 
d="M150 0v1397h352v-1397h-352zM335 1509l-373 336h367l195 -336h-189z" />
    <glyph glyph-name="Iacute" unicode="&#xcd;" horiz-adv-x="651" 
d="M150 0v1397h352v-1397h-352zM323 1509h-189l195 336h367z" />
    <glyph glyph-name="Icircumflex" unicode="&#xce;" horiz-adv-x="651" 
d="M150 0v1397h352v-1397h-352zM718 1509h-190l-201 185l-201 -185h-186l201 336h372z" />
    <glyph glyph-name="Idieresis" unicode="&#xcf;" horiz-adv-x="651" 
d="M150 0v1397h352v-1397h-352zM112 1821q57 0 98 -42t41 -100q0 -57 -41 -99t-98 -42t-99 42t-42 99q0 58 42 100t99 42zM546 1821q57 0 98 -42t41 -100q0 -57 -41 -99t-98 -42t-99 42t-42 99q0 58 42 100t99 42z" />
    <glyph glyph-name="Eth" unicode="&#xd0;" horiz-adv-x="1620" 
d="M1532 702q0 -333 -198.5 -517.5t-573.5 -184.5h-610v602h-150v193h150v602h589q254 0 433.5 -88t269.5 -246t90 -361zM1171 696q0 215 -118.5 333t-339.5 118h-211v-352h319v-193h-319v-346h223q223 0 334.5 111.5t111.5 328.5z" />
    <glyph glyph-name="Ntilde" unicode="&#xd1;" horiz-adv-x="1741" 
d="M1243 1397h348v-1397h-313l-782 868v-868h-346v1397h309l784 -871v871zM907 1751q88 -35 115 -35q69 0 75 86h144q-2 -139 -61.5 -218t-159.5 -79q-62 0 -181 49q-92 35 -123 35q-67 0 -79 -84h-144q0 97 32 163.5t83 100t104 33.5q37 0 77 -12t118 -39z" />
    <glyph glyph-name="Ograve" unicode="&#xd2;" horiz-adv-x="1726" 
d="M1637 698q0 -198 -92 -361t-268 -259t-418 -96q-244 0 -418 97t-264 260t-90 357q0 185 84 348.5t259 267t435 103.5q236 0 411 -94t268 -258t93 -365zM448 696q0 -118 52 -211.5t146 -144.5t213 -51q187 0 302.5 110.5t115.5 300.5q0 111 -49 204t-143.5 148.5
t-223.5 55.5q-125 0 -219 -52t-144 -145.5t-50 -214.5zM876 1509l-373 336h367l195 -336h-189z" />
    <glyph glyph-name="Oacute" unicode="&#xd3;" horiz-adv-x="1726" 
d="M1637 698q0 -198 -92 -361t-268 -259t-418 -96q-244 0 -418 97t-264 260t-90 357q0 185 84 348.5t259 267t435 103.5q236 0 411 -94t268 -258t93 -365zM448 696q0 -118 52 -211.5t146 -144.5t213 -51q187 0 302.5 110.5t115.5 300.5q0 111 -49 204t-143.5 148.5
t-223.5 55.5q-125 0 -219 -52t-144 -145.5t-50 -214.5zM858 1509h-189l195 336h367z" />
    <glyph glyph-name="Ocircumflex" unicode="&#xd4;" horiz-adv-x="1726" 
d="M1637 698q0 -198 -92 -361t-268 -259t-418 -96q-244 0 -418 97t-264 260t-90 357q0 185 84 348.5t259 267t435 103.5q236 0 411 -94t268 -258t93 -365zM448 696q0 -118 52 -211.5t146 -144.5t213 -51q187 0 302.5 110.5t115.5 300.5q0 111 -49 204t-143.5 148.5
t-223.5 55.5q-125 0 -219 -52t-144 -145.5t-50 -214.5zM1253 1509h-190l-201 185l-201 -185h-186l201 336h372z" />
    <glyph glyph-name="Otilde" unicode="&#xd5;" horiz-adv-x="1726" 
d="M1637 698q0 -198 -92 -361t-268 -259t-418 -96q-244 0 -418 97t-264 260t-90 357q0 185 84 348.5t259 267t435 103.5q236 0 411 -94t268 -258t93 -365zM448 696q0 -118 52 -211.5t146 -144.5t213 -51q187 0 302.5 110.5t115.5 300.5q0 111 -49 204t-143.5 148.5
t-223.5 55.5q-125 0 -219 -52t-144 -145.5t-50 -214.5zM903 1751q88 -35 115 -35q69 0 75 86h144q-2 -139 -61.5 -218t-159.5 -79q-62 0 -181 49q-92 35 -123 35q-67 0 -79 -84h-144q0 97 32 163.5t83 100t104 33.5q37 0 77 -12t118 -39z" />
    <glyph glyph-name="Odieresis" unicode="&#xd6;" horiz-adv-x="1726" 
d="M1637 698q0 -198 -92 -361t-268 -259t-418 -96q-244 0 -418 97t-264 260t-90 357q0 185 84 348.5t259 267t435 103.5q236 0 411 -94t268 -258t93 -365zM448 696q0 -118 52 -211.5t146 -144.5t213 -51q187 0 302.5 110.5t115.5 300.5q0 111 -49 204t-143.5 148.5
t-223.5 55.5q-125 0 -219 -52t-144 -145.5t-50 -214.5zM647 1821q57 0 98 -42t41 -100q0 -57 -41 -99t-98 -42t-99 42t-42 99q0 58 42 100t99 42zM1081 1821q57 0 98 -42t41 -100q0 -57 -41 -99t-98 -42t-99 42t-42 99q0 58 42 100t99 42z" />
    <glyph glyph-name="multiply" unicode="&#xd7;" horiz-adv-x="1294" 
d="M313 1221l330 -334l340 334l178 -179l-340 -331l338 -340l-178 -178l-338 339l-332 -342l-178 179l332 342l-330 329z" />
    <glyph glyph-name="Oslash" unicode="&#xd8;" horiz-adv-x="1726" 
d="M88 696q0 185 84 348.5t259 267t435 103.5q271 0 471 -133l148 148l108 -109l-137 -141q88 -95 135 -218.5t47 -263.5q0 -198 -92 -361t-268 -259t-418 -96q-262 0 -457 118l-163 -163l-109 110l152 154q-97 96 -146 225t-49 270zM449 696q0 -143 77 -250l574 598
q-99 64 -238 64q-129 0 -222 -55.5t-142 -148.5t-49 -208zM1206 932l-563 -590q94 -53 217 -53q135 0 230.5 57t141.5 150.5t46 203.5q0 129 -72 232z" />
    <glyph glyph-name="Ugrave" unicode="&#xd9;" horiz-adv-x="1655" 
d="M829 281q164 0 251 87t87 267v762h353v-770q0 -310 -181.5 -477.5t-509.5 -167.5q-333 0 -513.5 168.5t-180.5 470.5v776h352v-758q0 -174 87.5 -266t254.5 -92zM835 1509l-373 336h367l195 -336h-189z" />
    <glyph glyph-name="Uacute" unicode="&#xda;" horiz-adv-x="1655" 
d="M829 281q164 0 251 87t87 267v762h353v-770q0 -310 -181.5 -477.5t-509.5 -167.5q-333 0 -513.5 168.5t-180.5 470.5v776h352v-758q0 -174 87.5 -266t254.5 -92zM823 1509h-189l195 336h367z" />
    <glyph glyph-name="Ucircumflex" unicode="&#xdb;" horiz-adv-x="1655" 
d="M829 281q164 0 251 87t87 267v762h353v-770q0 -310 -181.5 -477.5t-509.5 -167.5q-333 0 -513.5 168.5t-180.5 470.5v776h352v-758q0 -174 87.5 -266t254.5 -92zM1218 1509h-190l-201 185l-201 -185h-186l201 336h372z" />
    <glyph glyph-name="Udieresis" unicode="&#xdc;" horiz-adv-x="1655" 
d="M829 281q164 0 251 87t87 267v762h353v-770q0 -310 -181.5 -477.5t-509.5 -167.5q-333 0 -513.5 168.5t-180.5 470.5v776h352v-758q0 -174 87.5 -266t254.5 -92zM612 1821q57 0 98 -42t41 -100q0 -57 -41 -99t-98 -42t-99 42t-42 99q0 58 42 100t99 42zM1046 1821
q57 0 98 -42t41 -100q0 -57 -41 -99t-98 -42t-99 42t-42 99q0 58 42 100t99 42z" />
    <glyph glyph-name="Yacute" unicode="&#xdd;" horiz-adv-x="1430" 
d="M1049 1397h381l-535 -727v-670h-352v664l-543 733h377l334 -453zM729 1509h-189l195 336h367z" />
    <glyph glyph-name="Thorn" unicode="&#xde;" horiz-adv-x="1311" 
d="M739 1122q242 0 378 -111.5t136 -312.5q0 -118 -55 -214.5t-166.5 -153t-275.5 -56.5h-254v-274h-352v1397h352v-275h237zM893 696q0 99 -54.5 143t-174.5 44h-162v-367h176q113 0 164 46t51 134z" />
    <glyph glyph-name="germandbls" unicode="&#xdf;" horiz-adv-x="1225" 
d="M756 -18q-88 0 -174 24v221q34 -8 71 -8q80 0 129 56.5t49 156.5q0 105 -58 159t-173 56v213q84 2 130 45t46 125q0 64 -44 106t-124 42q-94 0 -138 -55.5t-44 -176.5v-946h-307v918q0 251 124 374t371 123q156 0 262.5 -51t156.5 -134t50 -183q0 -191 -178 -279
q121 -45 184.5 -136t63.5 -226q0 -121 -53 -218.5t-144.5 -151.5t-199.5 -54z" />
    <glyph glyph-name="agrave" unicode="&#xe0;" horiz-adv-x="1077" 
d="M936 698v-409q0 -39 9 -61.5t36 -22.5q35 0 92 35v-189q-80 -37 -143.5 -53t-126.5 -16q-66 0 -106 25.5t-54 78.5q-121 -104 -293 -104q-133 0 -207.5 68.5t-74.5 180.5q0 99 58 163.5t169 111.5t334 119v22q0 84 -41 118t-121 34q-98 0 -193.5 -46t-175.5 -132v256
q170 135 426 135q199 0 305.5 -83t106.5 -231zM479 158q66 0 150 71v252q-99 -41 -149 -66.5t-79.5 -60.5t-29.5 -84q0 -51 30.5 -81.5t77.5 -30.5zM546 1124l-327 336h340l161 -336h-174z" />
    <glyph glyph-name="aacute" unicode="&#xe1;" horiz-adv-x="1077" 
d="M936 698v-409q0 -39 9 -61.5t36 -22.5q35 0 92 35v-189q-80 -37 -143.5 -53t-126.5 -16q-66 0 -106 25.5t-54 78.5q-121 -104 -293 -104q-133 0 -207.5 68.5t-74.5 180.5q0 99 58 163.5t169 111.5t334 119v22q0 84 -41 118t-121 34q-98 0 -193.5 -46t-175.5 -132v256
q170 135 426 135q199 0 305.5 -83t106.5 -231zM479 158q66 0 150 71v252q-99 -41 -149 -66.5t-79.5 -60.5t-29.5 -84q0 -51 30.5 -81.5t77.5 -30.5zM366 1124l162 336h338l-326 -336h-174z" />
    <glyph glyph-name="acircumflex" unicode="&#xe2;" horiz-adv-x="1077" 
d="M936 698v-409q0 -39 9 -61.5t36 -22.5q35 0 92 35v-189q-80 -37 -143.5 -53t-126.5 -16q-66 0 -106 25.5t-54 78.5q-121 -104 -293 -104q-133 0 -207.5 68.5t-74.5 180.5q0 99 58 163.5t169 111.5t334 119v22q0 84 -41 118t-121 34q-98 0 -193.5 -46t-175.5 -132v256
q170 135 426 135q199 0 305.5 -83t106.5 -231zM479 158q66 0 150 71v252q-99 -41 -149 -66.5t-79.5 -60.5t-29.5 -84q0 -51 30.5 -81.5t77.5 -30.5zM690 1124l-176 183l-176 -183h-184l180 336h362l183 -336h-189z" />
    <glyph glyph-name="atilde" unicode="&#xe3;" horiz-adv-x="1077" 
d="M936 698v-409q0 -39 9 -61.5t36 -22.5q35 0 92 35v-189q-80 -37 -143.5 -53t-126.5 -16q-66 0 -106 25.5t-54 78.5q-121 -104 -293 -104q-133 0 -207.5 68.5t-74.5 180.5q0 99 58 163.5t169 111.5t334 119v22q0 84 -41 118t-121 34q-98 0 -193.5 -46t-175.5 -132v256
q170 135 426 135q199 0 305.5 -83t106.5 -231zM479 158q66 0 150 71v252q-99 -41 -149 -66.5t-79.5 -60.5t-29.5 -84q0 -51 30.5 -81.5t77.5 -30.5zM569 1378q8 -4 51 -18t64 -14q34 0 52.5 22.5t22.5 61.5h144q-2 -138 -62.5 -216.5t-158.5 -78.5q-62 0 -181 49
q-92 35 -123 35q-67 0 -79 -84h-144q0 96 32 162.5t83 99.5t104 33q62 0 195 -52z" />
    <glyph glyph-name="adieresis" unicode="&#xe4;" horiz-adv-x="1077" 
d="M936 698v-409q0 -39 9 -61.5t36 -22.5q35 0 92 35v-189q-80 -37 -143.5 -53t-126.5 -16q-66 0 -106 25.5t-54 78.5q-121 -104 -293 -104q-133 0 -207.5 68.5t-74.5 180.5q0 99 58 163.5t169 111.5t334 119v22q0 84 -41 118t-121 34q-98 0 -193.5 -46t-175.5 -132v256
q170 135 426 135q199 0 305.5 -83t106.5 -231zM479 158q66 0 150 71v252q-99 -41 -149 -66.5t-79.5 -60.5t-29.5 -84q0 -51 30.5 -81.5t77.5 -30.5zM313 1425q57 0 98 -41t41 -98q0 -59 -41 -100t-98 -41t-99 42t-42 99t42 98t99 41zM747 1425q57 0 98 -42t41 -97
q0 -59 -41 -100t-98 -41t-99 42t-42 99q0 55 42 97t99 42z" />
    <glyph glyph-name="aring" unicode="&#xe5;" horiz-adv-x="1077" 
d="M936 698v-409q0 -39 9 -61.5t36 -22.5q35 0 92 35v-189q-80 -37 -143.5 -53t-126.5 -16q-66 0 -106 25.5t-54 78.5q-121 -104 -293 -104q-133 0 -207.5 68.5t-74.5 180.5q0 99 58 163.5t169 111.5t334 119v22q0 84 -41 118t-121 34q-98 0 -193.5 -46t-175.5 -132v256
q170 135 426 135q199 0 305.5 -83t106.5 -231zM479 158q66 0 150 71v252q-99 -41 -149 -66.5t-79.5 -60.5t-29.5 -84q0 -51 30.5 -81.5t77.5 -30.5zM528 1538q86 0 147.5 -61.5t61.5 -147.5t-61.5 -146.5t-147.5 -60.5t-146.5 60.5t-60.5 146.5t60.5 147.5t146.5 61.5z
M528 1223q45 0 78 30.5t33 75.5t-33 78t-78 33t-77 -33t-32 -78t32 -75.5t77 -30.5z" />
    <glyph glyph-name="ae" unicode="&#xe6;" horiz-adv-x="1597" 
d="M498 1012q90 0 158.5 -21.5t146.5 -81.5q117 103 278 103q136 0 238 -62.5t158.5 -177.5t56.5 -262v-61h-629q2 -121 86 -188.5t199 -67.5q139 0 330 106v-215q-205 -102 -408 -102q-113 0 -211 34.5t-170 104.5q-196 -139 -387 -139q-125 0 -200.5 72.5t-75.5 178.5
q0 101 61 166.5t146 102.5t219 78q108 34 124 41v18q0 82 -35.5 121t-113.5 39q-98 0 -185 -40t-186 -132v256q97 63 191 96t209 33zM1079 809q-71 0 -117.5 -52t-52.5 -151h336q-8 101 -50 152t-116 51zM371 272q0 -51 27.5 -83.5t76.5 -32.5q41 0 92 20.5t92 56.5
q-41 105 -41 228v18q-141 -59 -194 -103t-53 -104z" />
    <glyph glyph-name="ccedilla" unicode="&#xe7;" horiz-adv-x="999" 
d="M918 952v-260q-136 68 -269 68q-110 0 -183 -72t-73 -188q0 -115 73 -189.5t193 -74.5q115 0 277 61v-254q-82 -31 -153.5 -45t-149.5 -16l-21 -41q191 -15 191 -168q0 -95 -87 -145t-263 -50q-103 0 -138 6v131q43 -6 78 -6q60 0 92.5 19.5t32.5 56.5q0 29 -19.5 46
t-54.5 17l-41 -2l80 148q-149 26 -241 110t-131 188.5t-39 203.5q0 118 52 237t173 199t311 80q82 0 152.5 -13.5t157.5 -46.5z" />
    <glyph glyph-name="egrave" unicode="&#xe8;" horiz-adv-x="1149" 
d="M1083 489v-57h-696q16 -106 97 -170.5t194 -64.5q184 0 381 104v-211q-187 -108 -441 -108q-163 0 -287 64.5t-191.5 182t-67.5 273.5q0 151 64.5 267t186 179.5t285.5 63.5q133 0 240.5 -59.5t171 -177.5t63.5 -286zM594 809q-92 0 -151.5 -61.5t-61.5 -159.5h412
q-2 102 -54.5 161.5t-144.5 59.5zM600 1124l-327 336h340l161 -336h-174z" />
    <glyph glyph-name="eacute" unicode="&#xe9;" horiz-adv-x="1149" 
d="M1083 489v-57h-696q16 -106 97 -170.5t194 -64.5q184 0 381 104v-211q-187 -108 -441 -108q-163 0 -287 64.5t-191.5 182t-67.5 273.5q0 151 64.5 267t186 179.5t285.5 63.5q133 0 240.5 -59.5t171 -177.5t63.5 -286zM594 809q-92 0 -151.5 -61.5t-61.5 -159.5h412
q-2 102 -54.5 161.5t-144.5 59.5zM420 1124l162 336h338l-326 -336h-174z" />
    <glyph glyph-name="ecircumflex" unicode="&#xea;" horiz-adv-x="1149" 
d="M1083 489v-57h-696q16 -106 97 -170.5t194 -64.5q184 0 381 104v-211q-187 -108 -441 -108q-163 0 -287 64.5t-191.5 182t-67.5 273.5q0 151 64.5 267t186 179.5t285.5 63.5q133 0 240.5 -59.5t171 -177.5t63.5 -286zM594 809q-92 0 -151.5 -61.5t-61.5 -159.5h412
q-2 102 -54.5 161.5t-144.5 59.5zM754 1124l-176 183l-176 -183h-184l180 336h362l183 -336h-189z" />
    <glyph glyph-name="edieresis" unicode="&#xeb;" horiz-adv-x="1149" 
d="M1083 489v-57h-696q16 -106 97 -170.5t194 -64.5q184 0 381 104v-211q-187 -108 -441 -108q-163 0 -287 64.5t-191.5 182t-67.5 273.5q0 151 64.5 267t186 179.5t285.5 63.5q133 0 240.5 -59.5t171 -177.5t63.5 -286zM594 809q-92 0 -151.5 -61.5t-61.5 -159.5h412
q-2 102 -54.5 161.5t-144.5 59.5zM363 1425q57 0 98 -41t41 -98q0 -59 -41 -100t-98 -41t-99 42t-42 99t42 98t99 41zM797 1425q57 0 98 -42t41 -97q0 -59 -41 -100t-98 -41t-99 42t-42 99q0 55 42 97t99 42z" />
    <glyph glyph-name="igrave" unicode="&#xec;" horiz-adv-x="545" 
d="M119 0v993h307v-993h-307zM291 1124l-327 336h340l161 -336h-174z" />
    <glyph glyph-name="iacute" unicode="&#xed;" horiz-adv-x="545" 
d="M119 0v993h307v-993h-307zM97 1124l162 336h338l-326 -336h-174z" />
    <glyph glyph-name="icircumflex" unicode="&#xee;" horiz-adv-x="545" 
d="M119 0v993h307v-993h-307zM449 1124l-176 183l-176 -183h-184l180 336h362l183 -336h-189z" />
    <glyph glyph-name="idieresis" unicode="&#xef;" horiz-adv-x="545" 
d="M119 0v993h307v-993h-307zM58 1425q57 0 98 -41t41 -98q0 -59 -41 -100t-98 -41t-99 42t-42 99t42 98t99 41zM492 1425q57 0 98 -42t41 -97q0 -59 -41 -100t-98 -41t-99 42t-42 99q0 55 42 97t99 42z" />
    <glyph glyph-name="eth" unicode="&#xf0;" horiz-adv-x="1264" 
d="M692 1327l242 88l37 -106l-162 -66q178 -137 276.5 -324.5t98.5 -396.5q0 -170 -70 -291.5t-193.5 -185t-283.5 -63.5q-193 0 -321 73.5t-186 189t-58 242.5q0 152 67.5 268.5t185 180t261.5 63.5q49 0 86 -8t82 -28q-31 55 -78 109t-94 91l-316 -116l-37 108l242 88
q-41 29 -160 78l172 94q125 -39 209 -88zM864 498q0 129 -64.5 202.5t-172.5 73.5q-107 0 -170.5 -73.5t-63.5 -204.5q0 -127 62.5 -202t173.5 -75q108 0 171.5 74t63.5 205z" />
    <glyph glyph-name="ntilde" unicode="&#xf1;" horiz-adv-x="1221" 
d="M1112 606v-606h-307v561q0 209 -160 209q-61 0 -114.5 -37t-104.5 -115v-618h-307v993h307v-137q139 156 336 156q180 0 265 -108.5t85 -297.5zM651 1378q8 -4 51 -18t64 -14q34 0 52.5 22.5t22.5 61.5h144q-2 -138 -62.5 -216.5t-158.5 -78.5q-62 0 -181 49
q-92 35 -123 35q-67 0 -79 -84h-144q0 96 32 162.5t83 99.5t104 33q62 0 195 -52z" />
    <glyph glyph-name="ograve" unicode="&#xf2;" horiz-adv-x="1255" 
d="M1184 498q0 -156 -70 -272.5t-196.5 -180t-290.5 -63.5q-176 0 -301 68.5t-189.5 185t-64.5 260.5q0 149 65.5 266t191.5 183.5t300 66.5q172 0 297 -65.5t191.5 -182.5t66.5 -266zM393 498q0 -129 63.5 -204t172.5 -75q108 0 171.5 76t63.5 203q0 131 -65.5 203.5
t-173.5 72.5q-107 0 -169.5 -73.5t-62.5 -202.5zM653 1124l-327 336h340l161 -336h-174z" />
    <glyph glyph-name="oacute" unicode="&#xf3;" horiz-adv-x="1255" 
d="M1184 498q0 -156 -70 -272.5t-196.5 -180t-290.5 -63.5q-176 0 -301 68.5t-189.5 185t-64.5 260.5q0 149 65.5 266t191.5 183.5t300 66.5q172 0 297 -65.5t191.5 -182.5t66.5 -266zM393 498q0 -129 63.5 -204t172.5 -75q108 0 171.5 76t63.5 203q0 131 -65.5 203.5
t-173.5 72.5q-107 0 -169.5 -73.5t-62.5 -202.5zM467 1124l162 336h338l-326 -336h-174z" />
    <glyph glyph-name="ocircumflex" unicode="&#xf4;" horiz-adv-x="1255" 
d="M1184 498q0 -156 -70 -272.5t-196.5 -180t-290.5 -63.5q-176 0 -301 68.5t-189.5 185t-64.5 260.5q0 149 65.5 266t191.5 183.5t300 66.5q172 0 297 -65.5t191.5 -182.5t66.5 -266zM393 498q0 -129 63.5 -204t172.5 -75q108 0 171.5 76t63.5 203q0 131 -65.5 203.5
t-173.5 72.5q-107 0 -169.5 -73.5t-62.5 -202.5zM811 1124l-176 183l-176 -183h-184l180 336h362l183 -336h-189z" />
    <glyph glyph-name="otilde" unicode="&#xf5;" horiz-adv-x="1255" 
d="M1184 498q0 -156 -70 -272.5t-196.5 -180t-290.5 -63.5q-176 0 -301 68.5t-189.5 185t-64.5 260.5q0 149 65.5 266t191.5 183.5t300 66.5q172 0 297 -65.5t191.5 -182.5t66.5 -266zM393 498q0 -129 63.5 -204t172.5 -75q108 0 171.5 76t63.5 203q0 131 -65.5 203.5
t-173.5 72.5q-107 0 -169.5 -73.5t-62.5 -202.5zM676 1378q8 -4 51 -18t64 -14q34 0 52.5 22.5t22.5 61.5h144q-2 -138 -62.5 -216.5t-158.5 -78.5q-62 0 -181 49q-92 35 -123 35q-67 0 -79 -84h-144q0 96 32 162.5t83 99.5t104 33q62 0 195 -52z" />
    <glyph glyph-name="odieresis" unicode="&#xf6;" horiz-adv-x="1255" 
d="M1184 498q0 -156 -70 -272.5t-196.5 -180t-290.5 -63.5q-176 0 -301 68.5t-189.5 185t-64.5 260.5q0 149 65.5 266t191.5 183.5t300 66.5q172 0 297 -65.5t191.5 -182.5t66.5 -266zM393 498q0 -129 63.5 -204t172.5 -75q108 0 171.5 76t63.5 203q0 131 -65.5 203.5
t-173.5 72.5q-107 0 -169.5 -73.5t-62.5 -202.5zM420 1425q57 0 98 -41t41 -98q0 -59 -41 -100t-98 -41t-99 42t-42 99t42 98t99 41zM854 1425q57 0 98 -42t41 -97q0 -59 -41 -100t-98 -41t-99 42t-42 99q0 55 42 97t99 42z" />
    <glyph glyph-name="divide" unicode="&#xf7;" horiz-adv-x="1190" 
d="M592 986q-26 0 -48.5 11t-39 29.5t-25.5 42t-9 47.5t10 46t27 39t39.5 27t48.5 10q27 0 49.5 -10t39 -27t25.5 -39.5t9 -47.5q0 -28 -10.5 -51.5t-28 -40.5t-40 -26.5t-47.5 -9.5zM76 829h1036v-256h-1036v256zM596 159q-28 0 -51.5 10t-40 27.5t-25.5 40t-9 48.5
q0 24 10 46.5t27 39.5t39.5 27.5t48.5 10.5q27 0 49.5 -10.5t39 -27.5t25.5 -40t9 -47q0 -29 -10 -52t-27 -39t-39 -25t-46 -9z" />
    <glyph glyph-name="oslash" unicode="&#xf8;" horiz-adv-x="1255" 
d="M72 496q0 149 65.5 266t191.5 183.5t300 66.5q180 0 315 -76l129 143l80 -73l-121 -134q74 -71 113 -166.5t39 -207.5q0 -156 -70 -272.5t-196.5 -180t-290.5 -63.5q-187 0 -316 75l-133 -149l-80 72l125 143q-73 67 -112 163.5t-39 209.5zM393 498q0 -82 31 -150
l340 385q-59 41 -139 41q-107 0 -169.5 -73.5t-62.5 -202.5zM829 645l-337 -385q57 -41 137 -41q108 0 171.5 76t63.5 203q0 77 -35 147z" />
    <glyph glyph-name="ugrave" unicode="&#xf9;" horiz-adv-x="1221" 
d="M575 223q123 0 220 152v618h307v-993h-307v137q-74 -80 -156 -117.5t-180 -37.5q-350 0 -350 417v594h307v-559q0 -211 159 -211zM628 1124l-327 336h340l161 -336h-174z" />
    <glyph glyph-name="uacute" unicode="&#xfa;" horiz-adv-x="1221" 
d="M575 223q123 0 220 152v618h307v-993h-307v137q-74 -80 -156 -117.5t-180 -37.5q-350 0 -350 417v594h307v-559q0 -211 159 -211zM463 1124l162 336h338l-326 -336h-174z" />
    <glyph glyph-name="ucircumflex" unicode="&#xfb;" horiz-adv-x="1221" 
d="M575 223q123 0 220 152v618h307v-993h-307v137q-74 -80 -156 -117.5t-180 -37.5q-350 0 -350 417v594h307v-559q0 -211 159 -211zM786 1124l-176 183l-176 -183h-184l180 336h362l183 -336h-189z" />
    <glyph glyph-name="udieresis" unicode="&#xfc;" horiz-adv-x="1221" 
d="M575 223q123 0 220 152v618h307v-993h-307v137q-74 -80 -156 -117.5t-180 -37.5q-350 0 -350 417v594h307v-559q0 -211 159 -211zM395 1425q57 0 98 -41t41 -98q0 -59 -41 -100t-98 -41t-99 42t-42 99t42 98t99 41zM829 1425q57 0 98 -42t41 -97q0 -59 -41 -100t-98 -41
t-99 42t-42 99q0 55 42 97t99 42z" />
    <glyph glyph-name="yacute" unicode="&#xfd;" horiz-adv-x="1102" 
d="M797 993h305l-680 -1462h-313l290 621l-393 841h334l221 -512zM377 1124l162 336h338l-326 -336h-174z" />
    <glyph glyph-name="thorn" unicode="&#xfe;" horiz-adv-x="1227" 
d="M674 -18q-72 0 -127 14t-121 53v-518h-307v1866h307v-404h129q281 0 439.5 -107.5t158.5 -396.5q0 -133 -54.5 -249.5t-163 -187t-261.5 -70.5zM606 215q101 0 164.5 73.5t63.5 188.5q0 135 -71 205t-196 70h-141v-478q43 -28 91 -43.5t89 -15.5z" />
    <glyph glyph-name="ydieresis" unicode="&#xff;" horiz-adv-x="1102" 
d="M797 993h305l-680 -1462h-313l290 621l-393 841h334l221 -512zM330 1425q57 0 98 -41t41 -98q0 -59 -41 -100t-98 -41t-99 42t-42 99t42 98t99 41zM764 1425q57 0 98 -42t41 -97q0 -59 -41 -100t-98 -41t-99 42t-42 99q0 55 42 97t99 42z" />
    <glyph glyph-name="Amacron" unicode="&#x100;" horiz-adv-x="1589" 
d="M1229 0l-135 322h-600l-134 -322h-360l608 1399h367l614 -1399h-360zM793 1055l-207 -508h415zM1108 1565h-628v194h628v-194z" />
    <glyph glyph-name="amacron" unicode="&#x101;" horiz-adv-x="1077" 
d="M936 698v-409q0 -39 9 -61.5t36 -22.5q35 0 92 35v-189q-80 -37 -143.5 -53t-126.5 -16q-66 0 -106 25.5t-54 78.5q-121 -104 -293 -104q-133 0 -207.5 68.5t-74.5 180.5q0 99 58 163.5t169 111.5t334 119v22q0 84 -41 118t-121 34q-98 0 -193.5 -46t-175.5 -132v256
q170 135 426 135q199 0 305.5 -83t106.5 -231zM479 158q66 0 150 71v252q-99 -41 -149 -66.5t-79.5 -60.5t-29.5 -84q0 -51 30.5 -81.5t77.5 -30.5z" />
    <glyph glyph-name="Abreve" unicode="&#x102;" horiz-adv-x="1589" 
d="M1229 0l-135 322h-600l-134 -322h-360l608 1399h367l614 -1399h-360zM793 1055l-207 -508h415zM799 1700q70 0 114 36t56 95h193q-21 -160 -117 -248t-250 -88q-158 0 -256 88t-113 248h193q29 -131 180 -131z" />
    <glyph glyph-name="abreve" unicode="&#x103;" horiz-adv-x="1077" 
d="M936 698v-409q0 -39 9 -61.5t36 -22.5q35 0 92 35v-189q-80 -37 -143.5 -53t-126.5 -16q-66 0 -106 25.5t-54 78.5q-121 -104 -293 -104q-133 0 -207.5 68.5t-74.5 180.5q0 99 58 163.5t169 111.5t334 119v22q0 84 -41 118t-121 34q-98 0 -193.5 -46t-175.5 -132v256
q170 135 426 135q199 0 305.5 -83t106.5 -231zM479 158q66 0 150 71v252q-99 -41 -149 -66.5t-79.5 -60.5t-29.5 -84q0 -51 30.5 -81.5t77.5 -30.5zM530 1303q68 0 105.5 29.5t58.5 97.5h184q-10 -84 -54 -157t-120 -118t-174 -45q-141 0 -232.5 84t-117.5 236h182
q16 -60 59 -93.5t109 -33.5z" />
    <glyph glyph-name="Aogonek" unicode="&#x104;" horiz-adv-x="1589" 
d="M1444 0q-33 -55 -33 -109q0 -45 28.5 -71.5t86.5 -26.5q51 0 90 17v-162q-86 -39 -166 -39q-102 0 -159.5 58.5t-57.5 162.5q0 92 55 170h-59l-135 322h-600l-134 -322h-360l608 1399h367l614 -1399h-145zM793 1055l-207 -508h415z" />
    <glyph glyph-name="aogonek" unicode="&#x105;" horiz-adv-x="1081" 
d="M936 698v-430q0 -39 9 -61.5t36 -22.5q33 0 94 35v-168q-108 -51 -194 -63q-25 -49 -25 -97q0 -45 28.5 -71.5t86.5 -26.5q51 0 90 17v-162q-86 -39 -166 -39q-102 0 -160.5 58.5t-58.5 162.5q0 82 53 164q-67 18 -86 92q-121 -104 -293 -104q-133 0 -207.5 68.5
t-74.5 180.5q0 99 58 163.5t169 111.5t334 119v22q0 84 -41 118t-121 34q-98 0 -193.5 -46t-175.5 -132v256q170 135 426 135q199 0 305.5 -83t106.5 -231zM479 158q66 0 150 71v252q-99 -41 -149 -66.5t-79.5 -60.5t-29.5 -84q0 -51 30.5 -81.5t77.5 -30.5z" />
    <glyph glyph-name="Cacute" unicode="&#x106;" horiz-adv-x="1499" 
d="M1389 1307v-324q-121 76 -231.5 113t-229.5 37q-152 0 -260.5 -60.5t-163.5 -161t-55 -219.5q0 -117 56 -215t162.5 -155.5t252.5 -57.5q245 0 477 154v-314q-228 -122 -535 -122q-237 0 -412.5 94t-268.5 257t-93 365q0 217 100.5 380t278.5 250t401 87q258 0 521 -108z
M838 1509h-189l195 336h367z" />
    <glyph glyph-name="cacute" unicode="&#x107;" horiz-adv-x="999" 
d="M918 952v-260q-136 68 -269 68q-110 0 -183 -72t-73 -188q0 -115 73 -189.5t193 -74.5q115 0 277 61v-254q-88 -33 -163 -47t-159 -14q-198 0 -320 82.5t-172 200.5t-50 231q0 118 52 237t173 199t311 80q82 0 152.5 -13.5t157.5 -46.5zM395 1124l162 336h338l-326 -336
h-174z" />
    <glyph glyph-name="Ccaron" unicode="&#x10c;" horiz-adv-x="1499" 
d="M1389 1307v-324q-121 76 -231.5 113t-229.5 37q-152 0 -260.5 -60.5t-163.5 -161t-55 -219.5q0 -117 56 -215t162.5 -155.5t252.5 -57.5q245 0 477 154v-314q-228 -122 -535 -122q-237 0 -412.5 94t-268.5 257t-93 365q0 217 100.5 380t278.5 250t401 87q258 0 521 -108z
M865 1657l198 188h189l-201 -336h-375l-202 336h188z" />
    <glyph glyph-name="ccaron" unicode="&#x10d;" horiz-adv-x="999" 
d="M918 952v-260q-136 68 -269 68q-110 0 -183 -72t-73 -188q0 -115 73 -189.5t193 -74.5q115 0 277 61v-254q-88 -33 -163 -47t-159 -14q-198 0 -320 82.5t-172 200.5t-50 231q0 118 52 237t173 199t311 80q82 0 152.5 -13.5t157.5 -46.5zM757 1460h189l-193 -336h-362
l-191 336h187l186 -182z" />
    <glyph glyph-name="Dcaron" unicode="&#x10e;" horiz-adv-x="1620" 
d="M1532 702q0 -333 -198.5 -517.5t-573.5 -184.5h-610v1397h589q254 0 433.5 -88t269.5 -246t90 -361zM1171 696q0 215 -118.5 333t-339.5 118h-211v-891h223q223 0 334.5 111.5t111.5 328.5zM758 1657l198 188h189l-201 -336h-375l-202 336h188z" />
    <glyph glyph-name="dcaron" unicode="&#x10f;" horiz-adv-x="1571" 
d="M655 0q-313 0 -448 132t-135 378q0 137 56 250.5t164.5 182.5t256.5 69q145 0 252 -66v451h305v-1397h-451zM686 238h115v485q-80 55 -183 55q-100 0 -162.5 -72.5t-62.5 -193.5q0 -147 66.5 -210.5t226.5 -63.5zM1213 903q71 23 104 74t35 119q-59 4 -95 44t-36 103
q0 84 55.5 131t126.5 47q82 0 137.5 -57t55.5 -156q0 -67 -27 -127.5t-77 -107.5t-120.5 -76t-158.5 -33v39z" />
    <glyph glyph-name="Dcroat" unicode="&#x110;" horiz-adv-x="1620" 
d="M1532 702q0 -333 -198.5 -517.5t-573.5 -184.5h-610v602h-150v193h150v602h589q254 0 433.5 -88t269.5 -246t90 -361zM1171 696q0 215 -118.5 333t-339.5 118h-211v-352h319v-193h-319v-346h223q223 0 334.5 111.5t111.5 328.5z" />
    <glyph glyph-name="dcroat" unicode="&#x111;" horiz-adv-x="1225" 
d="M1106 1397v-117h145v-152h-145v-1128h-461q-158 0 -267.5 35t-177 100.5t-98 160.5t-30.5 216q0 100 31.5 190.5t92 159t149.5 109.5t204 41q145 0 250 -66v182h-219v152h219v117h307zM393 512q0 -74 14.5 -126t48 -86t89 -49t137.5 -15h117v489q-82 55 -181 55
q-98 0 -161.5 -72.5t-63.5 -195.5z" />
    <glyph glyph-name="Emacron" unicode="&#x112;" horiz-adv-x="1229" 
d="M502 1147v-307h577v-250h-577v-340h620v-250h-972v1397h956v-250h-604zM936 1565h-628v194h628v-194z" />
    <glyph glyph-name="emacron" unicode="&#x113;" horiz-adv-x="1149" 
d="M1083 489v-57h-696q16 -106 97 -170.5t194 -64.5q184 0 381 104v-211q-187 -108 -441 -108q-163 0 -287 64.5t-191.5 182t-67.5 273.5q0 151 64.5 267t186 179.5t285.5 63.5q133 0 240.5 -59.5t171 -177.5t63.5 -286zM594 809q-92 0 -151.5 -61.5t-61.5 -159.5h412
q-2 102 -54.5 161.5t-144.5 59.5z" />
    <glyph glyph-name="Edotaccent" unicode="&#x116;" horiz-adv-x="1229" 
d="M502 1147v-307h577v-250h-577v-340h620v-250h-972v1397h956v-250h-604zM770 1696q0 -70 -47 -117t-115 -47q-70 0 -117 48t-47 116q0 67 48 114.5t116 47.5t115 -48.5t47 -113.5z" />
    <glyph glyph-name="edotaccent" unicode="&#x117;" horiz-adv-x="1149" 
d="M1083 489v-57h-696q16 -106 97 -170.5t194 -64.5q184 0 381 104v-211q-187 -108 -441 -108q-163 0 -287 64.5t-191.5 182t-67.5 273.5q0 151 64.5 267t186 179.5t285.5 63.5q133 0 240.5 -59.5t171 -177.5t63.5 -286zM594 809q-92 0 -151.5 -61.5t-61.5 -159.5h412
q-2 102 -54.5 161.5t-144.5 59.5zM748 1303q0 -68 -47 -116t-115 -48q-70 0 -117 48t-47 116q0 67 48 114t116 47t115 -48t47 -113z" />
    <glyph glyph-name="Eogonek" unicode="&#x118;" horiz-adv-x="1247" 
d="M520 1147v-307h578v-250h-578v-340h623v-250h-172q-33 -55 -33 -109q0 -45 29.5 -71.5t85.5 -26.5q51 0 90 17v-162q-86 -39 -166 -39q-100 0 -158.5 58.5t-58.5 162.5q0 86 55 170h-647v1397h956v-250h-604z" />
    <glyph glyph-name="eogonek" unicode="&#x119;" horiz-adv-x="1149" 
d="M1083 489v-57h-696q16 -106 97 -170.5t194 -64.5q184 0 381 104v-211q-103 -57 -217 -84q-37 -55 -37 -115q0 -45 29.5 -71.5t85.5 -26.5q28 0 46.5 3t43.5 14v-162q-84 -39 -166 -39q-101 0 -159 58.5t-58 162.5q0 76 45 154q-19 -2 -54 -2q-163 0 -287 64.5t-191.5 182
t-67.5 273.5q0 151 64.5 267t186 179.5t285.5 63.5q133 0 240.5 -59.5t171 -177.5t63.5 -286zM594 809q-92 0 -151.5 -61.5t-61.5 -159.5h412q-2 102 -54.5 161.5t-144.5 59.5z" />
    <glyph glyph-name="Ecaron" unicode="&#x11a;" horiz-adv-x="1229" 
d="M502 1147v-307h577v-250h-577v-340h620v-250h-972v1397h956v-250h-604zM615 1657l198 188h189l-201 -336h-375l-202 336h188z" />
    <glyph glyph-name="ecaron" unicode="&#x11b;" horiz-adv-x="1149" 
d="M1083 489v-57h-696q16 -106 97 -170.5t194 -64.5q184 0 381 104v-211q-187 -108 -441 -108q-163 0 -287 64.5t-191.5 182t-67.5 273.5q0 151 64.5 267t186 179.5t285.5 63.5q133 0 240.5 -59.5t171 -177.5t63.5 -286zM594 809q-92 0 -151.5 -61.5t-61.5 -159.5h412
q-2 102 -54.5 161.5t-144.5 59.5zM772 1460h189l-193 -336h-362l-191 336h187l186 -182z" />
    <glyph glyph-name="Gbreve" unicode="&#x11e;" horiz-adv-x="1597" 
d="M950 1145q-170 0 -282.5 -66.5t-165.5 -170t-53 -214.5q0 -121 57 -220t163.5 -156.5t250.5 -57.5q59 0 103 6t110 27v203h-213v249h528v-647q-152 -61 -293 -88.5t-291 -27.5q-235 0 -411.5 91t-270.5 252.5t-94 368.5q0 197 91 361t270.5 262t429.5 98q145 0 267 -23.5
t275 -82.5v-291q-112 65 -227 96t-244 31zM876 1700q70 0 114 36t56 95h193q-21 -160 -117 -248t-250 -88q-158 0 -256 88t-113 248h193q29 -131 180 -131z" />
    <glyph glyph-name="gbreve" unicode="&#x11f;" horiz-adv-x="1069" 
d="M969 596q0 -133 -99.5 -221t-269.5 -101q-139 -14 -139 -73q0 -37 46 -52.5t173 -29.5q346 -39 346 -287q0 -151 -128 -232t-368 -81q-241 0 -368 72.5t-127 197.5q0 84 57.5 146.5t181.5 82.5q-41 17 -65.5 51.5t-24.5 73.5q0 58 40 103t114 61q-123 37 -190.5 121
t-67.5 195q0 176 126 273t351 97h498v-194h-181q95 -80 95 -203zM520 455q80 0 130 48t50 120q0 71 -51 120.5t-123 49.5q-80 0 -129 -54.5t-49 -120.5q0 -71 49 -117t123 -46zM541 -315q110 0 171.5 31.5t61.5 90.5q0 58 -64.5 88.5t-179.5 30.5q-110 0 -168.5 -28.5
t-58.5 -92.5q0 -120 238 -120zM547 1303q68 0 105.5 29.5t58.5 97.5h184q-10 -84 -54 -157t-120 -118t-174 -45q-141 0 -232.5 84t-117.5 236h182q16 -60 59 -93.5t109 -33.5z" />
    <glyph glyph-name="uni0122" unicode="&#x122;" horiz-adv-x="1597" 
d="M950 1145q-170 0 -282.5 -66.5t-165.5 -170t-53 -214.5q0 -121 57 -220t163.5 -156.5t250.5 -57.5q59 0 103 6t110 27v203h-213v249h528v-647q-152 -61 -293 -88.5t-291 -27.5q-235 0 -411.5 91t-270.5 252.5t-94 368.5q0 197 91 361t270.5 262t429.5 98q145 0 267 -23.5
t275 -82.5v-291q-112 65 -227 96t-244 31zM672 -530q120 41 124 153q-59 4 -94 39t-35 88q0 72 52.5 113t119.5 41q78 0 129.5 -49.5t51.5 -135.5q0 -55 -23.5 -105t-69 -89t-110 -62.5t-145.5 -27.5v35z" />
    <glyph glyph-name="uni0123" unicode="&#x123;" horiz-adv-x="1069" 
d="M969 596q0 -133 -99.5 -221t-269.5 -101q-139 -14 -139 -73q0 -37 46 -52.5t173 -29.5q346 -39 346 -287q0 -151 -128 -232t-368 -81q-241 0 -368 72.5t-127 197.5q0 84 57.5 146.5t181.5 82.5q-41 17 -65.5 51.5t-24.5 73.5q0 58 40 103t114 61q-123 37 -190.5 121
t-67.5 195q0 176 126 273t351 97h498v-194h-181q95 -80 95 -203zM520 455q80 0 130 48t50 120q0 71 -51 120.5t-123 49.5q-80 0 -129 -54.5t-49 -120.5q0 -71 49 -117t123 -46zM541 -315q110 0 171.5 31.5t61.5 90.5q0 58 -64.5 88.5t-179.5 30.5q-110 0 -168.5 -28.5
t-58.5 -92.5q0 -120 238 -120zM709 1528q-60 -29 -86.5 -67t-28.5 -93q51 -6 81 -38t30 -83q0 -65 -45.5 -103t-104.5 -38q-68 0 -114 47t-46 125q0 49 20.5 96t60.5 85t97.5 63.5t128.5 31.5z" />
    <glyph glyph-name="glyph220" horiz-adv-x="1221" 
d="M1112 592v-592h-307v549q0 98 -40 149.5t-116 51.5q-61 0 -114.5 -36t-108.5 -116v-598h-307v1128h-142v152h142v117h307v-117h381v-152h-381v-294q72 81 154 119t182 38q182 0 266 -107.5t84 -291.5z" />
    <glyph glyph-name="Imacron" unicode="&#x12a;" horiz-adv-x="651" 
d="M150 0v1397h352v-1397h-352zM640 1565h-628v194h628v-194z" />
    <glyph glyph-name="imacron" unicode="&#x12b;" horiz-adv-x="545" 
d="M119 0v993h307v-993h-307z" />
    <glyph glyph-name="Iogonek" unicode="&#x12e;" horiz-adv-x="688" 
d="M399 0q-32 -55 -32 -109q0 -45 29.5 -71.5t84.5 -26.5q51 0 90 17v-162q-86 -39 -165 -39q-101 0 -159.5 58.5t-58.5 162.5q0 86 56 170h-76v1397h352v-1397h-121z" />
    <glyph glyph-name="iogonek" unicode="&#x12f;" horiz-adv-x="545" 
d="M410 1243q0 -57 -40 -98t-98 -41q-57 0 -98 41t-41 98t40 98t99 41q58 0 98 -41t40 -98zM330 0q-19 -35 -26 -58.5t-7 -50.5q0 -43 27.5 -70.5t87.5 -27.5q51 0 90 17v-162q-86 -39 -166 -39q-100 0 -158.5 58.5t-58.5 162.5q0 86 55 170h-55v993h307v-993h-96z" />
    <glyph glyph-name="Idotaccent" unicode="&#x130;" horiz-adv-x="651" 
d="M150 0v1397h352v-1397h-352zM464 1696q0 -70 -47 -117t-115 -47q-70 0 -117 48t-47 116q0 67 48 114.5t116 47.5t115 -48.5t47 -113.5z" />
    <glyph glyph-name="dotlessi" unicode="&#x131;" horiz-adv-x="545" 
d="M119 0v993h307v-993h-307z" />
    <glyph glyph-name="uni0136" unicode="&#x136;" horiz-adv-x="1520" 
d="M1030 1397h393l-544 -656l647 -741h-439l-585 678v-678h-352v1397h352v-643zM582 -530q120 41 124 153q-59 4 -94 39t-35 88q0 72 52.5 113t119.5 41q78 0 129.5 -49.5t51.5 -135.5q0 -55 -23.5 -105t-69 -89t-110 -62.5t-145.5 -27.5v35z" />
    <glyph glyph-name="uni0137" unicode="&#x137;" horiz-adv-x="1223" 
d="M119 0v1397h309v-1397h-309zM1243 0h-393l-416 514l383 479h367l-383 -469zM455 -530q120 41 124 153q-59 4 -94 39t-35 88q0 72 52.5 113t119.5 41q78 0 129.5 -49.5t51.5 -135.5q0 -55 -23.5 -105t-69 -89t-110 -62.5t-145.5 -27.5v35z" />
    <glyph glyph-name="Lacute" unicode="&#x139;" horiz-adv-x="1190" 
d="M1135 289v-289h-985v1397h352v-1108h633zM371 1509h-189l195 336h367z" />
    <glyph glyph-name="lacute" unicode="&#x13a;" horiz-adv-x="545" 
d="M119 0v1397h307v-1397h-307zM107 1484l162 336h338l-326 -336h-174z" />
    <glyph glyph-name="uni013B" unicode="&#x13b;" horiz-adv-x="1190" 
d="M1135 289v-289h-985v1397h352v-1108h633zM443 -530q120 41 124 153q-59 4 -94 39t-35 88q0 72 52.5 113t119.5 41q78 0 129.5 -49.5t51.5 -135.5q0 -55 -23.5 -105t-69 -89t-110 -62.5t-145.5 -27.5v35z" />
    <glyph glyph-name="uni013C" unicode="&#x13c;" horiz-adv-x="545" 
d="M119 0v1397h307v-1397h-307zM100 -530q120 41 124 153q-59 4 -94 39t-35 88q0 72 52.5 113t119.5 41q78 0 129.5 -49.5t51.5 -135.5q0 -55 -23.5 -105t-69 -89t-110 -62.5t-145.5 -27.5v35z" />
    <glyph glyph-name="Lcaron" unicode="&#x13d;" horiz-adv-x="1190" 
d="M1135 289v-289h-985v1397h352v-1108h633zM692 903q71 23 104 74t35 119q-59 4 -95 44t-36 103q0 84 55.5 131t126.5 47q82 0 137.5 -57t55.5 -156q0 -67 -27 -127.5t-77 -107.5t-120.5 -76t-158.5 -33v39z" />
    <glyph glyph-name="lcaron" unicode="&#x13e;" horiz-adv-x="895" 
d="M119 0v1397h307v-1397h-307zM537 903q71 23 104 74t35 119q-59 4 -95 44t-36 103q0 84 55.5 131t126.5 47q82 0 137.5 -57t55.5 -156q0 -67 -27 -127.5t-77 -107.5t-120.5 -76t-158.5 -33v39z" />
    <glyph glyph-name="Lslash" unicode="&#x141;" horiz-adv-x="1208" 
d="M786 1145v-244l-266 -213v-399h633v-289h-985v424l-184 -145v247l184 146v725h352v-461z" />
    <glyph glyph-name="lslash" unicode="&#x142;" horiz-adv-x="545" 
d="M567 1022v-201l-141 -116v-705h-307v481l-142 -116v200l142 117v715h307v-492z" />
    <glyph glyph-name="Nacute" unicode="&#x143;" horiz-adv-x="1741" 
d="M1243 1397h348v-1397h-313l-782 868v-868h-346v1397h309l784 -871v871zM893 1509h-189l195 336h367z" />
    <glyph glyph-name="nacute" unicode="&#x144;" horiz-adv-x="1221" 
d="M1112 606v-606h-307v561q0 209 -160 209q-61 0 -114.5 -37t-104.5 -115v-618h-307v993h307v-137q139 156 336 156q180 0 265 -108.5t85 -297.5zM446 1124l162 336h338l-326 -336h-174z" />
    <glyph glyph-name="uni0145" unicode="&#x145;" horiz-adv-x="1741" 
d="M1243 1397h348v-1397h-313l-782 868v-868h-346v1397h309l784 -871v871zM695 -530q120 41 124 153q-59 4 -94 39t-35 88q0 72 52.5 113t119.5 41q78 0 129.5 -49.5t51.5 -135.5q0 -55 -23.5 -105t-69 -89t-110 -62.5t-145.5 -27.5v35z" />
    <glyph glyph-name="uni0146" unicode="&#x146;" horiz-adv-x="1221" 
d="M1112 606v-606h-307v561q0 209 -160 209q-61 0 -114.5 -37t-104.5 -115v-618h-307v993h307v-137q139 156 336 156q180 0 265 -108.5t85 -297.5zM441 -530q120 41 124 153q-59 4 -94 39t-35 88q0 72 52.5 113t119.5 41q78 0 129.5 -49.5t51.5 -135.5q0 -55 -23.5 -105
t-69 -89t-110 -62.5t-145.5 -27.5v35z" />
    <glyph glyph-name="Ncaron" unicode="&#x147;" horiz-adv-x="1741" 
d="M1243 1397h348v-1397h-313l-782 868v-868h-346v1397h309l784 -871v871zM860 1657l198 188h189l-201 -336h-375l-202 336h188z" />
    <glyph glyph-name="ncaron" unicode="&#x148;" horiz-adv-x="1221" 
d="M1112 606v-606h-307v561q0 209 -160 209q-61 0 -114.5 -37t-104.5 -115v-618h-307v993h307v-137q139 156 336 156q180 0 265 -108.5t85 -297.5zM794 1460h189l-193 -336h-362l-191 336h187l186 -182z" />
    <glyph glyph-name="Omacron" unicode="&#x14c;" horiz-adv-x="1726" 
d="M1637 698q0 -198 -92 -361t-268 -259t-418 -96q-244 0 -418 97t-264 260t-90 357q0 185 84 348.5t259 267t435 103.5q236 0 411 -94t268 -258t93 -365zM448 696q0 -118 52 -211.5t146 -144.5t213 -51q187 0 302.5 110.5t115.5 300.5q0 111 -49 204t-143.5 148.5
t-223.5 55.5q-125 0 -219 -52t-144 -145.5t-50 -214.5zM1177 1565h-628v194h628v-194z" />
    <glyph glyph-name="omacron" unicode="&#x14d;" horiz-adv-x="1255" 
d="M1184 498q0 -156 -70 -272.5t-196.5 -180t-290.5 -63.5q-176 0 -301 68.5t-189.5 185t-64.5 260.5q0 149 65.5 266t191.5 183.5t300 66.5q172 0 297 -65.5t191.5 -182.5t66.5 -266zM393 498q0 -129 63.5 -204t172.5 -75q108 0 171.5 76t63.5 203q0 131 -65.5 203.5
t-173.5 72.5q-107 0 -169.5 -73.5t-62.5 -202.5z" />
    <glyph glyph-name="Ohungarumlaut" unicode="&#x150;" horiz-adv-x="1726" 
d="M1637 698q0 -198 -92 -361t-268 -259t-418 -96q-244 0 -418 97t-264 260t-90 357q0 185 84 348.5t259 267t435 103.5q236 0 411 -94t268 -258t93 -365zM448 696q0 -118 52 -211.5t146 -144.5t213 -51q187 0 302.5 110.5t115.5 300.5q0 111 -49 204t-143.5 148.5
t-223.5 55.5q-125 0 -219 -52t-144 -145.5t-50 -214.5zM717 1509h-172l146 336h340zM1147 1509h-172l146 336h340z" />
    <glyph glyph-name="ohungarumlaut" unicode="&#x151;" horiz-adv-x="1255" 
d="M1184 498q0 -156 -70 -272.5t-196.5 -180t-290.5 -63.5q-176 0 -301 68.5t-189.5 185t-64.5 260.5q0 149 65.5 266t191.5 183.5t300 66.5q172 0 297 -65.5t191.5 -182.5t66.5 -266zM393 498q0 -129 63.5 -204t172.5 -75q108 0 171.5 76t63.5 203q0 131 -65.5 203.5
t-173.5 72.5q-107 0 -169.5 -73.5t-62.5 -202.5zM296 1124l158 332h338l-328 -332h-168zM729 1124l159 332h338l-327 -332h-170z" />
    <glyph glyph-name="OE" unicode="&#x152;" horiz-adv-x="2107" 
d="M1393 1149v-307h561v-252h-561v-342h608v-248h-1094q-389 0 -604 183.5t-215 521.5q0 333 216 512.5t609 179.5h1076v-248h-596zM963 248h77v901h-69q-262 0 -392 -111.5t-130 -339.5q0 -221 128 -335.5t386 -114.5z" />
    <glyph glyph-name="oe" unicode="&#x153;" horiz-adv-x="1866" 
d="M1315 1012q143 0 252.5 -61.5t171 -180.5t61.5 -283v-55h-665q8 -115 92 -175t196 -60q162 0 355 102v-213q-115 -57 -213.5 -80.5t-206.5 -23.5q-109 0 -196 30.5t-161 98.5q-135 -129 -368 -129q-172 0 -299 63.5t-194.5 178t-67.5 263.5q0 158 66.5 276t190.5 183.5
t289 65.5q220 0 367 -123q152 123 330 123zM1321 807q-86 0 -136 -56.5t-52 -162.5h389q-11 106 -62 162.5t-139 56.5zM854 498q0 137 -67.5 206.5t-165.5 69.5q-103 0 -165.5 -73.5t-62.5 -202.5t62.5 -204t169.5 -75q106 0 167.5 78t61.5 201z" />
    <glyph glyph-name="Racute" unicode="&#x154;" horiz-adv-x="1423" 
d="M1231 975q0 -117 -57.5 -206t-172.5 -140q66 -37 114 -96.5t114 -180.5l182 -352h-385l-162 315q-53 107 -97 159t-89 70.5t-113 18.5h-63v-563h-352v1397h581q240 0 370 -116t130 -306zM872 971q0 186 -217 186h-153v-366h147q109 0 166 39.5t57 140.5zM629 1509h-189
l195 336h367z" />
    <glyph glyph-name="racute" unicode="&#x155;" horiz-adv-x="944" 
d="M944 928l-123 -301q-86 82 -168 82q-164 0 -231 -252v-457h-307v993h307v-235q57 119 137 186.5t170 67.5q53 0 103.5 -19.5t111.5 -64.5zM336 1124l162 336h338l-326 -336h-174z" />
    <glyph glyph-name="uni0156" unicode="&#x156;" horiz-adv-x="1423" 
d="M1231 975q0 -117 -57.5 -206t-172.5 -140q66 -37 114 -96.5t114 -180.5l182 -352h-385l-162 315q-53 107 -97 159t-89 70.5t-113 18.5h-63v-563h-352v1397h581q240 0 370 -116t130 -306zM872 971q0 186 -217 186h-153v-366h147q109 0 166 39.5t57 140.5zM570 -530
q120 41 124 153q-59 4 -94 39t-35 88q0 72 52.5 113t119.5 41q78 0 129.5 -49.5t51.5 -135.5q0 -55 -23.5 -105t-69 -89t-110 -62.5t-145.5 -27.5v35z" />
    <glyph glyph-name="uni0157" unicode="&#x157;" horiz-adv-x="944" 
d="M944 928l-123 -301q-86 82 -168 82q-164 0 -231 -252v-457h-307v993h307v-235q57 119 137 186.5t170 67.5q53 0 103.5 -19.5t111.5 -64.5zM100 -530q120 41 124 153q-59 4 -94 39t-35 88q0 72 52.5 113t119.5 41q78 0 129.5 -49.5t51.5 -135.5q0 -55 -23.5 -105t-69 -89
t-110 -62.5t-145.5 -27.5v35z" />
    <glyph glyph-name="Rcaron" unicode="&#x158;" horiz-adv-x="1423" 
d="M1231 975q0 -117 -57.5 -206t-172.5 -140q66 -37 114 -96.5t114 -180.5l182 -352h-385l-162 315q-53 107 -97 159t-89 70.5t-113 18.5h-63v-563h-352v1397h581q240 0 370 -116t130 -306zM872 971q0 186 -217 186h-153v-366h147q109 0 166 39.5t57 140.5zM611 1657
l198 188h189l-201 -336h-375l-202 336h188z" />
    <glyph glyph-name="rcaron" unicode="&#x159;" horiz-adv-x="944" 
d="M944 928l-123 -301q-86 82 -168 82q-164 0 -231 -252v-457h-307v993h307v-235q57 119 137 186.5t170 67.5q53 0 103.5 -19.5t111.5 -64.5zM673 1460h189l-193 -336h-362l-191 336h187l186 -182z" />
    <glyph glyph-name="Sacute" unicode="&#x15a;" horiz-adv-x="1141" 
d="M993 1305v-299q-198 155 -387 155q-82 0 -124 -33.5t-42 -89.5q0 -51 43 -92t168 -104q140 -72 220.5 -128.5t130 -135t49.5 -191.5q0 -121 -61.5 -213t-173 -142t-253.5 -50q-225 0 -454 116v316q210 -168 409 -168q88 0 134 36.5t46 90.5q0 39 -17 67.5t-70.5 66.5
t-164.5 91q-102 53 -173.5 103.5t-123 132t-51.5 194.5q0 109 55.5 197t162 139t255.5 51q117 0 227.5 -29.5t194.5 -80.5zM543 1509h-189l195 336h367z" />
    <glyph glyph-name="sacute" unicode="&#x15b;" horiz-adv-x="930" 
d="M469 1012q86 0 172 -20.5t158 -59.5v-232q-88 56 -156 79.5t-131 23.5q-55 0 -83 -19.5t-28 -48.5q0 -22 11.5 -38.5t49.5 -40t120 -60.5q137 -61 202.5 -134t65.5 -179q0 -131 -99.5 -216t-281.5 -85q-88 0 -172 17t-195 64v240q172 -113 301 -113q66 0 102 20.5
t36 51.5q0 27 -15.5 48.5t-55.5 45t-124 64.5q-135 63 -194.5 137t-59.5 168q0 78 45 143.5t131 104.5t201 39zM309 1124l162 336h338l-326 -336h-174z" />
    <glyph glyph-name="Scedilla" unicode="&#x15e;" horiz-adv-x="1141" 
d="M993 1305v-299q-198 155 -387 155q-82 0 -124 -33.5t-42 -89.5q0 -51 43 -92t168 -104q140 -72 220.5 -128.5t130 -135t49.5 -191.5q0 -166 -114 -275.5t-302 -125.5l-21 -45q189 -15 189 -168q0 -95 -86 -145t-262 -50q-105 0 -140 6v131q43 -6 78 -6q60 0 92.5 19.5
t32.5 56.5q0 29 -19.5 46t-54.5 17l-38 -2l73 140q-192 22 -370 112v316q210 -168 409 -168q88 0 134 36.5t46 90.5q0 39 -17 67.5t-70.5 66.5t-164.5 91q-102 53 -173.5 103.5t-123 132t-51.5 194.5q0 109 55.5 197t162 139t255.5 51q117 0 227.5 -29.5t194.5 -80.5z" />
    <glyph glyph-name="scedilla" unicode="&#x15f;" horiz-adv-x="930" 
d="M469 1012q86 0 172 -20.5t158 -59.5v-232q-88 56 -156 79.5t-131 23.5q-55 0 -83 -19.5t-28 -48.5q0 -22 11.5 -38.5t49.5 -40t120 -60.5q137 -61 202.5 -134t65.5 -179q0 -123 -85 -206t-245 -93l-22 -43q190 -15 190 -168q0 -95 -87 -145t-263 -50q-105 0 -137 6v131
q43 -6 78 -6q59 0 91.5 19.5t32.5 56.5q0 29 -19 46t-54 17l-41 -2l78 142q-127 16 -265 75v240q172 -113 301 -113q66 0 102 20.5t36 51.5q0 39 -37 68.5t-158 89.5q-135 63 -194.5 137t-59.5 168q0 78 45 143.5t131 104.5t201 39z" />
    <glyph glyph-name="Scaron" unicode="&#x160;" horiz-adv-x="1141" 
d="M993 1305v-299q-198 155 -387 155q-82 0 -124 -33.5t-42 -89.5q0 -51 43 -92t168 -104q140 -72 220.5 -128.5t130 -135t49.5 -191.5q0 -121 -61.5 -213t-173 -142t-253.5 -50q-225 0 -454 116v316q210 -168 409 -168q88 0 134 36.5t46 90.5q0 39 -17 67.5t-70.5 66.5
t-164.5 91q-102 53 -173.5 103.5t-123 132t-51.5 194.5q0 109 55.5 197t162 139t255.5 51q117 0 227.5 -29.5t194.5 -80.5zM568 1657l198 188h189l-201 -336h-375l-202 336h188z" />
    <glyph glyph-name="scaron" unicode="&#x161;" horiz-adv-x="930" 
d="M469 1012q86 0 172 -20.5t158 -59.5v-232q-88 56 -156 79.5t-131 23.5q-55 0 -83 -19.5t-28 -48.5q0 -22 11.5 -38.5t49.5 -40t120 -60.5q137 -61 202.5 -134t65.5 -179q0 -131 -99.5 -216t-281.5 -85q-88 0 -172 17t-195 64v240q172 -113 301 -113q66 0 102 20.5
t36 51.5q0 27 -15.5 48.5t-55.5 45t-124 64.5q-135 63 -194.5 137t-59.5 168q0 78 45 143.5t131 104.5t201 39zM651 1460h189l-193 -336h-362l-191 336h187l186 -182z" />
    <glyph glyph-name="uni0162" unicode="&#x162;" horiz-adv-x="1425" 
d="M887 1106v-1106h-352v1106h-498v291h1352v-291h-502zM942 -270q0 -201 -328 -201q-49 0 -98 6v125q41 -4 92 -4q99 0 99 63q0 54 -76 54q-10 0 -51 -4l24 131h57q138 0 209.5 -45t71.5 -125z" />
    <glyph glyph-name="uni0163" unicode="&#x163;" horiz-adv-x="885" 
d="M485 993h328v-221h-328v-373q0 -84 30 -125t110 -41q96 0 221 70v-248q-64 -32 -151 -52.5t-160 -20.5q-185 0 -271 93t-86 275v422h-162v51l439 443h30v-273zM617 -246q0 -84 -64.5 -133t-191.5 -49q-58 0 -84 6v119q37 -4 61 -4q84 0 84 49q0 22 -17.5 35.5t-43.5 13.5
q-21 0 -33 -2l39 111h31q108 0 163.5 -37t55.5 -109z" />
    <glyph glyph-name="Tcaron" unicode="&#x164;" horiz-adv-x="1425" 
d="M887 1106v-1106h-352v1106h-498v291h1352v-291h-502zM699 1657l198 188h189l-201 -336h-375l-202 336h188z" />
    <glyph glyph-name="tcaron" unicode="&#x165;" horiz-adv-x="1198" 
d="M485 993h328v-221h-328v-373q0 -84 30 -125t110 -41q96 0 221 70v-248q-64 -32 -151 -52.5t-160 -20.5q-185 0 -271 93t-86 275v422h-162v51l439 443h30v-273zM838 903q71 23 104 74t35 119q-59 4 -95 44t-36 103q0 84 55.5 131t126.5 47q82 0 137.5 -57t55.5 -156
q0 -67 -27 -127.5t-77 -107.5t-120.5 -76t-158.5 -33v39z" />
    <glyph glyph-name="Umacron" unicode="&#x16a;" horiz-adv-x="1655" 
d="M829 281q164 0 251 87t87 267v762h353v-770q0 -310 -181.5 -477.5t-509.5 -167.5q-333 0 -513.5 168.5t-180.5 470.5v776h352v-758q0 -174 87.5 -266t254.5 -92zM1142 1565h-628v194h628v-194z" />
    <glyph glyph-name="umacron" unicode="&#x16b;" horiz-adv-x="1221" 
d="M575 223q123 0 220 152v618h307v-993h-307v137q-74 -80 -156 -117.5t-180 -37.5q-350 0 -350 417v594h307v-559q0 -211 159 -211z" />
    <glyph glyph-name="Uring" unicode="&#x16e;" horiz-adv-x="1655" 
d="M829 281q164 0 251 87t87 267v762h353v-770q0 -310 -181.5 -477.5t-509.5 -167.5q-333 0 -513.5 168.5t-180.5 470.5v776h352v-758q0 -174 87.5 -266t254.5 -92zM827 1913q86 0 148.5 -62.5t62.5 -146.5q0 -86 -62.5 -147.5t-148.5 -61.5t-146.5 61.5t-60.5 147.5
t60.5 147.5t146.5 61.5zM827 1597q45 0 77 31t32 76t-32 76.5t-77 31.5t-76 -31.5t-31 -76.5t31 -76t76 -31z" />
    <glyph glyph-name="uring" unicode="&#x16f;" horiz-adv-x="1221" 
d="M575 223q123 0 220 152v618h307v-993h-307v137q-74 -80 -156 -117.5t-180 -37.5q-350 0 -350 417v594h307v-559q0 -211 159 -211zM608 1538q86 0 147.5 -61.5t61.5 -147.5t-61.5 -146.5t-147.5 -60.5t-146.5 60.5t-60.5 146.5t60.5 147.5t146.5 61.5zM608 1223
q45 0 78 30.5t33 75.5t-33 78t-78 33t-77 -33t-32 -78t32 -75.5t77 -30.5z" />
    <glyph glyph-name="Uhungarumlaut" unicode="&#x170;" horiz-adv-x="1655" 
d="M829 281q164 0 251 87t87 267v762h353v-770q0 -310 -181.5 -477.5t-509.5 -167.5q-333 0 -513.5 168.5t-180.5 470.5v776h352v-758q0 -174 87.5 -266t254.5 -92zM690 1509h-172l146 336h340zM1120 1509h-172l146 336h340z" />
    <glyph glyph-name="uhungarumlaut" unicode="&#x171;" horiz-adv-x="1221" 
d="M575 223q123 0 220 152v618h307v-993h-307v137q-74 -80 -156 -117.5t-180 -37.5q-350 0 -350 417v594h307v-559q0 -211 159 -211zM270 1124l158 332h338l-328 -332h-168zM703 1124l159 332h338l-327 -332h-170z" />
    <glyph glyph-name="Uogonek" unicode="&#x172;" horiz-adv-x="1681" 
d="M842 281q164 0 251 87t87 267v762h352v-770q0 -299 -167 -465t-472 -178q-25 -47 -25 -93q0 -45 29 -71.5t86 -26.5q47 0 90 17v-162q-86 -39 -166 -39q-102 0 -160.5 58.5t-58.5 162.5q0 80 47 158q-282 26 -435 192t-153 441v776h353v-758q0 -174 87 -266t255 -92z" />
    <glyph glyph-name="uogonek" unicode="&#x173;" horiz-adv-x="1221" 
d="M575 223q123 0 220 152v618h307v-993h-111q-33 -55 -33 -109q0 -45 29 -71.5t86 -26.5q51 0 90 17v-162q-86 -39 -166 -39q-100 0 -158.5 58.5t-58.5 162.5q0 92 56 170h-41v137q-74 -80 -156 -117.5t-180 -37.5q-350 0 -350 417v594h307v-559q0 -211 159 -211z" />
    <glyph glyph-name="Ydieresis" unicode="&#x178;" horiz-adv-x="1430" 
d="M1049 1397h381l-535 -727v-670h-352v664l-543 733h377l334 -453zM500 1821q57 0 98 -42t41 -100q0 -57 -41 -99t-98 -42t-99 42t-42 99q0 58 42 100t99 42zM934 1821q57 0 98 -42t41 -100q0 -57 -41 -99t-98 -42t-99 42t-42 99q0 58 42 100t99 42z" />
    <glyph glyph-name="Zacute" unicode="&#x179;" horiz-adv-x="1438" 
d="M1393 289v-289h-1362l770 1108h-713v289h1305l-768 -1108h768zM680 1509h-189l195 336h367z" />
    <glyph glyph-name="zacute" unicode="&#x17a;" horiz-adv-x="1047" 
d="M520 238h479v-238h-970v25l483 731h-451v237h945v-24zM330 1124l162 336h338l-326 -336h-174z" />
    <glyph glyph-name="Zdotaccent" unicode="&#x17b;" horiz-adv-x="1438" 
d="M1393 289v-289h-1362l770 1108h-713v289h1305l-768 -1108h768zM864 1696q0 -70 -47 -117t-115 -47q-70 0 -117 48t-47 116q0 67 48 114.5t116 47.5t115 -48.5t47 -113.5z" />
    <glyph glyph-name="zdotaccent" unicode="&#x17c;" horiz-adv-x="1047" 
d="M520 238h479v-238h-970v25l483 731h-451v237h945v-24zM686 1303q0 -68 -47 -116t-115 -48q-70 0 -117 48t-47 116q0 67 48 114t116 47t115 -48t47 -113z" />
    <glyph glyph-name="Zcaron" unicode="&#x17d;" horiz-adv-x="1438" 
d="M1393 289v-289h-1362l770 1108h-713v289h1305l-768 -1108h768zM705 1657l198 188h189l-201 -336h-375l-202 336h188z" />
    <glyph glyph-name="zcaron" unicode="&#x17e;" horiz-adv-x="1047" 
d="M520 238h479v-238h-970v25l483 731h-451v237h945v-24zM708 1460h189l-193 -336h-362l-191 336h187l186 -182z" />
    <glyph glyph-name="florin" unicode="&#x192;" horiz-adv-x="1159" 
d="M909 1180q-86 0 -121.5 -51.5t-54.5 -165.5l-12 -80h219l-35 -211h-217l-110 -707q-35 -223 -137.5 -328.5t-260.5 -105.5q-59 0 -104 6t-121 21l39 227q55 -18 125 -18q51 0 84 18t58.5 76.5t41.5 173.5l96 637h-223l35 211h221l12 80q39 241 137.5 346.5t282.5 105.5
q78 0 211 -31l-35 -221q-39 8 -73.5 12.5t-57.5 4.5z" />
    <glyph glyph-name="circumflex" unicode="&#x2c6;" 
d="M516 1124l-176 183l-176 -183h-184l180 336h362l183 -336h-189z" />
    <glyph glyph-name="caron" unicode="&#x2c7;" 
d="M526 1460h189l-193 -336h-362l-191 336h187l186 -182z" />
    <glyph glyph-name="breve" unicode="&#x2d8;" 
d="M342 1303q68 0 105.5 29.5t58.5 97.5h184q-10 -84 -54 -157t-120 -118t-174 -45q-141 0 -232.5 84t-117.5 236h182q16 -60 59 -93.5t109 -33.5z" />
    <glyph glyph-name="dotaccent" unicode="&#x2d9;" 
d="M504 1303q0 -68 -47 -116t-115 -48q-70 0 -117 48t-47 116q0 67 48 114t116 47t115 -48t47 -113z" />
    <glyph glyph-name="glyph285" 
d="M340 1538q86 0 147.5 -61.5t61.5 -147.5t-61.5 -146.5t-147.5 -60.5t-146.5 60.5t-60.5 146.5t60.5 147.5t146.5 61.5zM340 1223q45 0 78 30.5t33 75.5t-33 78t-78 33t-77 -33t-32 -78t32 -75.5t77 -30.5z" />
    <glyph glyph-name="ogonek" unicode="&#x2db;" 
d="M362 -109q0 -45 30 -71.5t85 -26.5q51 0 90 17v-162q-84 -39 -166 -39q-100 0 -158.5 58.5t-58.5 162.5q0 94 68 186h154q-44 -67 -44 -125z" />
    <glyph glyph-name="tilde" unicode="&#x2dc;" 
d="M381 1378q8 -4 51 -18t64 -14q34 0 52.5 22.5t22.5 61.5h144q-2 -138 -62.5 -216.5t-158.5 -78.5q-62 0 -181 49q-92 35 -123 35q-67 0 -79 -84h-144q0 96 32 162.5t83 99.5t104 33q62 0 195 -52z" />
    <glyph glyph-name="hungarumlaut" unicode="&#x2dd;" 
d="M-23 1124l158 332h338l-328 -332h-168zM410 1124l159 332h338l-327 -332h-170z" />
    <glyph glyph-name="gravecomb" unicode="&#x300;" horiz-adv-x="0" 
d="M-592 1124l-328 336h340l162 -336h-174z" />
    <glyph glyph-name="acutecomb" unicode="&#x301;" horiz-adv-x="0" 
d="M-780 1124l159 336h340l-327 -336h-172z" />
    <glyph glyph-name="tildecomb" unicode="&#x303;" horiz-adv-x="0" 
d="M-563 1378q8 -4 51 -18t63 -14q35 0 54.5 22.5t23.5 61.5h142q0 -138 -59.5 -216.5t-160.5 -78.5q-59 0 -182 49q-92 35 -123 35q-69 0 -77 -84h-144q0 96 32 162.5t83 99.5t104 33q60 0 193 -52z" />
    <glyph glyph-name="hookabovecomb" unicode="&#x309;" horiz-adv-x="0" 
d="M-563 1079h-139v176h28q33 0 54.5 17.5t21.5 42.5q0 26 -20.5 41.5t-59.5 15.5q-51 0 -119 -12v123q74 18 179 18q124 0 186.5 -50t62.5 -140q0 -74 -54 -118t-140 -44v-70z" />
    <glyph glyph-name="dotbelowcomb" unicode="&#x323;" horiz-adv-x="0" 
d="M-467 -285q0 -67 -47 -114t-115 -47q-67 0 -114.5 47t-47.5 114q0 68 47.5 116t114.5 48q68 0 115 -48t47 -116z" />
    <glyph glyph-name="tonos" unicode="&#x384;" 
d="M393 1122h-190l98 301h332z" />
    <glyph glyph-name="dieresistonos" unicode="&#x385;" 
d="M354 1149h-147l67 313h256zM33 1419q53 0 91 -36.5t38 -88.5q0 -55 -38 -92t-91 -37q-51 0 -89 37t-38 92q0 52 38 88.5t89 36.5zM649 1419q53 0 90 -35.5t37 -89.5q0 -55 -37 -92t-90 -37t-90 37t-37 92q0 52 37 88.5t90 36.5z" />
    <glyph glyph-name="Alphatonos" unicode="&#x386;" horiz-adv-x="1595" 
d="M1235 2l-135 322h-600l-134 -322h-360l608 1399h367l614 -1399h-360zM799 1057l-207 -508h415zM210 1040h-190l98 357h332z" />
    <glyph glyph-name="Epsilontonos" unicode="&#x388;" horiz-adv-x="1581" 
d="M854 1147v-307h577v-250h-577v-340h620v-250h-972v1397h956v-250h-604zM191 1040h-190l98 357h332z" />
    <glyph glyph-name="Etatonos" unicode="&#x389;" horiz-adv-x="2032" 
d="M1532 856v541h352v-1397h-352v563h-676v-563h-352v1397h352v-541h676zM191 1040h-190l98 357h332z" />
    <glyph glyph-name="Iotatonos" unicode="&#x38a;" horiz-adv-x="1001" 
d="M500 0v1397h352v-1397h-352zM191 1040h-190l98 357h332z" />
    <glyph glyph-name="Omicrontonos" unicode="&#x38c;" horiz-adv-x="1927" 
d="M1839 698q0 -198 -92 -361t-268 -259t-418 -96q-244 0 -418 97t-264 260t-90 357q0 185 84 348.5t259 267t435 103.5q236 0 411 -94t268 -258t93 -365zM650 696q0 -118 52 -211.5t146 -144.5t213 -51q187 0 302.5 110.5t115.5 300.5q0 111 -49 204t-143.5 148.5
t-223.5 55.5q-125 0 -219 -52t-144 -145.5t-50 -214.5zM191 1040h-190l98 357h332z" />
    <glyph glyph-name="Upsilontonos" unicode="&#x38e;" horiz-adv-x="1894" 
d="M1514 1397h381l-535 -727v-670h-352v664l-543 733h377l334 -453zM191 1040h-190l98 357h332z" />
    <glyph glyph-name="Omegatonos" unicode="&#x38f;" horiz-adv-x="1886" 
d="M319 807q0 172 87 310t254 218t400 80q228 0 394 -75.5t255 -214t89 -320.5q0 -168 -66.5 -292t-224.5 -245h274v-268h-616v256q147 94 212.5 213t65.5 272q0 177 -101 279t-282 102q-182 0 -284.5 -102t-102.5 -275q0 -159 63.5 -278t211.5 -211v-256h-613v268h273
q-154 119 -221.5 247t-67.5 292zM191 1040h-190l98 357h332z" />
    <glyph glyph-name="iotadieresistonos" unicode="&#x390;" horiz-adv-x="582" 
d="M426 291q0 -43 14.5 -61.5t46.5 -18.5q39 0 93 27v-195q-121 -61 -261 -61q-108 0 -154 61t-46 195v755h307v-702zM292 1149h-147l67 313h256zM-29 1419q53 0 91 -36.5t38 -88.5q0 -55 -38 -92t-91 -37q-51 0 -89 37t-38 92q0 52 38 88.5t89 36.5zM587 1419
q53 0 90 -35.5t37 -89.5q0 -55 -37 -92t-90 -37t-90 37t-37 92q0 52 37 88.5t90 36.5z" />
    <glyph glyph-name="Alpha" unicode="&#x391;" horiz-adv-x="1589" 
d="M1229 0l-135 322h-600l-134 -322h-360l608 1399h367l614 -1399h-360zM793 1055l-207 -508h415z" />
    <glyph glyph-name="Beta" unicode="&#x392;" horiz-adv-x="1399" 
d="M1219 1059q0 -103 -54.5 -184.5t-146.5 -118.5q153 -47 228 -141.5t75 -223.5q0 -215 -151.5 -303t-413.5 -88h-606v1397h593q222 0 349 -91.5t127 -246.5zM883 1001q0 93 -52.5 136t-164.5 43h-164v-363h149q115 0 173.5 44t58.5 140zM967 408q0 194 -281 194h-184v-385
h184q281 0 281 191z" />
    <glyph glyph-name="Gamma" unicode="&#x393;" horiz-adv-x="1188" 
d="M1155 1108h-635v-1108h-352v1397h987v-289z" />
    <glyph glyph-name="uni0394" unicode="&#x394;" horiz-adv-x="1579" 
d="M1579 0h-1579l614 1407h357zM465 266h641l-320 793z" />
    <glyph glyph-name="Epsilon" unicode="&#x395;" horiz-adv-x="1229" 
d="M502 1147v-307h577v-250h-577v-340h620v-250h-972v1397h956v-250h-604z" />
    <glyph glyph-name="Zeta" unicode="&#x396;" horiz-adv-x="1438" 
d="M1393 289v-289h-1362l770 1108h-713v289h1305l-768 -1108h768z" />
    <glyph glyph-name="Eta" unicode="&#x397;" horiz-adv-x="1679" 
d="M1178 856v541h352v-1397h-352v563h-676v-563h-352v1397h352v-541h676z" />
    <glyph glyph-name="Theta" unicode="&#x398;" horiz-adv-x="1749" 
d="M1661 698q0 -198 -93 -361t-272.5 -259t-425.5 -96q-245 0 -422.5 97t-268.5 260t-91 357q0 185 85 348.5t263 267t441 103.5q237 0 415 -94t273.5 -257t95.5 -366zM434 696q0 -127 55.5 -224t154.5 -151.5t226 -54.5q144 0 244 59.5t150.5 159t50.5 215.5
q0 119 -52.5 217.5t-152.5 155.5t-238 57q-135 0 -234 -57t-151.5 -156.5t-52.5 -220.5zM569 582v247h609v-247h-609z" />
    <glyph glyph-name="Iota" unicode="&#x399;" horiz-adv-x="651" 
d="M150 0v1397h352v-1397h-352z" />
    <glyph glyph-name="Kappa" unicode="&#x39a;" horiz-adv-x="1520" 
d="M1030 1397h393l-544 -656l647 -741h-439l-585 678v-678h-352v1397h352v-643z" />
    <glyph glyph-name="Lambda" unicode="&#x39b;" horiz-adv-x="1466" 
d="M365 0h-365l623 1411h231l612 -1411h-362l-367 893z" />
    <glyph glyph-name="Mu" unicode="&#x39c;" horiz-adv-x="1817" 
d="M1348 1397h319v-1397h-352v893l-393 -490h-33l-395 490v-893h-344v1397h321l438 -539z" />
    <glyph glyph-name="Nu" unicode="&#x39d;" horiz-adv-x="1741" 
d="M1243 1397h348v-1397h-313l-782 868v-868h-346v1397h309l784 -871v871z" />
    <glyph glyph-name="Xi" unicode="&#x39e;" horiz-adv-x="1389" 
d="M1292 1126l-1198 -2v273h1198v-271zM1171 571h-954v271h954v-271zM1305 0h-1221v272h1221v-272z" />
    <glyph glyph-name="Omicron" unicode="&#x39f;" horiz-adv-x="1726" 
d="M1637 698q0 -198 -92 -361t-268 -259t-418 -96q-244 0 -418 97t-264 260t-90 357q0 185 84 348.5t259 267t435 103.5q236 0 411 -94t268 -258t93 -365zM448 696q0 -118 52 -211.5t146 -144.5t213 -51q187 0 302.5 110.5t115.5 300.5q0 111 -49 204t-143.5 148.5
t-223.5 55.5q-125 0 -219 -52t-144 -145.5t-50 -214.5z" />
    <glyph glyph-name="Pi" unicode="&#x3a0;" horiz-adv-x="1671" 
d="M1522 0h-353v1104h-667v-1104h-352v1397h1372v-1397z" />
    <glyph glyph-name="Rho" unicode="&#x3a1;" horiz-adv-x="1311" 
d="M1253 971q0 -119 -55 -214t-166.5 -151.5t-275.5 -56.5h-254v-549h-352v1397h589q242 0 378 -111.5t136 -314.5zM893 971q0 98 -54.5 142t-174.5 44h-162v-369h176q215 0 215 183z" />
    <glyph glyph-name="Sigma" unicode="&#x3a3;" horiz-adv-x="1399" 
d="M1307 1397v-277h-641l348 -424l-348 -420h675v-276h-1314l591 700l-591 697h1280z" />
    <glyph glyph-name="Tau" unicode="&#x3a4;" horiz-adv-x="1425" 
d="M887 1106v-1106h-352v1106h-498v291h1352v-291h-502z" />
    <glyph glyph-name="Upsilon" unicode="&#x3a5;" horiz-adv-x="1430" 
d="M1049 1397h381l-535 -727v-670h-352v664l-543 733h377l334 -453z" />
    <glyph glyph-name="Phi" unicode="&#x3a6;" horiz-adv-x="1812" 
d="M88 721q0 143 77 253.5t223.5 177.5t348.5 77v186h338v-186q197 -8 343.5 -75t226 -178.5t79.5 -254.5q0 -227 -170 -368.5t-479 -166.5v-204h-338v204q-305 25 -477 166.5t-172 368.5zM442 715q0 -111 71 -184.5t224 -90.5v535q-145 -6 -220 -79t-75 -181zM1370 713
q0 118 -79 185t-216 77v-535q139 9 217 84.5t78 188.5z" />
    <glyph glyph-name="Chi" unicode="&#x3a7;" horiz-adv-x="1659" 
d="M557 1311q141 -176 264 -334q105 145 330 420h438l-542 -672l604 -725h-449l-381 463q-88 -117 -370 -463h-443l592 725l-559 672h446z" />
    <glyph glyph-name="Psi" unicode="&#x3a8;" horiz-adv-x="1786" 
d="M100 1116v58h353q0 -244 25.5 -383.5t84 -206t160.5 -82.5v913h338v-913q106 14 164.5 87t83 212t24.5 373h353v-58q0 -285 -60.5 -473t-198 -295.5t-366.5 -134.5v-231h-338v231q-234 27 -370 133.5t-194.5 294.5t-58.5 475z" />
    <glyph glyph-name="uni03A9" unicode="&#x3a9;" horiz-adv-x="1655" 
d="M88 807q0 172 87 310t254 218t400 80q228 0 394 -75.5t255 -214t89 -320.5q0 -168 -66.5 -292t-224.5 -245h274v-268h-616v256q147 94 212.5 213t65.5 272q0 177 -101 279t-282 102q-182 0 -284.5 -102t-102.5 -275q0 -159 63.5 -278t211.5 -211v-256h-613v268h273
q-154 119 -221.5 247t-67.5 292z" />
    <glyph glyph-name="Iotadieresis" unicode="&#x3aa;" horiz-adv-x="651" 
d="M150 0v1397h352v-1397h-352zM112 1821q57 0 98 -42t41 -100q0 -57 -41 -99t-98 -42t-99 42t-42 99q0 58 42 100t99 42zM546 1821q57 0 98 -42t41 -100q0 -57 -41 -99t-98 -42t-99 42t-42 99q0 58 42 100t99 42z" />
    <glyph glyph-name="Upsilondieresis" unicode="&#x3ab;" horiz-adv-x="1430" 
d="M1049 1397h381l-535 -727v-670h-352v664l-543 733h377l334 -453zM494 1821q57 0 98 -42t41 -100q0 -57 -41 -99t-98 -42t-99 42t-42 99q0 58 42 100t99 42zM928 1821q57 0 98 -42t41 -100q0 -57 -41 -99t-98 -42t-99 42t-42 99q0 58 42 100t99 42z" />
    <glyph glyph-name="alphatonos" unicode="&#x3ac;" horiz-adv-x="1272" 
d="M1030 -18q-74 0 -122 31.5t-66 88.5q-72 -63 -144.5 -91.5t-162.5 -28.5q-136 0 -241.5 65.5t-163.5 182t-58 264.5q0 147 60.5 265t171 185.5t257.5 67.5q135 0 248 -66v47h307v-690q0 -51 10.5 -71.5t38.5 -20.5q33 0 56.5 12.5t29.5 16.5v-195q-114 -63 -221 -63z
M637 776q-115 0 -179.5 -75.5t-64.5 -204.5q0 -134 60.5 -206.5t164.5 -72.5q101 0 191 76v426q-37 26 -82 41.5t-90 15.5zM661 1122h-190l98 301h332z" />
    <glyph glyph-name="epsilontonos" unicode="&#x3ad;" horiz-adv-x="993" 
d="M539 -18q-226 0 -342.5 77.5t-116.5 214.5q0 93 55 154t162 88v8q-88 23 -137 80.5t-49 130.5q0 127 106.5 202t312.5 75q99 0 194 -16.5t171 -47.5v-211q-70 29 -143.5 44.5t-135.5 15.5q-92 0 -141 -23.5t-49 -68.5q0 -58 47 -81.5t148 -23.5h106v-201h-121
q-205 0 -205 -94q0 -59 52.5 -83.5t162.5 -24.5q76 0 148 16t158 51v-221q-82 -31 -182.5 -46t-200.5 -15zM606 1122h-190l98 301h332z" />
    <glyph glyph-name="etatonos" unicode="&#x3ae;" horiz-adv-x="1221" 
d="M98 764q-24 0 -61 -21v215q51 25 105.5 39.5t99.5 14.5q166 0 200 -166q140 166 328 166q164 0 253 -106.5t89 -295.5v-1079h-307v1034q0 105 -37 155t-115 50q-53 0 -103 -35t-87 -98v-637h-307v676q0 41 -15.5 64.5t-42.5 23.5zM698 1122h-190l98 301h332z" />
    <glyph glyph-name="iotatonos" unicode="&#x3af;" horiz-adv-x="582" 
d="M426 291q0 -43 14.5 -61.5t46.5 -18.5q39 0 93 27v-195q-121 -61 -261 -61q-108 0 -154 61t-46 195v755h307v-702zM326 1122h-190l98 301h332z" />
    <glyph glyph-name="upsilondieresistonos" unicode="&#x3b0;" horiz-adv-x="1182" 
d="M416 430q0 -96 42 -149.5t130 -53.5q178 0 178 205v561h307v-544q0 -467 -479 -467q-258 0 -371.5 111.5t-113.5 342.5v557h307v-563zM604 1149h-147l67 313h256zM283 1419q53 0 91 -36.5t38 -88.5q0 -55 -38 -92t-91 -37q-51 0 -89 37t-38 92q0 52 38 88.5t89 36.5z
M899 1419q53 0 90 -35.5t37 -89.5q0 -55 -37 -92t-90 -37t-90 37t-37 92q0 52 37 88.5t90 36.5z" />
    <glyph glyph-name="alpha" unicode="&#x3b1;" horiz-adv-x="1272" 
d="M1030 -18q-74 0 -122 31.5t-66 88.5q-72 -63 -144.5 -91.5t-162.5 -28.5q-136 0 -241.5 65.5t-163.5 182t-58 264.5q0 147 60.5 265t171 185.5t257.5 67.5q135 0 248 -66v47h307v-690q0 -51 10.5 -71.5t38.5 -20.5q33 0 56.5 12.5t29.5 16.5v-195q-114 -63 -221 -63z
M637 776q-115 0 -179.5 -75.5t-64.5 -204.5q0 -134 60.5 -206.5t164.5 -72.5q101 0 191 76v426q-37 26 -82 41.5t-90 15.5z" />
    <glyph glyph-name="beta" unicode="&#x3b2;" horiz-adv-x="1217" 
d="M674 -18q-144 0 -248 59v-514h-307v1407q0 242 125 361.5t362 119.5q225 0 346 -103.5t121 -267.5q0 -81 -48 -159t-136 -115q127 -39 191.5 -131t64.5 -233q0 -195 -127 -309.5t-344 -114.5zM623 219q94 0 148 58.5t54 154.5q0 103 -62.5 158t-178.5 57v213h10
q82 0 127 41t45 121q0 68 -45 112t-115 44q-94 0 -137 -58.5t-43 -185.5v-516q0 -99 52 -149t145 -50z" />
    <glyph glyph-name="gamma" unicode="&#x3b3;" horiz-adv-x="1169" 
d="M197 1016q106 0 175.5 -48t125 -166t118.5 -341q37 121 100.5 270.5t121.5 261.5h331q-127 -219 -245.5 -497.5t-184.5 -503.5q35 -117 35 -209q0 -119 -47 -186.5t-127 -67.5q-72 0 -116 61.5t-44 173.5q0 50 12.5 115.5t28.5 112.5q-88 313 -151.5 480t-115.5 232.5
t-112 65.5q-32 0 -69 -25l-47 205q100 66 211 66z" />
    <glyph glyph-name="delta" unicode="&#x3b4;" horiz-adv-x="1255" 
d="M637 1198q-145 0 -145 -51q0 -23 18 -40t80.5 -46t204.5 -80q200 -74 294.5 -196.5t94.5 -297.5q0 -145 -67.5 -259.5t-194.5 -180t-297 -65.5q-172 0 -298 67.5t-190.5 180t-64.5 241.5q0 158 92 275.5t258 150.5q-117 51 -169 116.5t-52 135.5q0 123 109.5 194.5
t326.5 71.5q213 0 410 -82l-80 -209q-176 74 -330 74zM864 487q0 121 -64.5 189.5t-174.5 68.5q-103 0 -167.5 -72.5t-64.5 -187.5q0 -118 63.5 -192t170.5 -74q104 0 170.5 74t66.5 194z" />
    <glyph glyph-name="epsilon" unicode="&#x3b5;" horiz-adv-x="993" 
d="M539 -18q-226 0 -342.5 77.5t-116.5 214.5q0 93 55 154t162 88v8q-88 23 -137 80.5t-49 130.5q0 127 106.5 202t312.5 75q99 0 194 -16.5t171 -47.5v-211q-70 29 -143.5 44.5t-135.5 15.5q-92 0 -141 -23.5t-49 -68.5q0 -58 47 -81.5t148 -23.5h106v-201h-121
q-205 0 -205 -94q0 -59 52.5 -83.5t162.5 -24.5q76 0 148 16t158 51v-221q-82 -31 -182.5 -46t-200.5 -15z" />
    <glyph glyph-name="zeta" unicode="&#x3b6;" horiz-adv-x="1044" 
d="M508 -225q78 0 122 31.5t44 84.5q0 54 -41 79.5t-137 27.5q-195 6 -305.5 108.5t-110.5 313.5q0 301 326 686q-97 27 -167.5 69t-125.5 103l159 170q86 -72 172 -111t166 -43q86 54 171 83.5t151 29.5q78 0 119 -30.5t41 -84.5q0 -61 -53.5 -113.5t-149.5 -83t-223 -30.5
q-127 -145 -196 -309t-69 -291q0 -107 40 -151t157 -50q176 -10 278.5 -95t102.5 -255q0 -107 -52.5 -195t-157.5 -140t-257 -52q-127 0 -209 22l70 238q55 -12 135 -12z" />
    <glyph glyph-name="eta" unicode="&#x3b7;" horiz-adv-x="1221" 
d="M98 764q-24 0 -61 -21v215q51 25 105.5 39.5t99.5 14.5q166 0 200 -166q140 166 328 166q164 0 253 -106.5t89 -295.5v-1079h-307v1034q0 105 -37 155t-115 50q-53 0 -103 -35t-87 -98v-637h-307v676q0 41 -15.5 64.5t-42.5 23.5z" />
    <glyph glyph-name="theta" unicode="&#x3b8;" horiz-adv-x="1212" 
d="M72 692q0 223 65.5 387t185 250t283.5 86q158 0 279 -80t188.5 -239.5t67.5 -388.5q0 -228 -64.5 -390.5t-185.5 -247.5t-287 -85q-160 0 -279.5 81.5t-186 241.5t-66.5 385zM604 1176q-102 0 -154.5 -87.5t-62.5 -277.5h438q-8 188 -61 276.5t-160 88.5zM606 223
q107 0 160 90t59 283h-438q8 -195 61.5 -284t157.5 -89z" />
    <glyph glyph-name="iota" unicode="&#x3b9;" horiz-adv-x="582" 
d="M426 291q0 -43 14.5 -61.5t46.5 -18.5q39 0 93 27v-195q-121 -61 -261 -61q-108 0 -154 61t-46 195v755h307v-702z" />
    <glyph glyph-name="kappa" unicode="&#x3ba;" horiz-adv-x="1237" 
d="M426 522l258 303q88 107 163 147t171 40q80 0 170 -29v-244q-53 25 -107 25q-90 0 -166 -90l-133 -154l455 -520h-379l-432 502v-502h-307v993h307v-471z" />
    <glyph glyph-name="lambda" unicode="&#x3bb;" horiz-adv-x="1122" 
d="M178 1180l117 241q115 -14 188.5 -73.5t132.5 -190.5l318 -721q53 -121 89 -164t99 -59l-114 -231q-115 6 -191 83.5t-147 241.5l-121 277l-244 -584h-305l397 918q-43 100 -68.5 146t-60.5 76.5t-90 39.5z" />
    <glyph glyph-name="uni03BC" unicode="&#x3bc;" horiz-adv-x="1231" 
d="M424 356q29 -65 74 -98t94 -33q84 0 133 46t49 141v577h305v-698q0 -47 14.5 -66.5t45.5 -19.5q30 0 65 20v-198q-37 -23 -90 -34t-96 -11q-156 0 -203 131q-72 -131 -201 -131q-63 0 -107 30.5t-83 96.5v-582h-305v1462h305v-633z" />
    <glyph glyph-name="nu" unicode="&#x3bd;" horiz-adv-x="1133" 
d="M582 362q86 105 136 215.5t50 192.5q0 59 -28.5 106.5t-77.5 77.5l311 58q49 -29 79.5 -88.5t30.5 -130.5q0 -148 -124.5 -362t-340.5 -437h-186l-432 999h328z" />
    <glyph glyph-name="xi" unicode="&#x3be;" horiz-adv-x="1022" 
d="M518 -225q72 0 113 30.5t41 81.5q0 47 -40 74t-136 33q-420 29 -420 383q0 141 74.5 251.5t222.5 170.5q-64 28 -94.5 75.5t-30.5 102.5q0 100 86 178q-160 49 -244 143l158 170q61 -55 142 -93t149 -48q159 88 313 88q72 0 122 -30.5t50 -96.5q0 -69 -81 -121.5
t-214 -60.5q-53 -4 -84 -4l-63 2q-29 -19 -43.5 -45.5t-14.5 -54.5q0 -56 49.5 -79.5t171.5 -23.5h140v-225h-123q-367 0 -367 -248q0 -78 47 -119t158 -49q184 -14 281.5 -102t97.5 -244q0 -107 -50 -195t-154.5 -140t-260.5 -52q-125 0 -207 27l72 235q78 -14 139 -14z
" />
    <glyph glyph-name="omicron" unicode="&#x3bf;" horiz-adv-x="1255" 
d="M1184 498q0 -156 -70 -272.5t-196.5 -180t-290.5 -63.5q-176 0 -301 68.5t-189.5 185t-64.5 260.5q0 149 65.5 266t191.5 183.5t300 66.5q172 0 297 -65.5t191.5 -182.5t66.5 -266zM393 498q0 -129 63.5 -204t172.5 -75q108 0 171.5 76t63.5 203q0 131 -65.5 203.5
t-173.5 72.5q-107 0 -169.5 -73.5t-62.5 -202.5z" />
    <glyph glyph-name="pi" unicode="&#x3c0;" horiz-adv-x="1411" 
d="M27 694v242q43 27 120.5 40t145.5 13h1091v-246h-196v-743h-305v743h-351v-743h-305v743q-96 -4 -200 -49z" />
    <glyph glyph-name="rho" unicode="&#x3c1;" horiz-adv-x="1280" 
d="M664 1014q155 0 280 -63.5t194.5 -180.5t69.5 -266q0 -156 -67.5 -273.5t-185 -182t-263.5 -64.5q-84 0 -148.5 22.5t-127.5 79.5v-553h-307v938q0 248 140 395.5t415 147.5zM887 500q0 127 -63.5 200.5t-176.5 73.5q-106 0 -168.5 -78t-62.5 -202q0 -125 59.5 -199
t173.5 -74q113 0 175.5 70.5t62.5 208.5z" />
    <glyph glyph-name="sigma1" unicode="&#x3c2;" horiz-adv-x="1049" 
d="M506 -225q82 0 124 34.5t42 92.5q0 84 -140 96q-460 53 -460 461q0 127 56 254t187 214t342 87q95 0 170.5 -16.5t167.5 -55.5l-75 -244q-125 62 -258 62q-123 0 -196 -80t-73 -221q0 -86 54.5 -136.5t191.5 -70.5q158 -21 248 -99.5t90 -246.5q0 -107 -59.5 -194
t-168 -136t-249.5 -49q-105 0 -197 20l70 240q63 -12 133 -12z" />
    <glyph glyph-name="sigma" unicode="&#x3c3;" horiz-adv-x="1343" 
d="M1073 756q111 -117 111 -291q0 -131 -66.5 -241.5t-192.5 -176t-296 -65.5q-174 0 -299 65.5t-191.5 180t-66.5 261.5q0 148 67.5 261.5t195.5 178t300 64.5h682v-237h-244zM393 489q0 -124 61.5 -197t174.5 -73q104 0 169.5 70.5t65.5 202.5q0 120 -62.5 192t-174.5 72
q-109 0 -171.5 -71t-62.5 -196z" />
    <glyph glyph-name="tau" unicode="&#x3c4;" horiz-adv-x="1016" 
d="M27 692v246q102 55 278 55h684v-245h-327v-748h-308v748q-129 0 -198.5 -11.5t-128.5 -44.5z" />
    <glyph glyph-name="upsilon" unicode="&#x3c5;" horiz-adv-x="1182" 
d="M416 430q0 -96 42 -149.5t130 -53.5q178 0 178 205v561h307v-544q0 -467 -479 -467q-258 0 -371.5 111.5t-113.5 342.5v557h307v-563z" />
    <glyph glyph-name="phi" unicode="&#x3c6;" horiz-adv-x="1575" 
d="M72 496q0 139 68.5 248.5t195.5 173t297 71.5v408h307v-408q172 -6 299 -69.5t194.5 -173t67.5 -252.5q0 -220 -150.5 -351t-410.5 -143v-469h-307v469q-262 8 -411.5 141t-149.5 355zM393 500q0 -119 67.5 -194t172.5 -83v541q-107 -8 -173.5 -80t-66.5 -184zM1182 496
q0 116 -69 190t-173 78v-541q107 10 174.5 81t67.5 192z" />
    <glyph glyph-name="chi" unicode="&#x3c7;" horiz-adv-x="1090" 
d="M16 774l90 240q132 -13 212.5 -75t160.5 -212l84 -149l211 415h305l-364 -682l211 -372q49 -95 92 -133.5t106 -49.5l-112 -241q-88 0 -150.5 38.5t-106.5 99t-100 167.5l-114 209l-244 -496h-303l395 768l-139 244q-57 100 -87 141t-60.5 60.5t-86.5 27.5z" />
    <glyph glyph-name="psi" unicode="&#x3c8;" horiz-adv-x="1489" 
d="M109 594v399h307v-411q0 -168 42 -254t134 -97v1166h307v-1166q90 19 133 94.5t43 235.5v432h305v-403q0 -260 -109.5 -415t-371.5 -181v-463h-307v463q-170 12 -275.5 75.5t-156.5 190.5t-51 334z" />
    <glyph glyph-name="omega" unicode="&#x3c9;" horiz-adv-x="1720" 
d="M1014 483q0 -131 42 -196.5t120 -65.5q73 0 111 76t38 197q0 104 -34 231t-107 268h319q62 -98 99.5 -232t37.5 -255q0 -242 -115.5 -382t-330.5 -140q-240 0 -334 209q-55 -107 -137 -158t-201 -51q-215 0 -328.5 137t-113.5 385q0 110 36 237t101 250h320
q-78 -157 -110 -276t-32 -228q0 -118 37 -193t107 -75q168 0 168 262v162h307v-162z" />
    <glyph glyph-name="iotadieresis" unicode="&#x3ca;" horiz-adv-x="582" 
d="M426 291q0 -43 14.5 -61.5t46.5 -18.5q39 0 93 27v-195q-121 -61 -261 -61q-108 0 -154 61t-46 195v755h307v-702zM54 1431q57 0 98 -41t41 -98q0 -59 -41 -100t-98 -41t-99 42t-42 99t42 98t99 41zM488 1431q57 0 98 -42t41 -97q0 -59 -41 -100t-98 -41t-99 42t-42 99
q0 55 42 97t99 42z" />
    <glyph glyph-name="upsilondieresis" unicode="&#x3cb;" horiz-adv-x="1182" 
d="M416 430q0 -96 42 -149.5t130 -53.5q178 0 178 205v561h307v-544q0 -467 -479 -467q-258 0 -371.5 111.5t-113.5 342.5v557h307v-563zM379 1450q57 0 98 -41t41 -98q0 -59 -41 -100t-98 -41t-99 42t-42 99t42 98t99 41zM813 1450q57 0 98 -42t41 -97q0 -59 -41 -100
t-98 -41t-99 42t-42 99q0 55 42 97t99 42z" />
    <glyph glyph-name="omicrontonos" unicode="&#x3cc;" horiz-adv-x="1255" 
d="M1184 498q0 -156 -70 -272.5t-196.5 -180t-290.5 -63.5q-176 0 -301 68.5t-189.5 185t-64.5 260.5q0 149 65.5 266t191.5 183.5t300 66.5q172 0 297 -65.5t191.5 -182.5t66.5 -266zM393 498q0 -129 63.5 -204t172.5 -75q108 0 171.5 76t63.5 203q0 131 -65.5 203.5
t-173.5 72.5q-107 0 -169.5 -73.5t-62.5 -202.5zM686 1122h-190l98 301h332z" />
    <glyph glyph-name="upsilontonos" unicode="&#x3cd;" horiz-adv-x="1182" 
d="M416 430q0 -96 42 -149.5t130 -53.5q178 0 178 205v561h307v-544q0 -467 -479 -467q-258 0 -371.5 111.5t-113.5 342.5v557h307v-563zM653 1122h-190l98 301h332z" />
    <glyph glyph-name="omegatonos" unicode="&#x3ce;" horiz-adv-x="1720" 
d="M1014 483q0 -131 42 -196.5t120 -65.5q73 0 111 76t38 197q0 104 -34 231t-107 268h319q62 -98 99.5 -232t37.5 -255q0 -242 -115.5 -382t-330.5 -140q-240 0 -334 209q-55 -107 -137 -158t-201 -51q-215 0 -328.5 137t-113.5 385q0 110 36 237t101 250h320
q-78 -157 -110 -276t-32 -228q0 -118 37 -193t107 -75q168 0 168 262v162h307v-162zM921 1122h-190l98 301h332z" />
    <glyph glyph-name="uni0401" unicode="&#x401;" horiz-adv-x="1229" 
d="M502 1147v-307h577v-250h-577v-340h620v-250h-972v1397h956v-250h-604zM414 1821q57 0 98 -42t41 -100q0 -57 -41 -99t-98 -42t-99 42t-42 99q0 58 42 100t99 42zM848 1821q57 0 98 -42t41 -100q0 -57 -41 -99t-98 -42t-99 42t-42 99q0 58 42 100t99 42z" />
    <glyph glyph-name="uni0402" unicode="&#x402;" horiz-adv-x="1745" 
d="M37 1397h1302v-291h-475v-260q54 26 129.5 43.5t163.5 17.5q248 0 382 -114.5t134 -335.5q0 -224 -131 -349.5t-393 -125.5q-84 0 -162 16v258q57 -14 129 -14q92 0 145.5 54t53.5 159q0 100 -63.5 146t-174.5 46q-55 0 -117.5 -15.5t-95.5 -37.5v-594h-352v1106h-475
v291z" />
    <glyph glyph-name="uni0403" unicode="&#x403;" horiz-adv-x="1176" 
d="M1143 1110h-623v-1110h-352v1397h975v-287zM658 1509h-189l195 336h367z" />
    <glyph glyph-name="uni0404" unicode="&#x404;" horiz-adv-x="1499" 
d="M465 565q39 -141 163 -221t304 -80q106 0 214.5 33t250.5 106v-301q-133 -63 -254 -91.5t-269 -28.5q-247 0 -425.5 97t-269.5 260t-91 353q0 197 95.5 362t277.5 263t430 98q131 0 245.5 -23.5t237.5 -74.5v-309q-233 125 -452 125q-172 0 -294 -78t-163 -219h690v-271
h-690z" />
    <glyph glyph-name="uni0405" unicode="&#x405;" horiz-adv-x="1141" 
d="M993 1305v-299q-198 155 -387 155q-82 0 -124 -33.5t-42 -89.5q0 -51 43 -92t168 -104q140 -72 220.5 -128.5t130 -135t49.5 -191.5q0 -121 -61.5 -213t-173 -142t-253.5 -50q-225 0 -454 116v316q210 -168 409 -168q88 0 134 36.5t46 90.5q0 39 -17 67.5t-70.5 66.5
t-164.5 91q-102 53 -173.5 103.5t-123 132t-51.5 194.5q0 109 55.5 197t162 139t255.5 51q117 0 227.5 -29.5t194.5 -80.5z" />
    <glyph glyph-name="uni0406" unicode="&#x406;" horiz-adv-x="651" 
d="M150 0v1397h352v-1397h-352z" />
    <glyph glyph-name="uni0407" unicode="&#x407;" horiz-adv-x="651" 
d="M150 0v1397h352v-1397h-352zM112 1821q57 0 98 -42t41 -100q0 -57 -41 -99t-98 -42t-99 42t-42 99q0 58 42 100t99 42zM546 1821q57 0 98 -42t41 -100q0 -57 -41 -99t-98 -42t-99 42t-42 99q0 58 42 100t99 42z" />
    <glyph glyph-name="uni0408" unicode="&#x408;" horiz-adv-x="672" 
d="M80 -457q-55 0 -125 13l-55 292q127 0 181 20.5t71.5 81t17.5 197.5v1250h352v-1284q0 -181 -34.5 -303.5t-132 -194.5t-275.5 -72z" />
    <glyph glyph-name="uni0409" unicode="&#x409;" horiz-adv-x="1991" 
d="M340 0h-340l565 1407h299l205 -516h297q262 0 414.5 -119t152.5 -332q0 -118 -60.5 -218.5t-181 -161t-294.5 -60.5h-344l-357 999h-2zM1575 446q0 89 -57.5 137t-155.5 48h-186l147 -369h39q100 0 156.5 49t56.5 135z" />
    <glyph glyph-name="uni040A" unicode="&#x40a;" horiz-adv-x="2210" 
d="M1030 874v523h352v-523h203q262 0 414.5 -117.5t152.5 -324.5q0 -117 -60 -215t-181 -157.5t-297 -59.5h-584v612h-528v-612h-352v1397h352v-523h528zM1792 436q0 84 -57.5 130t-153.5 46h-199v-350h199q100 0 155.5 46t55.5 128z" />
    <glyph glyph-name="uni040B" unicode="&#x40b;" horiz-adv-x="1769" 
d="M860 1106v-238q127 41 297 41q285 0 409 -138t124 -425v-346h-353v348q0 107 -22.5 168.5t-78.5 90t-157 28.5q-127 0 -219 -33v-602h-352v1106h-471v291h1296v-291h-473z" />
    <glyph glyph-name="uni040C" unicode="&#x40c;" horiz-adv-x="1442" 
d="M502 854h20q76 0 121 18.5t83 69.5t89 158l12 24q68 146 152 213.5t240 67.5q41 0 124 -8l-6 -264h-14q-92 0 -137 -36t-84 -126l-10 -25q-35 -86 -84.5 -142t-102.5 -85q109 -41 181.5 -129t162.5 -271l162 -319h-389l-150 311q-55 119 -108 180.5t-108.5 83
t-135.5 21.5h-18v-596h-352v1397h352v-543zM748 1509h-189l195 336h367z" />
    <glyph glyph-name="uni040E" unicode="&#x40e;" horiz-adv-x="1522" 
d="M438 -137q78 0 126 41t71 108l-615 1385h369l414 -985l344 985h358l-526 -1329q-94 -242 -213 -352.5t-279 -110.5q-139 0 -256 55v268q31 -28 85.5 -46.5t121.5 -18.5zM776 1700q70 0 114 36t56 95h193q-21 -160 -117 -248t-250 -88q-158 0 -256 88t-113 248h193
q29 -131 180 -131z" />
    <glyph glyph-name="uni040F" unicode="&#x40f;" horiz-adv-x="1669" 
d="M502 291h665v1106h353v-1397h-516v-287h-338v287h-516v1397h352v-1106z" />
    <glyph glyph-name="uni0410" unicode="&#x410;" horiz-adv-x="1589" 
d="M1229 0l-135 322h-600l-134 -322h-360l608 1399h367l614 -1399h-360zM793 1055l-207 -508h415z" />
    <glyph glyph-name="uni0411" unicode="&#x411;" horiz-adv-x="1419" 
d="M1227 1147h-707v-268h271q172 0 299 -54.5t193.5 -154t66.5 -232.5q0 -125 -62.5 -224t-181.5 -156.5t-285 -57.5h-653v1397h1059v-250zM991 442q0 90 -66.5 139.5t-176.5 49.5h-228v-381h228q112 0 177.5 52t65.5 140z" />
    <glyph glyph-name="uni0412" unicode="&#x412;" horiz-adv-x="1399" 
d="M1219 1059q0 -103 -54.5 -184.5t-146.5 -118.5q153 -47 228 -141.5t75 -223.5q0 -215 -151.5 -303t-413.5 -88h-606v1397h593q222 0 349 -91.5t127 -246.5zM883 1001q0 93 -52.5 136t-164.5 43h-164v-363h149q115 0 173.5 44t58.5 140zM967 408q0 194 -281 194h-184v-385
h184q281 0 281 191z" />
    <glyph glyph-name="uni0413" unicode="&#x413;" horiz-adv-x="1176" 
d="M1143 1110h-623v-1110h-352v1397h975v-287z" />
    <glyph glyph-name="uni0414" unicode="&#x414;" horiz-adv-x="1702" 
d="M659 1399h359l477 -1131h178v-555h-338v287h-968v-287h-340v555h180zM545 260h608l-313 807z" />
    <glyph glyph-name="uni0415" unicode="&#x415;" horiz-adv-x="1229" 
d="M502 1147v-307h577v-250h-577v-340h620v-250h-972v1397h956v-250h-604z" />
    <glyph glyph-name="uni0416" unicode="&#x416;" horiz-adv-x="2161" 
d="M535 719q-105 55 -185 227l-22 51q-35 76 -79 106t-143 30l-8 264q60 8 123 8q154 0 236 -62.5t145 -197.5l33 -72q63 -131 116.5 -175t131.5 -44h22v543h352v-543h23q59 0 100 25.5t75 78t85 156.5l31 64q57 114 142 170.5t226 56.5q66 0 123 -8l-6 -264q-88 0 -133 -23
t-70 -74l-36 -71q-60 -117 -100 -168.5t-91 -77.5q98 -35 169 -120t155 -247l182 -352h-391l-144 299q-79 166 -156 231.5t-175 65.5h-9v-596h-352v596h-6q-104 0 -179 -65.5t-151 -223.5l-149 -307h-391l170 332q94 180 166.5 266t169.5 121z" />
    <glyph glyph-name="uni0417" unicode="&#x417;" horiz-adv-x="1268" 
d="M518 242q146 0 215.5 42t69.5 132q0 82 -68.5 124t-228.5 42h-144v247h166q127 0 198 46.5t71 125.5q0 78 -72 116t-205 38q-88 0 -205.5 -27.5t-203.5 -72.5v272q227 88 485 88t398.5 -95t140.5 -261q0 -109 -60.5 -190t-177.5 -124q135 -53 198.5 -140t63.5 -212
q0 -188 -154.5 -299.5t-445.5 -111.5q-110 0 -232 24.5t-225 69.5v274q101 -53 210.5 -80.5t205.5 -27.5z" />
    <glyph glyph-name="uni0418" unicode="&#x418;" horiz-adv-x="1696" 
d="M502 537l829 860h215v-1397h-352v838l-834 -844h-210v1403h352v-860z" />
    <glyph glyph-name="uni0419" unicode="&#x419;" horiz-adv-x="1696" 
d="M502 537l829 860h215v-1397h-352v838l-834 -844h-210v1403h352v-860zM860 1700q70 0 114 36t56 95h193q-21 -160 -117 -248t-250 -88q-158 0 -256 88t-113 248h193q29 -131 180 -131z" />
    <glyph glyph-name="uni041A" unicode="&#x41a;" horiz-adv-x="1442" 
d="M502 854h20q76 0 121 18.5t83 69.5t89 158l12 24q68 146 152 213.5t240 67.5q41 0 124 -8l-6 -264h-14q-92 0 -137 -36t-84 -126l-10 -25q-35 -86 -84.5 -142t-102.5 -85q109 -41 181.5 -129t162.5 -271l162 -319h-389l-150 311q-55 119 -108 180.5t-108.5 83
t-135.5 21.5h-18v-596h-352v1397h352v-543z" />
    <glyph glyph-name="uni041B" unicode="&#x41b;" horiz-adv-x="1522" 
d="M1522 0h-375l-412 1006l-395 -1006h-340l606 1407h299z" />
    <glyph glyph-name="uni041C" unicode="&#x41c;" horiz-adv-x="1817" 
d="M1348 1397h319v-1397h-352v893l-393 -490h-33l-395 490v-893h-344v1397h321l438 -539z" />
    <glyph glyph-name="uni041D" unicode="&#x41d;" horiz-adv-x="1679" 
d="M1178 856v541h352v-1397h-352v563h-676v-563h-352v1397h352v-541h676z" />
    <glyph glyph-name="uni041E" unicode="&#x41e;" horiz-adv-x="1726" 
d="M1637 698q0 -198 -92 -361t-268 -259t-418 -96q-244 0 -418 97t-264 260t-90 357q0 185 84 348.5t259 267t435 103.5q236 0 411 -94t268 -258t93 -365zM448 696q0 -118 52 -211.5t146 -144.5t213 -51q187 0 302.5 110.5t115.5 300.5q0 111 -49 204t-143.5 148.5
t-223.5 55.5q-125 0 -219 -52t-144 -145.5t-50 -214.5z" />
    <glyph glyph-name="uni041F" unicode="&#x41f;" horiz-adv-x="1671" 
d="M1522 0h-353v1106h-667v-1106h-352v1397h1372v-1397z" />
    <glyph glyph-name="uni0420" unicode="&#x420;" horiz-adv-x="1311" 
d="M1253 971q0 -119 -55 -214t-166.5 -151.5t-275.5 -56.5h-254v-549h-352v1397h589q242 0 378 -111.5t136 -314.5zM893 971q0 98 -54.5 142t-174.5 44h-162v-369h176q215 0 215 183z" />
    <glyph glyph-name="uni0421" unicode="&#x421;" horiz-adv-x="1499" 
d="M1389 1307v-324q-121 76 -231.5 113t-229.5 37q-152 0 -260.5 -60.5t-163.5 -161t-55 -219.5q0 -117 56 -215t162.5 -155.5t252.5 -57.5q245 0 477 154v-314q-228 -122 -535 -122q-237 0 -412.5 94t-268.5 257t-93 365q0 217 100.5 380t278.5 250t401 87q258 0 521 -108z
" />
    <glyph glyph-name="uni0422" unicode="&#x422;" horiz-adv-x="1425" 
d="M887 1106v-1106h-352v1106h-498v291h1352v-291h-502z" />
    <glyph glyph-name="uni0423" unicode="&#x423;" horiz-adv-x="1522" 
d="M438 -137q78 0 126 41t71 108l-615 1385h369l414 -985l344 985h358l-526 -1329q-94 -242 -213 -352.5t-279 -110.5q-139 0 -256 55v268q31 -28 85.5 -46.5t121.5 -18.5z" />
    <glyph glyph-name="uni0424" unicode="&#x424;" horiz-adv-x="1864" 
d="M88 707q0 243 178 388.5t496 157.5v162h338v-162q319 -12 497.5 -156.5t178.5 -387.5q0 -254 -177.5 -402.5t-498.5 -159.5v-165h-338v165q-205 7 -356.5 76.5t-234.5 193.5t-83 290zM442 700q0 -276 320 -297v594q-156 -4 -238 -78.5t-82 -218.5zM1421 698
q0 142 -79.5 219.5t-241.5 79.5v-594q157 3 239 81.5t82 213.5z" />
    <glyph glyph-name="uni0425" unicode="&#x425;" horiz-adv-x="1659" 
d="M557 1311q141 -176 264 -334q105 145 330 420h438l-542 -672l604 -725h-449l-381 463q-88 -117 -370 -463h-443l592 725l-559 672h446z" />
    <glyph glyph-name="uni0426" unicode="&#x426;" horiz-adv-x="1757" 
d="M502 291h649v1106h352v-1106h228v-578h-338v287h-1243v1397h352v-1106z" />
    <glyph glyph-name="uni0427" unicode="&#x427;" horiz-adv-x="1434" 
d="M629 475q-295 0 -422 142.5t-127 447.5v332h352v-361q0 -106 24.5 -167.5t83 -90t162.5 -28.5q132 0 230 30v617h352v-1397h-352v514q-135 -39 -303 -39z" />
    <glyph glyph-name="uni0428" unicode="&#x428;" horiz-adv-x="2241" 
d="M502 291h442v1106h352v-1106h443v1106h352v-1397h-1941v1397h352v-1106z" />
    <glyph glyph-name="uni0429" unicode="&#x429;" horiz-adv-x="2345" 
d="M502 291h442v1106h352v-1106h443v1106h352v-1106h227v-578h-338v287h-1830v1397h352v-1106z" />
    <glyph glyph-name="uni042A" unicode="&#x42a;" horiz-adv-x="1583" 
d="M37 1397h706v-506h215q185 0 312 -59.5t191.5 -162t64.5 -231.5q0 -119 -59.5 -218t-180.5 -159.5t-295 -60.5h-600v1133h-354v264zM1165 446q0 89 -57 137t-156 48h-209v-369h209q101 0 157 49t56 135z" />
    <glyph glyph-name="uni042B" unicode="&#x42b;" horiz-adv-x="1968" 
d="M502 891h194q262 0 415 -119t153 -332q0 -118 -60.5 -218.5t-181.5 -161t-295 -60.5h-577v1397h352v-506zM1819 0h-353v1397h353v-1397zM905 446q0 89 -57 137t-156 48h-190v-369h190q101 0 157 49t56 135z" />
    <glyph glyph-name="uni042C" unicode="&#x42c;" horiz-adv-x="1350" 
d="M502 891h223q262 0 414.5 -119t152.5 -332q0 -118 -60.5 -218.5t-181 -161t-296.5 -60.5h-604v1397h352v-506zM932 446q0 89 -57.5 137t-153.5 48h-219v-369h219q100 0 155.5 49t55.5 135z" />
    <glyph glyph-name="uni042D" unicode="&#x42d;" horiz-adv-x="1499" 
d="M578 1133q-220 0 -453 -125v309q123 51 237.5 74.5t245.5 23.5q248 0 430.5 -98t277.5 -263t95 -362q0 -190 -91 -353t-269.5 -260t-425.5 -97q-148 0 -268.5 28.5t-254.5 91.5v301q146 -73 252.5 -106t212.5 -33q181 0 304.5 80t162.5 221h-690v271h690
q-39 139 -160.5 218t-295.5 79z" />
    <glyph glyph-name="uni042E" unicode="&#x42e;" horiz-adv-x="2296" 
d="M2208 698q0 -198 -89 -361t-261 -259t-410 -96q-209 0 -366.5 77.5t-251 210.5t-117.5 301h-211v-571h-352v1397h352v-549h215q28 156 118.5 284t246 205.5t372.5 77.5q229 0 400 -94t262.5 -257t91.5 -366zM1055 696q0 -118 50 -211.5t140 -144.5t205 -51q129 0 219 57
t135 151.5t45 202.5q0 111 -47 204t-137 148.5t-213 55.5q-125 0 -214 -55.5t-136 -148.5t-47 -208z" />
    <glyph glyph-name="uni042F" unicode="&#x42f;" horiz-adv-x="1423" 
d="M166 963q0 196 129 315t385 119h594v-1397h-352v524h-66q-68 0 -113 -15t-90 -63.5t-98 -146.5l-160 -299h-383l178 334q111 203 248 280q-135 43 -203.5 132.5t-68.5 216.5zM526 958q0 -96 64.5 -144t175.5 -48h156v391h-166q-117 0 -173.5 -53t-56.5 -146z" />
    <glyph glyph-name="uni0430" unicode="&#x430;" horiz-adv-x="1077" 
d="M936 698v-409q0 -39 9 -61.5t36 -22.5q35 0 92 35v-189q-80 -37 -143.5 -53t-126.5 -16q-66 0 -106 25.5t-54 78.5q-121 -104 -293 -104q-133 0 -207.5 68.5t-74.5 180.5q0 99 58 163.5t169 111.5t334 119v22q0 84 -41 118t-121 34q-98 0 -193.5 -46t-175.5 -132v256
q170 135 426 135q199 0 305.5 -83t106.5 -231zM479 158q66 0 150 71v252q-99 -41 -149 -66.5t-79.5 -60.5t-29.5 -84q0 -51 30.5 -81.5t77.5 -30.5z" />
    <glyph glyph-name="uni0431" unicode="&#x431;" horiz-adv-x="1255" 
d="M387 864q59 43 135 67.5t156 24.5q147 0 262 -59t179.5 -167.5t64.5 -250.5q0 -147 -67.5 -260t-193.5 -175t-296 -62q-277 0 -416 158.5t-139 422.5q0 289 93 470t274.5 276.5t463.5 130.5l160 16v-248q-236 -26 -359.5 -55t-202.5 -95.5t-114 -193.5zM393 471
q0 -113 57.5 -182.5t176.5 -69.5q108 0 172.5 65.5t64.5 186.5q0 119 -64.5 183.5t-174.5 64.5q-109 0 -170.5 -66.5t-61.5 -181.5z" />
    <glyph glyph-name="uni0432" unicode="&#x432;" horiz-adv-x="1120" 
d="M995 739q0 -137 -131 -207q183 -57 183 -239q0 -141 -104.5 -217t-295.5 -76h-528v993h477q190 0 294.5 -59.5t104.5 -194.5zM688 694q0 109 -127 109h-135v-215h127q70 0 102.5 28.5t32.5 77.5zM729 307q0 49 -37 80t-106 31h-160v-225h154q79 0 114 27.5t35 86.5z" />
    <glyph glyph-name="uni0433" unicode="&#x433;" horiz-adv-x="897" 
d="M870 741h-444v-741h-307v989h751v-248z" />
    <glyph glyph-name="uni0434" unicode="&#x434;" horiz-adv-x="1321" 
d="M514 1001h301l346 -763h133v-525h-293v287h-682v-287h-292v525h133zM455 238h387l-191 438z" />
    <glyph glyph-name="uni0435" unicode="&#x435;" horiz-adv-x="1149" 
d="M1083 489v-57h-696q16 -106 97 -170.5t194 -64.5q184 0 381 104v-211q-187 -108 -441 -108q-163 0 -287 64.5t-191.5 182t-67.5 273.5q0 151 64.5 267t186 179.5t285.5 63.5q133 0 240.5 -59.5t171 -177.5t63.5 -286zM594 809q-92 0 -151.5 -61.5t-61.5 -159.5h412
q-2 102 -54.5 161.5t-144.5 59.5z" />
    <glyph glyph-name="uni0436" unicode="&#x436;" horiz-adv-x="1704" 
d="M510 270l-150 -270h-346l174 301q56 96 103 140t119 69q-56 20 -92.5 51t-63.5 80l-43 80q-21 37 -43.5 47t-71.5 12h-24l-6 217q61 11 114 11q84 0 135.5 -17.5t85 -54.5t70.5 -107l61 -112q35 -64 67 -84.5t99 -20.5v381h308v-381q67 0 102 23.5t66 81.5l57 112
q53 103 115.5 140t175.5 39q55 0 116 -11l-6 -217h-24q-52 -2 -74.5 -14t-42.5 -49l-41 -76q-29 -51 -65.5 -81t-90.5 -50q70 -25 120 -72t110 -151l164 -287h-345l-149 270q-31 56 -50.5 80.5t-50 37.5t-87.5 13v-401h-308v401q-57 0 -87.5 -13t-49 -37.5t-51.5 -80.5z" />
    <glyph glyph-name="uni0437" unicode="&#x437;" horiz-adv-x="1001" 
d="M387 197q111 0 162 25.5t51 84.5q0 51 -53 73.5t-152 22.5h-119v201h107q100 0 147.5 23.5t47.5 79.5q0 90 -191 90q-68 0 -154 -17.5t-151 -46.5v209q70 31 178.5 50.5t212.5 19.5q207 0 313.5 -70t106.5 -194q0 -72 -52.5 -130.5t-140.5 -82.5v-7q105 -26 162.5 -92.5
t57.5 -159.5q0 -139 -116 -216.5t-343 -77.5q-99 0 -206.5 17t-182.5 50v221q176 -73 315 -73z" />
    <glyph glyph-name="uni0438" unicode="&#x438;" horiz-adv-x="1251" 
d="M426 453l479 540h228v-993h-308v526l-495 -532h-211v999h307v-540z" />
    <glyph glyph-name="uni0439" unicode="&#x439;" horiz-adv-x="1251" 
d="M426 453l479 540h228v-993h-308v526l-495 -532h-211v999h307v-540zM629 1307q68 0 105.5 29.5t58.5 97.5h184q-10 -84 -54 -157t-120 -118t-174 -45q-141 0 -232.5 84t-117.5 236h182q16 -60 59 -93.5t109 -33.5z" />
    <glyph glyph-name="uni043A" unicode="&#x43a;" horiz-adv-x="1141" 
d="M426 612h12q64 0 103 25t67 84l72 135q43 82 105.5 117t172.5 35q62 0 117 -11l-6 -217h-25q-51 0 -71.5 -12t-40.5 -47l-45 -82q-29 -49 -65 -79t-89 -50q70 -25 118 -70t97 -131l178 -309h-346l-147 268q-41 74 -82 103.5t-113 29.5h-12v-401h-307v993h307v-381z" />
    <glyph glyph-name="uni043B" unicode="&#x43b;" horiz-adv-x="1092" 
d="M305 0h-305l449 999h204l439 -999h-330l-221 547z" />
    <glyph glyph-name="uni043C" unicode="&#x43c;" horiz-adv-x="1475" 
d="M737 461l336 532h246l78 -993h-303l-39 524l-318 -524l-319 524l-35 -524h-305l82 993h252z" />
    <glyph glyph-name="uni043D" unicode="&#x43d;" horiz-adv-x="1235" 
d="M426 629h385v364h305v-993h-305v391h-385v-391h-307v993h307v-364z" />
    <glyph glyph-name="uni043E" unicode="&#x43e;" horiz-adv-x="1255" 
d="M1184 498q0 -156 -70 -272.5t-196.5 -180t-290.5 -63.5q-176 0 -301 68.5t-189.5 185t-64.5 260.5q0 149 65.5 266t191.5 183.5t300 66.5q172 0 297 -65.5t191.5 -182.5t66.5 -266zM393 498q0 -129 63.5 -204t172.5 -75q108 0 171.5 76t63.5 203q0 131 -65.5 203.5
t-173.5 72.5q-107 0 -169.5 -73.5t-62.5 -202.5z" />
    <glyph glyph-name="uni043F" unicode="&#x43f;" horiz-adv-x="1235" 
d="M1116 0h-305v756h-385v-756h-307v993h997v-993z" />
    <glyph glyph-name="uni0440" unicode="&#x440;" horiz-adv-x="1227" 
d="M674 -18q-72 0 -127 14t-121 53v-518h-307v1462h444q275 0 432.5 -107.5t157.5 -396.5q0 -133 -54.5 -249.5t-163 -187t-261.5 -70.5zM606 219q101 0 164.5 73t63.5 187q0 135 -72 207t-195 72h-141v-482q39 -28 87 -42.5t93 -14.5z" />
    <glyph glyph-name="uni0441" unicode="&#x441;" horiz-adv-x="999" 
d="M918 952v-260q-136 68 -269 68q-110 0 -183 -72t-73 -188q0 -115 73 -189.5t193 -74.5q115 0 277 61v-254q-88 -33 -163 -47t-159 -14q-198 0 -320 82.5t-172 200.5t-50 231q0 118 52 237t173 199t311 80q82 0 152.5 -13.5t157.5 -46.5z" />
    <glyph glyph-name="uni0442" unicode="&#x442;" horiz-adv-x="1036" 
d="M27 993h983v-245h-338v-748h-307v748h-338v245z" />
    <glyph glyph-name="uni0443" unicode="&#x443;" horiz-adv-x="1102" 
d="M797 993h305l-680 -1462h-313l290 621l-393 841h334l221 -512z" />
    <glyph glyph-name="uni0444" unicode="&#x444;" horiz-adv-x="1606" 
d="M72 500q0 141 71.5 249.5t201.5 171t304 68.5v408h307v-408q172 -6 302.5 -68.5t202 -170t71.5 -252.5q0 -146 -71.5 -256.5t-202 -173t-302.5 -68.5v-475h-307v475q-268 10 -422.5 143t-154.5 357zM393 502q0 -123 72 -199t184 -80v543q-110 -4 -183 -77t-73 -187z
M1212 502q0 114 -72.5 187t-183.5 77v-543q113 4 184.5 80t71.5 199z" />
    <glyph glyph-name="uni0445" unicode="&#x445;" horiz-adv-x="1188" 
d="M811 993h344l-383 -477l410 -516h-381l-226 303l-219 -303h-344l391 494l-397 499h379l213 -288z" />
    <glyph glyph-name="uni0446" unicode="&#x446;" horiz-adv-x="1343" 
d="M426 238h377v755h307v-755h205v-525h-291v287h-905v993h307v-755z" />
    <glyph glyph-name="uni0447" unicode="&#x447;" horiz-adv-x="1182" 
d="M535 547q63 0 120.5 34.5t100.5 102.5v309h307v-993h-307v442q-129 -141 -330 -141q-358 0 -358 401v291h307v-250q0 -104 40 -150t120 -46z" />
    <glyph glyph-name="uni0448" unicode="&#x448;" horiz-adv-x="1749" 
d="M426 238h295v755h307v-755h295v755h307v-993h-1511v993h307v-755z" />
    <glyph glyph-name="uni0449" unicode="&#x449;" horiz-adv-x="1864" 
d="M426 238h295v755h307v-755h295v755h307v-755h205v-525h-291v287h-1425v993h307v-755z" />
    <glyph glyph-name="uni044A" unicode="&#x44a;" horiz-adv-x="1286" 
d="M27 993h606v-348h194q181 0 293.5 -83t112.5 -234q0 -150 -105.5 -239t-281.5 -89h-520v748h-299v245zM913 328q0 67 -48 101t-132 34h-100v-279h96q94 0 139 33t45 111z" />
    <glyph glyph-name="uni044B" unicode="&#x44b;" horiz-adv-x="1614" 
d="M426 645h186q189 0 303.5 -83t114.5 -234q0 -150 -108.5 -239t-292.5 -89h-510v993h307v-348zM709 326q0 69 -48.5 103t-134.5 34h-100v-281h98q92 0 138.5 33t46.5 111zM1190 0v993h307v-993h-307z" />
    <glyph glyph-name="uni044C" unicode="&#x44c;" horiz-adv-x="1083" 
d="M426 645h186q189 0 303.5 -83t114.5 -234q0 -150 -108.5 -239t-292.5 -89h-510v993h307v-348zM709 326q0 69 -48.5 103t-134.5 34h-100v-281h98q92 0 138.5 33t46.5 111z" />
    <glyph glyph-name="uni044D" unicode="&#x44d;" horiz-adv-x="999" 
d="M928 494q0 -119 -54.5 -236t-175 -196.5t-311.5 -79.5q-162 0 -321 57v221q159 -61 276 -61q102 0 167.5 52t88.5 148h-377v213h371q-23 84 -85.5 133.5t-156.5 49.5q-131 0 -268 -66v227q84 31 154.5 43.5t154.5 12.5q195 0 314.5 -80t171 -199t51.5 -239z" />
    <glyph glyph-name="uni044E" unicode="&#x44e;" horiz-adv-x="1745" 
d="M1673 500q0 -152 -66.5 -269.5t-192.5 -183t-300 -65.5q-223 0 -360.5 109.5t-167.5 297.5h-160v-389h-307v993h307v-368h162q37 178 174 282.5t352 104.5q172 0 299 -65.5t193.5 -181.5t66.5 -265zM881 500q0 -129 62.5 -205t170.5 -76q113 0 175.5 75t62.5 206
q0 127 -64.5 200.5t-175.5 73.5q-104 0 -167.5 -73.5t-63.5 -200.5z" />
    <glyph glyph-name="uni044F" unicode="&#x44f;" horiz-adv-x="1159" 
d="M330 418q-97 28 -152 97t-55 161q0 137 102.5 227t290.5 90h524v-993h-307v326h-76q-77 0 -123.5 -35t-80.5 -98l-107 -193h-340l129 231q41 78 86 121t109 66zM625 801q-88 0 -134.5 -39t-46.5 -105q0 -65 46.5 -102t130.5 -37h112v283h-108z" />
    <glyph glyph-name="uni0451" unicode="&#x451;" horiz-adv-x="1149" 
d="M1083 489v-57h-696q16 -106 97 -170.5t194 -64.5q184 0 381 104v-211q-187 -108 -441 -108q-163 0 -287 64.5t-191.5 182t-67.5 273.5q0 151 64.5 267t186 179.5t285.5 63.5q133 0 240.5 -59.5t171 -177.5t63.5 -286zM594 809q-92 0 -151.5 -61.5t-61.5 -159.5h412
q-2 102 -54.5 161.5t-144.5 59.5zM363 1425q57 0 98 -41t41 -98q0 -59 -41 -100t-98 -41t-99 42t-42 99t42 98t99 41zM797 1425q57 0 98 -42t41 -97q0 -59 -41 -100t-98 -41t-99 42t-42 99q0 55 42 97t99 42z" />
    <glyph glyph-name="uni0452" unicode="&#x452;" horiz-adv-x="1221" 
d="M788 -403q-112 0 -192 22v238q29 -15 84 -15q70 0 97.5 32t27.5 114v561q0 98 -40 149.5t-116 51.5q-61 0 -114.5 -36t-108.5 -116v-598h-307v1128h-142v152h142v117h307v-117h381v-152h-381v-294q72 81 154 119t182 38q182 0 266 -107.5t84 -291.5v-553
q0 -225 -73.5 -333.5t-250.5 -108.5z" />
    <glyph glyph-name="uni0453" unicode="&#x453;" horiz-adv-x="897" 
d="M870 741h-444v-741h-307v989h751v-248zM336 1124l162 336h338l-326 -336h-174z" />
    <glyph glyph-name="uni0454" unicode="&#x454;" horiz-adv-x="999" 
d="M918 956v-227q-134 66 -269 66q-92 0 -154.5 -49.5t-86.5 -133.5h372v-213h-379q23 -96 89.5 -148t168.5 -52q113 0 277 61v-221q-160 -57 -324 -57q-190 0 -311 79.5t-175 196.5t-54 236q0 120 51 239t172 199t313 80q84 0 155 -12.5t155 -43.5z" />
    <glyph glyph-name="uni0455" unicode="&#x455;" horiz-adv-x="930" 
d="M469 1012q86 0 172 -20.5t158 -59.5v-232q-88 56 -156 79.5t-131 23.5q-55 0 -83 -19.5t-28 -48.5q0 -22 11.5 -38.5t49.5 -40t120 -60.5q137 -61 202.5 -134t65.5 -179q0 -131 -99.5 -216t-281.5 -85q-88 0 -172 17t-195 64v240q172 -113 301 -113q66 0 102 20.5
t36 51.5q0 27 -15.5 48.5t-55.5 45t-124 64.5q-135 63 -194.5 137t-59.5 168q0 78 45 143.5t131 104.5t201 39z" />
    <glyph glyph-name="uni0456" unicode="&#x456;" horiz-adv-x="545" 
d="M410 1243q0 -57 -40 -98t-98 -41q-57 0 -98 41t-41 98t40 98t99 41q58 0 98 -41t40 -98zM119 0v993h307v-993h-307z" />
    <glyph glyph-name="uni0457" unicode="&#x457;" horiz-adv-x="545" 
d="M119 0v993h307v-993h-307zM58 1425q57 0 98 -41t41 -98q0 -59 -41 -100t-98 -41t-99 42t-42 99t42 98t99 41zM492 1425q57 0 98 -42t41 -97q0 -59 -41 -100t-98 -41t-99 42t-42 99q0 55 42 97t99 42z" />
    <glyph glyph-name="uni0458" unicode="&#x458;" horiz-adv-x="545" 
d="M410 1243q0 -59 -40 -99t-100 -40q-57 0 -97 42t-40 97t40 97t97 42q60 0 100 -41t40 -98zM96 -481l-125 233q82 27 115 77t33 157v1007h307v-1059q0 -182 -88 -286.5t-242 -128.5z" />
    <glyph glyph-name="uni0459" unicode="&#x459;" horiz-adv-x="1569" 
d="M0 0l449 999h204l154 -354h291q186 0 300.5 -83t114.5 -234q0 -150 -107.5 -239t-291.5 -89h-352l-221 547l-236 -547h-305zM1194 326q0 69 -48 103t-134 34h-121l121 -281h20q162 0 162 144z" />
    <glyph glyph-name="uni045A" unicode="&#x45a;" horiz-adv-x="1733" 
d="M426 633h344v360h307v-360h183q188 0 302.5 -81t114.5 -230q0 -148 -107.5 -235t-291.5 -87h-508v410h-344v-410h-307v993h307v-360zM1356 319q0 68 -48 100t-132 32h-99v-269h94q93 0 139 32t46 105z" />
    <glyph glyph-name="uni045B" unicode="&#x45b;" horiz-adv-x="1221" 
d="M1112 592v-592h-307v549q0 98 -40 149.5t-116 51.5q-61 0 -114.5 -36t-108.5 -116v-598h-307v1128h-142v152h142v117h307v-117h381v-152h-381v-294q72 81 154 119t182 38q182 0 266 -107.5t84 -291.5z" />
    <glyph glyph-name="uni045C" unicode="&#x45c;" horiz-adv-x="1141" 
d="M426 612h12q64 0 103 25t67 84l72 135q43 82 105.5 117t172.5 35q62 0 117 -11l-6 -217h-25q-51 0 -71.5 -12t-40.5 -47l-45 -82q-29 -49 -65 -79t-89 -50q70 -25 118 -70t97 -131l178 -309h-346l-147 268q-41 74 -82 103.5t-113 29.5h-12v-401h-307v993h307v-381z
M463 1124l162 336h338l-326 -336h-174z" />
    <glyph glyph-name="uni045E" unicode="&#x45e;" horiz-adv-x="1102" 
d="M797 993h305l-680 -1462h-313l290 621l-393 841h334l221 -512zM565 1307q68 0 105.5 29.5t58.5 97.5h184q-10 -84 -54 -157t-120 -118t-174 -45q-141 0 -232.5 84t-117.5 236h182q16 -60 59 -93.5t109 -33.5z" />
    <glyph glyph-name="uni045F" unicode="&#x45f;" horiz-adv-x="1235" 
d="M426 993v-755h385v755h305v-993h-352v-285h-291v285h-354v993h307z" />
    <glyph glyph-name="uni0490" unicode="&#x490;" horiz-adv-x="1180" 
d="M827 1634h314v-504h-621v-1130h-352v1397h659v237z" />
    <glyph glyph-name="uni0491" unicode="&#x491;" horiz-adv-x="907" 
d="M580 1227h290v-486h-444v-741h-307v989h461v238z" />
    <glyph glyph-name="uni0496" unicode="&#x496;" horiz-adv-x="2193" 
d="M535 719q-54 29 -98 83t-87 144q-33 74 -60.5 111t-69.5 56.5t-114 19.5l-8 264q60 8 123 8q111 0 182.5 -36t121.5 -103.5t106 -182.5q59 -131 113.5 -180t138.5 -49h22v543h338v-543h23q59 0 101 25.5t76 79t83 155.5q71 154 157 222.5t242 68.5q66 0 123 -8l-6 -264
q-90 0 -140.5 -31t-84.5 -113q-52 -106 -101 -173.5t-104 -96.5q96 -35 169.5 -119t168.5 -270l22 -39h195v-578h-338v287h-103l-143 299q-80 166 -156.5 231.5t-175.5 65.5h-8v-596h-338v596h-6q-104 0 -178 -64.5t-152 -224.5l-149 -307h-391l170 332q96 182 168.5 267
t167.5 120z" />
    <glyph glyph-name="uni0497" unicode="&#x497;" horiz-adv-x="1726" 
d="M510 270l-150 -270h-346l174 301q56 96 103 140t119 69q-56 20 -92.5 51t-63.5 80l-43 80q-21 37 -43.5 47t-71.5 12h-24l-6 217q55 11 114 11q84 0 135.5 -17.5t85 -54.5t70.5 -107l61 -112q33 -62 66 -83.5t100 -21.5v381h308v-381q67 0 102 23.5t66 81.5l57 112
q53 103 115.5 140t175.5 39q61 0 116 -11l-6 -217h-24q-52 -2 -74.5 -14t-42.5 -49l-41 -76q-29 -51 -65.5 -81t-90.5 -50q70 -25 120 -72t110 -151l26 -49h148v-525h-291v287h-64l-149 270q-31 56 -50.5 80.5t-50 37.5t-87.5 13v-401h-308v401q-57 0 -87.5 -13t-49 -37.5
t-51.5 -80.5z" />
    <glyph glyph-name="uni049A" unicode="&#x49a;" horiz-adv-x="1513" 
d="M520 596v-596h-352v1397h352v-543q88 0 135 16.5t86 66.5t93 163q49 108 100 172.5t122.5 98.5t180.5 34q39 0 125 -8l-6 -264q-76 0 -120 -19.5t-69.5 -57.5t-56.5 -110q-37 -84 -85 -142.5t-101 -84.5q106 -43 183 -133t183 -295h197v-578h-338v287h-109l-149 311
q-60 123 -113 184.5t-111.5 81t-146.5 19.5z" />
    <glyph glyph-name="uni049B" unicode="&#x49b;" horiz-adv-x="1163" 
d="M426 612h12q64 0 103 25t67 84l72 135q43 82 105.5 117t172.5 35q62 0 117 -11l-6 -217h-25q-51 0 -71.5 -12t-40.5 -47l-45 -82q-29 -49 -65 -79t-89 -50q70 -25 118 -70t97 -131l41 -71h146v-525h-291v287h-64l-147 268q-41 74 -82 103.5t-113 29.5h-12v-401h-307v993
h307v-381z" />
    <glyph glyph-name="uni04B2" unicode="&#x4b2;" horiz-adv-x="1657" 
d="M557 1311q141 -176 264 -334q105 145 330 420h438l-542 -672l364 -434h217v-578h-338v287h-88l-381 463q-88 -117 -370 -463h-443l592 725l-559 672h446z" />
    <glyph glyph-name="uni04B3" unicode="&#x4b3;" horiz-adv-x="1208" 
d="M811 993h344l-383 -477l221 -278h189v-525h-293v287h-88l-226 303l-219 -303h-344l391 494l-397 499h379l213 -288z" />
    <glyph glyph-name="Ohorn" unicode="&#x1a0;" horiz-adv-x="1853" 
d="M1442 1196q71 10 113 44t61.5 104.5t19.5 191.5h258q0 -250 -78.5 -372t-246.5 -156q69 -144 69 -310q0 -198 -92 -361t-268 -259t-418 -96q-244 0 -418 97t-264 260t-90 357q0 185 84 348.5t259 267t435 103.5q181 0 327 -57.5t249 -161.5zM449 696q0 -118 52 -211.5
t146 -144.5t213 -51q187 0 302.5 110.5t115.5 300.5q0 111 -49 204t-143.5 148.5t-223.5 55.5q-125 0 -219 -52t-144 -145.5t-50 -214.5z" />
    <glyph glyph-name="ohorn" unicode="&#x1a1;" horiz-adv-x="1419" 
d="M1057 846q69 16 99 71.5t30 176.5h258q0 -205 -68.5 -306.5t-216.5 -132.5q25 -73 25 -157q0 -156 -70 -272.5t-196.5 -180t-290.5 -63.5q-176 0 -301 68.5t-189.5 185t-64.5 260.5q0 149 65.5 266t191.5 183.5t300 66.5q137 0 246.5 -43t181.5 -123zM393 498
q0 -129 63.5 -204t172.5 -75q108 0 171.5 76t63.5 203q0 131 -65.5 203.5t-173.5 72.5q-107 0 -169.5 -73.5t-62.5 -202.5z" />
    <glyph glyph-name="Uhorn" unicode="&#x1af;" horiz-adv-x="1896" 
d="M829 281q164 0 251 87t87 267v762h353v-201q100 16 142 91t42 249h258q0 -197 -49 -312.5t-144.5 -167.5t-248.5 -63v-366q0 -310 -181.5 -477.5t-509.5 -167.5q-333 0 -513.5 168.5t-180.5 470.5v776h352v-758q0 -174 87.5 -266t254.5 -92z" />
    <glyph glyph-name="uhorn" unicode="&#x1b0;" horiz-adv-x="1487" 
d="M575 223q123 0 220 152v618h307v-153q96 6 136 60t40 194h258q0 -168 -47 -266.5t-141.5 -141.5t-245.5 -49v-637h-307v137q-74 -80 -156 -117.5t-180 -37.5q-350 0 -350 417v594h307v-559q0 -211 159 -211z" />
    <glyph glyph-name="endash" unicode="&#x2013;" horiz-adv-x="1024" 
d="M-10 385v242h1044v-242h-1044z" />
    <glyph glyph-name="emdash" unicode="&#x2014;" horiz-adv-x="2048" 
d="M-10 385v244h2068v-244h-2068z" />
    <glyph glyph-name="uni2015" unicode="&#x2015;" horiz-adv-x="1702" 
d="M258 385v244h1186v-244h-1186z" />
    <glyph glyph-name="quoteleft" unicode="&#x2018;" horiz-adv-x="567" 
d="M86 1010q0 94 46 179t136 145.5t219 80.5v-55q-69 -33 -102 -95.5t-33 -168.5q70 -21 106 -66t36 -112q0 -78 -55.5 -133.5t-131.5 -55.5q-102 0 -161.5 83t-59.5 198z" />
    <glyph glyph-name="quoteright" unicode="&#x2019;" horiz-adv-x="567" 
d="M481 1137q0 -95 -45 -180t-136 -145t-220 -83v59q70 33 102.5 95.5t32.5 167.5q-70 20 -105.5 65t-35.5 111q0 78 54 133t132 55q102 0 161.5 -82t59.5 -196z" />
    <glyph glyph-name="quotesinglbase" unicode="&#x201a;" horiz-adv-x="567" 
d="M481 90q0 -94 -46 -179t-136 -145.5t-219 -80.5v55q135 63 135 264q-70 21 -105.5 66t-35.5 112q0 76 55 131.5t131 55.5q102 0 161.5 -83t59.5 -196z" />
    <glyph glyph-name="quotedblleft" unicode="&#x201c;" horiz-adv-x="1067" 
d="M74 1010q0 94 45 179t136 145.5t220 80.5v-55q-69 -35 -102 -97.5t-33 -166.5q70 -21 105.5 -66t35.5 -112q0 -76 -55 -132.5t-131 -56.5q-102 0 -161.5 83t-59.5 198zM596 1010q0 92 46 177t136 146.5t219 81.5v-55q-69 -35 -102 -98.5t-33 -165.5q142 -39 142 -178
q0 -76 -54.5 -132.5t-130.5 -56.5q-104 0 -163.5 83t-59.5 198z" />
    <glyph glyph-name="quotedblright" unicode="&#x201d;" horiz-adv-x="1067" 
d="M469 1137q0 -95 -45 -180t-136 -146t-220 -82v59q65 31 99 91.5t36 171.5q-70 20 -106 65t-36 111q0 78 54.5 133t132.5 55q102 0 161.5 -83t59.5 -195zM993 1137q0 -95 -46 -180t-136 -146t-219 -82v59q65 31 99 91.5t36 171.5q-72 20 -107.5 65t-35.5 111q0 78 54 133
t132 55q104 0 163.5 -83t59.5 -195z" />
    <glyph glyph-name="quotedblbase" unicode="&#x201e;" horiz-adv-x="1081" 
d="M475 90q0 -94 -46 -179t-136 -145.5t-219 -80.5v55q69 35 102 96.5t33 167.5q-70 21 -105.5 66t-35.5 112q0 76 55 131.5t131 55.5q104 0 162.5 -82t58.5 -197zM999 90q0 -94 -46 -179t-136 -145.5t-219 -80.5v55q70 35 102.5 97.5t32.5 166.5q-69 21 -105 66t-36 112
q0 76 54 131.5t132 55.5q103 0 162 -83t59 -196z" />
    <glyph glyph-name="dagger" unicode="&#x2020;" horiz-adv-x="1092" 
d="M688 1362q0 -19 -12 -98l-68 -375l285 63q65 17 96 17q55 0 55 -76v-127q0 -88 -51 -88q-22 0 -102 18l-283 66l97 -1055l4 -51q4 -57 4 -70q0 -39 -20.5 -53t-71.5 -14h-154q-51 0 -72.5 15t-21.5 52q0 23 12 146l94 1030l-280 -68q-76 -16 -97 -16q-30 0 -42.5 25.5
t-12.5 58.5v133q0 74 53 74q33 0 103 -17l276 -63l-71 383q-13 69 -13 90q0 29 23.5 41t81.5 12h98q49 0 69.5 -12t20.5 -41z" />
    <glyph glyph-name="daggerdbl" unicode="&#x2021;" horiz-adv-x="1092" 
d="M684 1364q0 -21 -5 -51.5t-9 -48.5l-58 -334l262 57q21 4 51.5 10.5t57.5 6.5q59 0 59 -76v-121q0 -80 -57 -80q-20 0 -55 8l-49 10l-269 58l60 -334l-60 -340l283 64q16 4 41 9t45 5q35 0 48 -21.5t13 -62.5v-105q0 -88 -55 -88q-18 0 -88 13l-287 59l58 -324l8 -45
q8 -49 8 -57q0 -61 -92 -61h-96q-43 0 -64.5 12t-21.5 43q0 27 12 88l59 344l-297 -59q-67 -13 -90 -13q-45 0 -45 82v113q0 82 47 82q13 0 33.5 -4t40.5 -8l311 -66l-69 340l69 334l-274 -60q-72 -16 -98 -16q-31 0 -45.5 20.5t-14.5 63.5v123q0 37 14.5 53.5t47.5 16.5
q16 0 75 -13l295 -61l-61 334q-12 73 -12 96q0 29 17 42t71 13h96q90 0 90 -51z" />
    <glyph glyph-name="bullet" unicode="&#x2022;" horiz-adv-x="934" 
d="M467 389q-84 0 -154.5 42t-112.5 112.5t-42 154.5t42 156t112.5 114t154.5 42q86 0 156.5 -42t110.5 -114t40 -156t-41 -154.5t-111.5 -112.5t-154.5 -42z" />
    <glyph glyph-name="ellipsis" unicode="&#x2026;" horiz-adv-x="2048" 
d="M342 -18q-76 0 -132 56t-56 132q0 78 55 133t133 55q80 0 133 -55t53 -133q0 -80 -54 -134t-132 -54zM1026 -18q-78 0 -133 55t-55 133t55 133t133 55t131 -55t53 -133q0 -80 -54 -134t-130 -54zM1708 -18q-78 0 -133 55t-55 133t55 133t133 55t132 -55t54 -133
q0 -80 -54 -134t-132 -54z" />
    <glyph glyph-name="perthousand" unicode="&#x2030;" horiz-adv-x="2257" 
d="M397 754q-90 0 -166.5 45t-120.5 121.5t-44 169.5q0 92 45 166.5t120.5 117.5t165.5 43t167 -43t122 -118.5t45 -165.5q0 -93 -44 -169.5t-121 -121.5t-169 -45zM174 -18l977 1435h188l-974 -1435h-191zM539 1087q0 62 -42 104t-102 42q-57 0 -98 -42t-41 -104
q0 -61 41 -105t100 -44q60 0 101 44t41 105zM1112 -18q-90 0 -167 44t-121 120.5t-44 168.5q0 93 45 168.5t121 118.5t166 43t167 -44t122 -118.5t45 -167.5q0 -90 -44 -166.5t-121 -121.5t-169 -45zM1858 -18q-91 0 -167.5 44t-120.5 120.5t-44 168.5q0 93 45 168.5
t120.5 118.5t166.5 43q90 0 166.5 -44t121.5 -118.5t45 -167.5q0 -90 -44 -166.5t-120.5 -121.5t-168.5 -45zM1253 313q0 64 -42 106t-101 42t-99 -42t-40 -106q0 -61 40 -104t101 -43q59 0 100 43t41 104zM2001 313q0 64 -42 106t-104 42q-57 0 -97 -42t-40 -106
q0 -61 40 -104t100 -43q59 0 101 43t42 104z" />
    <glyph glyph-name="guilsinglleft" unicode="&#x2039;" horiz-adv-x="698" 
d="M643 0h-289l-311 489l311 486h289l-311 -486z" />
    <glyph glyph-name="guilsinglright" unicode="&#x203a;" horiz-adv-x="698" 
d="M344 0h-287l312 489l-312 486h287l311 -486z" />
    <glyph glyph-name="glyph485" horiz-adv-x="270" 
d="M-430 -51l942 1466h186l-942 -1466h-186z" />
    <glyph glyph-name="uni0E3F" unicode="&#xe3f;" horiz-adv-x="1245" 
d="M1116 1049q0 -109 -54 -181.5t-149 -111.5q123 -49 194 -144.5t71 -214.5q0 -180 -124 -287.5t-382 -109.5v-160h-148v160h-422v1397h422v131h148v-131q221 -6 332.5 -100.5t111.5 -247.5zM524 1180h-121v-363h121v363zM672 1178v-359q71 12 108 59.5t37 122.5
q0 154 -145 177zM403 602v-385h121v385h-121zM672 600v-383q84 10 132 57.5t48 133.5q0 84 -47 133t-133 59z" />
    <glyph glyph-name="uni20A0" unicode="&#x20a0;" horiz-adv-x="1411" 
d="M954 737v-170h353v-184h-353v-186h379v-197h-641v475q-71 -16 -145 -16q-146 0 -254.5 58t-167.5 167t-59 252q0 137 59 245.5t172 171t266 62.5q164 0 297 -72v-241q-59 43 -132 65.5t-142 22.5q-123 0 -184.5 -75t-61.5 -181q0 -117 65.5 -183.5t178.5 -66.5
q47 0 108 21v229h631v-197h-369z" />
    <glyph glyph-name="colonmonetary" unicode="&#x20a1;" horiz-adv-x="1159" 
d="M72 698q0 273 122.5 464.5t372.5 238.5l15 127h129l-13 -115l21 2q45 0 94 -6l12 119h131l-16 -142q78 -18 152 -51l-58 -260q-10 6 -48 24.5t-68 28.5l-91 -878q144 24 265 123v-289q-68 -43 -135.5 -66.5t-153.5 -31.5l-12 -146h-132l15 144q-45 2 -113 14l-16 -158
h-129l18 197q-182 74 -272 247t-90 414zM696 242l95 913q-19 2 -58 2q-33 0 -59 -6l-88 -879q57 -24 110 -30zM467 385l74 711q-74 -56 -110 -160.5t-36 -239.5q0 -192 72 -311z" />
    <glyph glyph-name="uni20A2" unicode="&#x20a2;" horiz-adv-x="1159" 
d="M1135 889l-70 -305q-47 82 -104 82q-50 0 -92 -73t-56 -179v-174q109 22 223 90v-250q-80 -51 -160.5 -73.5t-175.5 -22.5q-194 0 -336.5 87t-219 245.5t-76.5 371.5t72.5 378t215 257t340.5 92q92 0 184.5 -19.5t170.5 -60.5l-56 -250q-125 82 -274 82
q-172 0 -268.5 -124.5t-96.5 -342.5q0 -317 172 -417v667h285v-235q72 254 186 254q74 0 136 -80z" />
    <glyph glyph-name="franc" unicode="&#x20a3;" horiz-adv-x="1159" 
d="M201 0v236h-174v198h174v963h839v-248h-516v-293h516v-248h-516v-174h295v-198h-295v-236h-323z" />
    <glyph glyph-name="lira" unicode="&#x20a4;" horiz-adv-x="1159" 
d="M891 1415q51 0 98 -14l139 -283q-77 31 -153 31q-176 0 -287 -258h174v-164h-235l-35 -125h270v-164h-311l-41 -162q61 15 106 15q70 0 117 -8.5t55 -10.5q82 -16 134 -16q51 0 85.5 8t73.5 31v-283q-49 -16 -87 -23t-97 -7q-66 0 -120 6t-99 12q-111 16 -189 16
q-182 0 -380 -34l114 456h-127v164h170l33 125h-203v164h254q86 248 217 386t324 138z" />
    <glyph glyph-name="uni20A5" unicode="&#x20a5;" horiz-adv-x="1896" 
d="M1329 1012q156 0 234.5 -97.5t78.5 -287.5v-627h-305v590q0 88 -32.5 134t-96.5 46q-49 0 -97 -34t-77 -93v-643h-307v135l-254 -522h-137l391 795v186q0 176 -129 176q-109 0 -174 -127v-643h-305v993h305v-125q121 144 295 144t256 -123l213 434h135l-176 -358
q82 47 182 47z" />
    <glyph glyph-name="uni20A6" unicode="&#x20a6;" horiz-adv-x="1372" 
d="M1210 0h-274l-272 498h-205v-498h-297v498h-142v161h142v125h-142v164h142v449h282l258 -449h211v449h297v-449h142v-164h-142v-125h142v-161h-142v-498zM506 784h-47v-125h114zM913 784h-116l71 -125h45v125z" />
    <glyph glyph-name="peseta" unicode="&#x20a7;" horiz-adv-x="2693" 
d="M1075 1051q4 -29 4 -84h99v213l305 116v-331h305v-222h-305v-358q0 -82 26.5 -121t100.5 -39q96 0 200 66v-236q-61 -32 -144 -52.5t-153 -20.5q-174 0 -255.5 93t-81.5 275v393h-160q-121 -194 -432 -194h-111v-549h-323v1397h417q228 0 358 -92.5t150 -253.5zM750 971
q0 102 -58.5 144t-189.5 42h-29v-369h37q125 0 182.5 44.5t57.5 138.5zM2241 1012q83 0 167 -20.5t154 -59.5v-232q-84 56 -148.5 79.5t-123.5 23.5q-52 0 -78.5 -19.5t-26.5 -48.5q0 -22 10.5 -38.5t47 -40t114.5 -60.5q131 -61 193.5 -134t62.5 -179q0 -133 -96 -217
t-274 -84q-172 0 -357 75v238q154 -105 287 -105q61 0 96 20.5t35 51.5q0 39 -35 68.5t-151 89.5q-129 63 -185.5 137t-56.5 168q0 78 44 143.5t127 104.5t194 39z" />
    <glyph glyph-name="uni20A8" unicode="&#x20a8;" horiz-adv-x="2019" 
d="M823 631q56 -27 100 -79t93 -149l194 -403h-362l-148 315q-49 105 -84.5 158t-65.5 71.5t-67 18.5h-10v-563h-323v1397h417q242 0 377 -103.5t135 -314.5q0 -272 -256 -348zM750 971q0 102 -56.5 144t-179.5 42h-41v-366h49q119 0 173.5 44t54.5 136zM1567 1012
q84 0 167 -20.5t154 -59.5v-232q-149 103 -272 103q-51 0 -78 -19.5t-27 -48.5q0 -22 11.5 -38.5t47.5 -40t113 -60.5q132 -61 194 -134t62 -179q0 -140 -97 -220.5t-273 -80.5q-172 0 -357 75v238q158 -105 287 -105q62 0 96.5 20.5t34.5 49.5q0 41 -35.5 71.5t-150.5 88.5
q-129 63 -185.5 137t-56.5 168q0 76 43 141.5t125 105.5t197 40z" />
    <glyph glyph-name="uni20A9" unicode="&#x20a9;" horiz-adv-x="1548" 
d="M1243 -18h-301l-102 516h-146l-104 -516h-301l-107 516h-176v161h144l-25 125h-119v164h84l-90 449h342l70 -449h135l94 449h264l90 -449h138l73 449h342l-96 -449h90v-164h-127l-26 -125h153v-161h-188zM512 784h-74l19 -125h30zM784 784h-32l-25 -125h82zM1106 784h-78
l25 -125h32z" />
    <glyph glyph-name="uni20AA" unicode="&#x20aa;" horiz-adv-x="1737" 
d="M1221 600v-242h-289v246q0 72 -41 110t-111 38h-372v-752h-289v993h686q225 0 320.5 -104.5t95.5 -288.5zM1628 395v598h-289v-590q0 -86 -41 -123.5t-118 -37.5h-365v393h-289v-635h686q226 0 321 104.5t95 290.5z" />
    <glyph glyph-name="dong" unicode="&#x20ab;" horiz-adv-x="1159" 
d="M1174 1280v-152h-130v-1128h-419q-301 0 -428 129t-127 387q0 133 52 247t151.5 181.5t236.5 67.5q129 0 227 -66v182h-219v152h219v117h307v-117h130zM645 236h92v489q-73 55 -151 55q-88 0 -142.5 -72.5t-54.5 -189.5q0 -153 56.5 -217.5t199.5 -64.5zM145 -332v195
h899v-195h-899z" />
    <glyph glyph-name="Euro" unicode="&#x20ac;" horiz-adv-x="1266" 
d="M1212 1335l-57 -264q-82 43 -148.5 62.5t-148.5 19.5q-113 0 -190.5 -59.5t-114.5 -171.5h547l-27 -164h-555q-2 -25 -2 -62q0 -41 2 -59h545l-25 -164h-489q35 -113 112.5 -171t184.5 -58q98 0 193.5 34.5t172.5 98.5v-293q-84 -53 -176 -77.5t-235 -24.5
q-232 0 -388.5 128t-213.5 363h-152l25 164h110q-2 22 -2 61q0 43 2 60h-135l25 164h129q55 231 218 362t400 131q205 0 393 -80z" />
    <glyph glyph-name="uni20AD" unicode="&#x20ad;" horiz-adv-x="1159" 
d="M805 0l-318 614h-34v-614h-316v614h-137v199h137v584h316v-584h34l320 584h340l-344 -584h244v-199h-232l344 -614h-354z" />
    <glyph glyph-name="uni20AE" unicode="&#x20ae;" horiz-adv-x="1159" 
d="M31 1397h1097v-258h-391v-232l281 111v-182l-281 -111v-145l281 108v-182l-281 -109v-397h-315v279l-281 -111v182l281 111v145l-281 -108v182l281 108v351h-391v258z" />
    <glyph glyph-name="uni20AF" unicode="&#x20af;" horiz-adv-x="2451" 
d="M508 1419q84 166 242 275l170 -174q-54 -37 -99 -111q164 -29 286 -114t186.5 -212t64.5 -276q0 -258 -118 -439.5t-335 -274.5t-512 -93h-432v184q92 39 155.5 98.5t119 187.5t98.5 353q37 207 86 359q-66 -8 -142.5 -31t-134.5 -49v252q78 26 176.5 43.5t188.5 21.5z
M739 1174q-16 -52 -32.5 -128.5t-26.5 -130t-14 -75.5l-9 -47q-45 -234 -97 -352.5t-134 -202.5q180 0 314 69.5t206 198.5t72 301q0 168 -75 259t-204 108zM1964 1012q115 0 210 -51.5t150.5 -150.5t55.5 -243q0 -145 -65.5 -281t-192.5 -222.5t-299 -86.5q-115 0 -189 39
l-90 -422h-305l203 928q108 490 522 490zM1942 772q-138 0 -193 -262l-61 -260q36 -35 124 -35q68 0 126.5 52t92 138.5t33.5 182.5q0 90 -31.5 137t-90.5 47z" />
    <glyph glyph-name="uni20B0" unicode="&#x20b0;" horiz-adv-x="1159" 
d="M268 1081q0 146 98.5 240t284.5 94q178 0 278.5 -87t100.5 -228q0 -78 -30.5 -153t-116.5 -171q110 -92 169.5 -187t59.5 -208q0 -115 -61.5 -206t-182 -143t-295.5 -52q-161 0 -290 47v256q114 -66 272 -66q238 0 238 156q0 92 -117 192l-258 -235l-139 143l-103 -119
l-182 178l260 293l160 -172l71 68q-104 88 -160.5 175t-56.5 185zM688 918q47 51 60.5 87.5t13.5 84.5q0 47 -25.5 78.5t-72.5 31.5q-50 0 -75.5 -31.5t-25.5 -78.5q0 -43 32 -84t93 -88z" />
    <glyph glyph-name="uni20B1" unicode="&#x20b1;" horiz-adv-x="1159" 
d="M557 1397q182 0 305 -75t170 -214h125v-139h-98q2 -17 2 -49q0 -41 -2 -62h98v-139h-131q-47 -129 -161.5 -202t-291.5 -73h-120v-444h-326v719h-127v139h127v111h-127v139h127v289h430zM508 1194h-55v-86h241q-53 86 -186 86zM733 969h-280v-111h280q4 33 4 57
q0 17 -4 54zM686 719h-233v-72h67q117 0 166 72z" />
    <glyph glyph-name="uni20B2" unicode="&#x20b2;" horiz-adv-x="1415" 
d="M1239 1319v-262q-88 43 -193.5 67.5t-197.5 26.5v-406h434v-679q-90 -35 -210 -55.5t-224 -24.5v-146h-172v150q-187 22 -319 120.5t-200.5 253t-68.5 349.5q0 188 71.5 336.5t204 240.5t312.5 117v121h172v-115q205 -6 391 -94zM676 262v873q-127 -33 -195.5 -143.5
t-68.5 -291.5q0 -170 71.5 -285.5t192.5 -152.5zM981 258v244h-133v-256q55 0 133 12z" />
    <glyph glyph-name="uni20B3" unicode="&#x20b3;" horiz-adv-x="1159" 
d="M1145 0h-334l-57 244h-348l-58 -244h-336l68 244h-60v162h103l35 124h-138v164h183l190 703h381l187 -703h178v-164h-138l35 -124h103v-162h-60zM584 999l-74 -305h143zM688 530h-215l-31 -124h275z" />
    <glyph glyph-name="uni20B5" unicode="&#x20b5;" horiz-adv-x="1159" 
d="M1069 1335l-55 -264q-105 72 -209 80v-903q127 16 250 96v-264q-121 -76 -250 -90v-150h-172v150q-256 26 -400.5 213.5t-144.5 484.5q0 301 141.5 496.5t403.5 224.5v119h172v-119q149 -14 264 -74zM633 262v873q-107 -39 -164 -151t-57 -284q0 -182 56 -291.5
t165 -146.5z" />
    <glyph glyph-name="uni2116" unicode="&#x2116;" horiz-adv-x="2423" 
d="M1114 545v459q0 147 37 232t123 123t237 38h129v-250h-69q-117 0 -117 -129v-1018h-297l-668 860v-860h-339v1397h303zM1987 1067q108 0 195 -47t136 -128t49 -181q0 -99 -48 -180.5t-135 -130t-195 -48.5q-107 0 -194 46t-137 128t-50 185q0 98 49 180t136 129t194 47z
M1989 553q65 0 109 45t44 113q0 65 -44 110t-109 45q-66 0 -110 -45t-44 -110q0 -66 44 -112t110 -46zM2349 63h-715v179h715v-179z" />
    <glyph glyph-name="trademark" unicode="&#x2122;" horiz-adv-x="1960" 
d="M61 1397h752v-158h-281v-651h-188v651h-283v158zM1366 881l162 516h276v-809h-180v606l-188 -606h-146l-186 606v-606h-178v809h274z" />
    <glyph glyph-name="macron" unicode="&#xaf;" horiz-adv-x="1024" 
d="M-12 1554v189h1048v-189h-1048z" />
    <glyph glyph-name="glyph511" horiz-adv-x="707" 
d="M184 162l37 37q88 94 128 152.5t40 115.5q0 45 -30.5 72.5t-82.5 27.5q-104 0 -206 -106v188q71 45 130.5 63.5t125.5 18.5q125 0 199.5 -62.5t74.5 -164.5q0 -70 -42 -144.5t-159 -195.5h263v-164h-617v29q35 28 80 73t59 60z" />
    <glyph glyph-name="glyph512" horiz-adv-x="707" 
d="M666 307v-133h-95v-174h-198v174h-348v123l395 426h151v-416h95zM373 307v187l-172 -187h172z" />
    <glyph glyph-name="glyph513" horiz-adv-x="707" 
d="M305 682v446l-123 -96l-104 133l293 242h139v-725h-205z" />
    <glyph glyph-name="glyph514" horiz-adv-x="707" 
d="M221 881q86 90 127 150.5t41 117.5q0 45 -30.5 72.5t-82.5 27.5q-104 0 -206 -106v190q71 43 130.5 60.5t125.5 17.5q125 0 199.5 -62.5t74.5 -164.5q0 -68 -42 -141.5t-159 -198.5h263v-162h-617v29q51 45 176 170z" />
    <glyph glyph-name="glyph515" horiz-adv-x="707" 
d="M596 1212q0 -90 -94 -153q108 -58 108 -172q0 -96 -79.5 -155.5t-204.5 -59.5q-60 0 -125.5 14t-118.5 37v172q55 -37 102 -55.5t97 -18.5q49 0 79.5 21.5t30.5 56.5q0 43 -40 65.5t-128 24.5v129h15q75 0 108 18.5t33 57.5q0 31 -28.5 53.5t-78.5 22.5q-77 0 -168 -53
v151q121 43 215 43q130 0 203.5 -58.5t73.5 -140.5z" />
    <glyph glyph-name="glyph516" 
d="M336 1509h-189l195 336h367z" />
    <glyph glyph-name="glyph517" 
d="M348 1509l-373 336h367l195 -336h-189z" />
    <glyph glyph-name="glyph518" 
d="M731 1509h-190l-201 185l-201 -185h-186l201 336h372z" />
    <glyph glyph-name="glyph519" 
d="M381 1751q88 -35 115 -35q69 0 75 86h144q-2 -139 -61.5 -218t-159.5 -79q-62 0 -181 49q-92 35 -123 35q-67 0 -79 -84h-144q0 97 32 163.5t83 100t104 33.5q37 0 77 -12t118 -39z" />
    <glyph glyph-name="glyph520" 
d="M125 1821q57 0 98 -42t41 -100q0 -57 -41 -99t-98 -42t-99 42t-42 99q0 58 42 100t99 42zM559 1821q57 0 98 -42t41 -100q0 -57 -41 -99t-98 -42t-99 42t-42 99q0 58 42 100t99 42z" />
    <glyph glyph-name="glyph521" 
d="M504 1696q0 -70 -47 -117t-115 -47q-70 0 -117 48t-47 116q0 67 48 114.5t116 47.5t115 -48.5t47 -113.5z" />
    <glyph glyph-name="glyph522" 
d="M340 1913q86 0 148.5 -62.5t62.5 -146.5q0 -86 -62.5 -147.5t-148.5 -61.5t-146.5 61.5t-60.5 147.5t60.5 147.5t146.5 61.5zM340 1597q45 0 77 31t32 76t-32 76.5t-77 31.5t-76 -31.5t-31 -76.5t31 -76t76 -31z" />
    <glyph glyph-name="glyph523" 
d="M346 1700q70 0 114 36t56 95h193q-21 -160 -117 -248t-250 -88q-158 0 -256 88t-113 248h193q29 -131 180 -131z" />
    <glyph glyph-name="glyph524" 
d="M655 1565h-628v194h628v-194z" />
    <glyph glyph-name="glyph525" 
d="M330 1657l198 188h189l-201 -336h-375l-202 336h188z" />
    <glyph glyph-name="glyph526" 
d="M182 1509h-172l146 336h340zM612 1509h-172l146 336h340z" />
    <glyph glyph-name="glyph527" 
d="M393 1040h-190l98 357h332z" />
    <glyph glyph-name="glyph528" 
d="M193 -530q120 41 124 153q-59 4 -94 39t-35 88q0 72 52.5 113t119.5 41q78 0 129.5 -49.5t51.5 -135.5q0 -55 -23.5 -105t-69 -89t-110 -62.5t-145.5 -27.5v35z" />
    <glyph glyph-name="glyph529" horiz-adv-x="612" 
d="M117 903q71 23 104 74t35 119q-59 4 -95 44t-36 103q0 84 55.5 131t126.5 47q82 0 137.5 -57t55.5 -156q0 -67 -27 -127.5t-77 -107.5t-120.5 -76t-158.5 -33v39z" />
    <glyph glyph-name="uni04B0" unicode="&#x4b0;" horiz-adv-x="1430" 
d="M1049 1397h381l-535 -729v-31h410v-207h-410v-430h-352v430h-410v207h410v27l-543 733h377l334 -453z" />
    <glyph glyph-name="uni04B1" unicode="&#x4b1;" horiz-adv-x="1251" 
d="M141 197h332v18l-393 778h330l227 -477l231 477h303l-391 -776v-20h332v-197h-332v-473h-307v473h-332v197z" />
    <glyph glyph-name="uni04B6" unicode="&#x4b6;" horiz-adv-x="1545" 
d="M655 475q-215 0 -344 62.5t-186 191.5t-57 336v332h352v-365q0 -100 24.5 -160.5t86 -91t174.5 -30.5q116 0 215 30v617h352v-1106h246v-578h-338v287h-260v514q-123 -39 -265 -39z" />
    <glyph glyph-name="uni04B7" unicode="&#x4b7;" horiz-adv-x="1377" 
d="M508 301q-358 0 -358 401v291h307v-248q0 -106 39 -152t120 -46q64 0 121.5 34.5t100.5 102.5v309h307v-755h205v-525h-291v287h-221v442q-129 -141 -330 -141z" />
    <glyph glyph-name="uni20B4" unicode="&#x20b4;" horiz-adv-x="1187" 
d="M338 727l59 39h-369v162h635q64 47 64 110q0 56 -43 90.5t-127 34.5q-203 0 -387 -139v281q86 51 196.5 80.5t227.5 29.5q153 0 258.5 -50t159 -137t53.5 -198q0 -49 -21 -102h115v-162h-215q-33 -35 -72 -60.5t-106 -64.5h393v-162h-649q-50 -47 -50 -108
q0 -52 46.5 -89.5t140.5 -37.5q211 0 407 147v-293q-229 -116 -458 -116q-146 0 -255.5 51t-169 142t-59.5 212q0 53 13 92h-97v162h187q28 31 123 86z" />
    <glyph glyph-name="glyph535" 
d="M496 1528q-60 -29 -86.5 -67t-28.5 -93q51 -6 81 -38t30 -83q0 -65 -45.5 -103t-104.5 -38q-68 0 -114 47t-46 125q0 49 20.5 96t60.5 85t97.5 63.5t128.5 31.5z" />
    <glyph glyph-name="glyph536" 
d="M600 -270q0 -201 -328 -201q-49 0 -98 6v125q41 -4 92 -4q99 0 99 63q0 54 -76 54q-10 0 -51 -4l24 131h57q138 0 209.5 -45t71.5 -125z" />
    <glyph glyph-name="glyph537" horiz-adv-x="1225" 
d="M459 -246q0 -84 -64.5 -133t-191.5 -49q-58 0 -84 6v119q37 -4 61 -4q84 0 84 49q0 22 -17.5 35.5t-43.5 13.5q-21 0 -33 -2l39 111h31q108 0 163.5 -37t55.5 -109z" />
    </font>
</defs>
</svg>
